<svg id="Camada_1" data-name="Camada 1" xmlns="http://www.w3.org/2000/svg" viewBox="0 0 12.65 12.66"><defs><style>.cls-1{fill:none;stroke:#08f;stroke-miterlimit:10;stroke-width:0.1px;}</style></defs><title>LogoOnly</title><path id="Caminho_120" data-name="Caminho 120" class="cls-1" d="M18.73,10.76a6.53,6.53,0,0,1-.34,2.05,5.91,5.91,0,0,1-.6,1.24,5.24,5.24,0,0,1-.59.81,6.67,6.67,0,0,1-.59.6c-.19.16-.39.32-.59.46s-.39.25-.6.36a4.53,4.53,0,0,1-.59.28h0a5.89,5.89,0,0,1-.59.21h0a4.2,4.2,0,0,1-.59.14h0c-.2,0-.39.07-.59.09h0a5.68,5.68,0,0,1-.59,0q-.3,0-.6,0l-.59-.09a3.9,3.9,0,0,1-.59-.14q-.3-.09-.6-.21a4.53,4.53,0,0,1-.59-.28c-.2-.11-.4-.23-.59-.36a5.46,5.46,0,0,1-.59-.46q-.32-.29-.6-.6a7,7,0,0,1-.59-.81,6.4,6.4,0,0,1-.59-1.24A6.26,6.26,0,0,1,8.32,6.06a4.51,4.51,0,0,1,.59-.47c.19-.13.39-.25.59-.36A5.5,5.5,0,0,1,10.1,5a5.89,5.89,0,0,1,.59-.21l.59-.14a4,4,0,0,1,.59-.08l.6,0a3,3,0,0,1,.59,0h0a4,4,0,0,1,.59.08h0l.59.14h0a5.89,5.89,0,0,1,.59.21h0a6.54,6.54,0,0,1,.6.28c.2.11.4.23.59.36a5.29,5.29,0,0,1,.59.47,6.26,6.26,0,0,1,2.12,4.7Z" transform="translate(-6.14 -4.43)"/><path id="Caminho_121" data-name="Caminho 121" class="cls-1" d="M18.73,10.76a6.53,6.53,0,0,1-.34,2.05,5.91,5.91,0,0,1-.6,1.24,5.24,5.24,0,0,1-.59.81,6.67,6.67,0,0,1-.59.6,6.8,6.8,0,0,1-.6.46,5.8,5.8,0,0,1-.59.36,4.53,4.53,0,0,1-.59.28h0a5.89,5.89,0,0,1-.59.21h0a4.2,4.2,0,0,1-.59.14h0l-.59.09h0l-.15,0h0l-.44-.07h0a4.2,4.2,0,0,1-.59-.14h0a5.89,5.89,0,0,1-.59-.21,4.53,4.53,0,0,1-.59-.28c-.2-.11-.4-.23-.59-.36a6.8,6.8,0,0,1-.6-.46,8.35,8.35,0,0,1-.59-.6,5.24,5.24,0,0,1-.59-.81,5.87,5.87,0,0,1-.59-1.24A6.27,6.27,0,0,1,9.51,6.06a5.39,5.39,0,0,1,.6-.47,5.8,5.8,0,0,1,.59-.36A5,5,0,0,1,11.27,5a5.89,5.89,0,0,1,.59-.21h0l.59-.14h0l.44-.07H13a3.81,3.81,0,0,1,.59.08h0l.6.14h0a6.26,6.26,0,0,1,.61.21h0a6.54,6.54,0,0,1,.6.28c.2.11.4.23.59.36a5.29,5.29,0,0,1,.59.47,6.26,6.26,0,0,1,2.12,4.7Z" transform="translate(-6.14 -4.43)"/><path id="Caminho_122" data-name="Caminho 122" class="cls-1" d="M18.73,10.76a6.53,6.53,0,0,1-.34,2.05,5.91,5.91,0,0,1-.6,1.24,5.24,5.24,0,0,1-.59.81,6.67,6.67,0,0,1-.59.6,6.8,6.8,0,0,1-.6.46,5.8,5.8,0,0,1-.59.36,4.53,4.53,0,0,1-.59.28h0a5.89,5.89,0,0,1-.59.21h0a4.2,4.2,0,0,1-.59.14h-.07l-.52-.13h0a5.89,5.89,0,0,1-.59-.21,4.53,4.53,0,0,1-.59-.28,6,6,0,0,1-.6-.36c-.2-.14-.4-.3-.59-.46a6.67,6.67,0,0,1-.59-.6,5.24,5.24,0,0,1-.59-.81,5.91,5.91,0,0,1-.6-1.24,6.26,6.26,0,0,1,1.78-6.75,6.61,6.61,0,0,1,.58-.47c.19-.13.39-.25.59-.36A6.36,6.36,0,0,1,12.45,5a6.08,6.08,0,0,1,.6-.21h0l.51-.13h.07l.59.14h0a6.26,6.26,0,0,1,.61.21h0a6.54,6.54,0,0,1,.6.28c.2.11.4.23.59.36a5.29,5.29,0,0,1,.59.47,6.26,6.26,0,0,1,2.12,4.7Z" transform="translate(-6.14 -4.43)"/><path id="Caminho_123" data-name="Caminho 123" class="cls-1" d="M14.83,16.56h0a5.89,5.89,0,0,1-.59.21h0l-.55-.19a4.53,4.53,0,0,1-.59-.28,5.8,5.8,0,0,1-.59-.36,6.8,6.8,0,0,1-.6-.46,6.67,6.67,0,0,1-.59-.6,5.24,5.24,0,0,1-.59-.81,5.72,5.72,0,0,1-.59-1.25,6.26,6.26,0,0,1,1.77-6.75,6.8,6.8,0,0,1,.6-.46,5.8,5.8,0,0,1,.59-.36A4.53,4.53,0,0,1,13.65,5a5.1,5.1,0,0,1,.55-.19h0a5.8,5.8,0,0,1,.59.19h0a6.54,6.54,0,0,1,.6.28c.2.11.4.23.59.36a6.75,6.75,0,0,1,.59.47,6.26,6.26,0,0,1,1.78,6.75,6.4,6.4,0,0,1-.59,1.24,6.06,6.06,0,0,1-.6.81,6.67,6.67,0,0,1-.59.6,5.2,5.2,0,0,1-.59.46c-.19.13-.39.25-.59.36A4.66,4.66,0,0,1,14.83,16.56Z" transform="translate(-6.14 -4.43)"/><path id="Caminho_124" data-name="Caminho 124" class="cls-1" d="M15.42,16.28a4.53,4.53,0,0,1-.59.28h0a5.77,5.77,0,0,1-.56-.27c-.2-.11-.4-.23-.59-.36a5.46,5.46,0,0,1-.59-.46q-.32-.29-.6-.6a6,6,0,0,1-.59-.81,6.4,6.4,0,0,1-.59-1.24,6.28,6.28,0,0,1,1.78-6.76,5.46,5.46,0,0,1,.59-.46c.19-.13.39-.25.59-.36A4,4,0,0,1,14.79,5l0,0h0a6.36,6.36,0,0,1,.59.28c.21.11.4.23.6.36s.4.3.59.46a6.3,6.3,0,0,1,1.78,6.76,5.91,5.91,0,0,1-.6,1.24,5.24,5.24,0,0,1-.59.81,6.67,6.67,0,0,1-.59.6c-.19.16-.39.32-.59.46s-.39.25-.6.36Z" transform="translate(-6.14 -4.43)"/><path id="Caminho_125" data-name="Caminho 125" class="cls-1" d="M16,15.92a5.8,5.8,0,0,1-.59.36h0a6.53,6.53,0,0,1-.56-.35,6.8,6.8,0,0,1-.6-.46,8.35,8.35,0,0,1-.59-.6,6,6,0,0,1-.59-.81,6.4,6.4,0,0,1-.59-1.24,6.27,6.27,0,0,1,1.77-6.75,6.9,6.9,0,0,1,.6-.47,5.36,5.36,0,0,1,.57-.34l0,0c.2.11.4.23.59.36a4.51,4.51,0,0,1,.59.47,6.26,6.26,0,0,1,1.78,6.75,6.4,6.4,0,0,1-.59,1.24,7,7,0,0,1-.59.81q-.29.32-.6.6c-.19.16-.39.32-.59.46Z" transform="translate(-6.14 -4.43)"/><path id="Caminho_126" data-name="Caminho 126" class="cls-1" d="M16.61,15.46a6.8,6.8,0,0,1-.6.46l0,0a4.71,4.71,0,0,1-.56-.44q-.31-.29-.6-.6a7,7,0,0,1-.59-.81,6.4,6.4,0,0,1-.59-1.24,6.26,6.26,0,0,1,1.78-6.75A6.12,6.12,0,0,1,16,5.61l0,0c.2.14.4.3.59.46a6.3,6.3,0,0,1,1.78,6.76,5.91,5.91,0,0,1-.6,1.24,5.24,5.24,0,0,1-.59.81A6.67,6.67,0,0,1,16.61,15.46Z" transform="translate(-6.14 -4.43)"/><path id="Caminho_127" data-name="Caminho 127" class="cls-1" d="M17.2,14.86a6.67,6.67,0,0,1-.59.6l0,0a7.8,7.8,0,0,1-.57-.58,6,6,0,0,1-.59-.81,6.4,6.4,0,0,1-.59-1.24,6.26,6.26,0,0,1,1.75-6.73l0,0a6.29,6.29,0,0,1,1.77,6.76,6.4,6.4,0,0,1-.59,1.24,6.06,6.06,0,0,1-.6.81Z" transform="translate(-6.14 -4.43)"/><path id="Caminho_128" data-name="Caminho 128" class="cls-1" d="M17.79,14.05a5.24,5.24,0,0,1-.59.81l0,0a6.34,6.34,0,0,1-.57-.79,5.91,5.91,0,0,1-.6-1.24,6.29,6.29,0,0,1,1.17-6.13l0,0a6.42,6.42,0,0,1,.59.81,6.3,6.3,0,0,1,.6,5.35,5.91,5.91,0,0,1-.6,1.24Z" transform="translate(-6.14 -4.43)"/><path id="Caminho_129" data-name="Caminho 129" class="cls-1" d="M18.39,12.81a5.91,5.91,0,0,1-.6,1.24v0a6.48,6.48,0,0,1-.58-1.22,6.26,6.26,0,0,1,.58-5.32v0a6.3,6.3,0,0,1,.6,5.35Z" transform="translate(-6.14 -4.43)"/><path id="Caminho_130" data-name="Caminho 130" class="cls-1" d="M18.39,8.71a6.39,6.39,0,0,1,0,4.1s0,0,0-.05a6.26,6.26,0,0,1,0-4A.08.08,0,0,1,18.39,8.71Z" transform="translate(-6.14 -4.43)"/><path id="Caminho_131" data-name="Caminho 131" class="cls-1" d="M6.87,10.76a6,6,0,0,1-.32,2s0,0,0,0a6.26,6.26,0,0,1,0-4.1l0,0A6.26,6.26,0,0,1,6.87,10.76Z" transform="translate(-6.14 -4.43)"/><path id="Caminho_132" data-name="Caminho 132" class="cls-1" d="M8.06,10.76a6.25,6.25,0,0,1-.34,2.05A6.48,6.48,0,0,1,7.14,14l0,0a6.4,6.4,0,0,1-.59-1.24,6.3,6.3,0,0,1,.59-5.35l0,0A6.26,6.26,0,0,1,8.06,10.76Z" transform="translate(-6.14 -4.43)"/><path id="Caminho_133" data-name="Caminho 133" class="cls-1" d="M9.25,10.76a6.26,6.26,0,0,1-.35,2.05,6.4,6.4,0,0,1-.59,1.24,6.34,6.34,0,0,1-.57.79l0,0a6.06,6.06,0,0,1-.6-.81,6.4,6.4,0,0,1-.59-1.24,6.3,6.3,0,0,1,.59-5.35,7.7,7.7,0,0,1,.6-.81l0,0a6.27,6.27,0,0,1,1.51,4.08Z" transform="translate(-6.14 -4.43)"/><path id="Caminho_134" data-name="Caminho 134" class="cls-1" d="M10.43,10.76a6.25,6.25,0,0,1-.34,2.05,6.4,6.4,0,0,1-.59,1.24,6.06,6.06,0,0,1-.6.81,6.11,6.11,0,0,1-.56.58l0,0q-.32-.29-.6-.6a7,7,0,0,1-.59-.81,6.4,6.4,0,0,1-.59-1.24A6.26,6.26,0,0,1,8.32,6.06l0,0a6.25,6.25,0,0,1,2.1,4.68Z" transform="translate(-6.14 -4.43)"/><path id="Caminho_135" data-name="Caminho 135" class="cls-1" d="M11.62,10.76a6.16,6.16,0,0,1-.35,2,6.22,6.22,0,0,1-.59,1.25,6.06,6.06,0,0,1-.6.81,6.67,6.67,0,0,1-.59.6,4.71,4.71,0,0,1-.56.44l0,0c-.2-.14-.4-.3-.59-.46a6.67,6.67,0,0,1-.59-.6,5.24,5.24,0,0,1-.59-.81,5.91,5.91,0,0,1-.6-1.24A6.26,6.26,0,0,1,8.31,6.06a6.39,6.39,0,0,1,.59-.47l0,0c.19.14.38.29.56.45a6.26,6.26,0,0,1,2.12,4.7Z" transform="translate(-6.14 -4.43)"/><path id="Caminho_136" data-name="Caminho 136" class="cls-1" d="M12.8,10.76a6.25,6.25,0,0,1-.34,2.05,6.4,6.4,0,0,1-.59,1.24,6.06,6.06,0,0,1-.6.81,6.67,6.67,0,0,1-.59.6,6.62,6.62,0,0,1-1.15.81h0a6,6,0,0,1-.6-.36c-.2-.14-.4-.3-.59-.46a6.67,6.67,0,0,1-.59-.6,6.06,6.06,0,0,1-.6-.81,6.4,6.4,0,0,1-.59-1.24A6.26,6.26,0,0,1,8.31,6.06a6.39,6.39,0,0,1,.59-.47,6,6,0,0,1,.6-.36l0,0a6.12,6.12,0,0,1,1.15.81,6.26,6.26,0,0,1,2.12,4.7Z" transform="translate(-6.14 -4.43)"/><path id="Caminho_137" data-name="Caminho 137" class="cls-1" d="M14,10.76a6.26,6.26,0,0,1-.35,2.05,5.87,5.87,0,0,1-.59,1.24,5.24,5.24,0,0,1-.59.81,8.35,8.35,0,0,1-.59.6,6.8,6.8,0,0,1-.6.46,6.34,6.34,0,0,1-1.14.63h0a4.66,4.66,0,0,1-.6-.28c-.2-.11-.4-.23-.59-.36a6,6,0,0,1-1.18-1.06,6.06,6.06,0,0,1-.6-.81,6.4,6.4,0,0,1-.59-1.24A6.28,6.28,0,0,1,8.31,6.05c.19-.16.39-.32.59-.46a6,6,0,0,1,.6-.36A6.36,6.36,0,0,1,10.09,5l0,0a5.74,5.74,0,0,1,1.14.62,6.65,6.65,0,0,1,.59.46A6.33,6.33,0,0,1,14,10.76Z" transform="translate(-6.14 -4.43)"/><path id="Caminho_138" data-name="Caminho 138" class="cls-1" d="M15.17,10.76a6,6,0,0,1-.34,2.05,6.4,6.4,0,0,1-.59,1.24,6,6,0,0,1-.59.81,6.79,6.79,0,0,1-.6.6,5.46,5.46,0,0,1-.59.46c-.19.13-.39.25-.59.36a4.53,4.53,0,0,1-.59.28,3.58,3.58,0,0,1-.55.19h-.05a5.89,5.89,0,0,1-.59-.21,6.28,6.28,0,0,1-.59-.27,5.87,5.87,0,0,1-.59-.37,5.3,5.3,0,0,1-.6-.46,6.67,6.67,0,0,1-.59-.6,5.68,5.68,0,0,1-.59-.8,6.24,6.24,0,0,1,1.18-8,5.3,5.3,0,0,1,.6-.46,4.49,4.49,0,0,1,.59-.37l.59-.28a4.56,4.56,0,0,1,.59-.2h.05c.19.06.38.12.55.19a6.28,6.28,0,0,1,.59.27c.2.11.4.24.59.37a5.3,5.3,0,0,1,.6.46,6.29,6.29,0,0,1,2.12,4.7Z" transform="translate(-6.14 -4.43)"/><path id="Caminho_139" data-name="Caminho 139" class="cls-1" d="M16.36,10.76A6.53,6.53,0,0,1,16,12.81a6.44,6.44,0,0,1-.6,1.24,5.24,5.24,0,0,1-.59.81,6.67,6.67,0,0,1-.59.6,6.8,6.8,0,0,1-.6.46,5.8,5.8,0,0,1-.59.36,4.53,4.53,0,0,1-.59.28,5.89,5.89,0,0,1-.59.21h0l-.52.13h-.07a3.9,3.9,0,0,1-.59-.14,6.08,6.08,0,0,1-.6-.21,4.53,4.53,0,0,1-.59-.28c-.2-.11-.4-.23-.59-.36a5.46,5.46,0,0,1-.59-.46,6.79,6.79,0,0,1-.6-.6,6,6,0,0,1-.59-.81,6.4,6.4,0,0,1-.59-1.24A6.26,6.26,0,0,1,8.32,6.06a4.51,4.51,0,0,1,.59-.47c.19-.13.39-.25.59-.36A6.36,6.36,0,0,1,10.09,5a6.08,6.08,0,0,1,.6-.21l.59-.14h.07l.52.13h0c.2.06.39.13.59.21a6.36,6.36,0,0,1,.59.28,5.8,5.8,0,0,1,.59.36,5.39,5.39,0,0,1,.6.47,6.26,6.26,0,0,1,2.12,4.7Z" transform="translate(-6.14 -4.43)"/><path id="Caminho_140" data-name="Caminho 140" class="cls-1" d="M17.54,10.76a6.25,6.25,0,0,1-.34,2.05,6.4,6.4,0,0,1-.59,1.24,6.06,6.06,0,0,1-.6.81,6,6,0,0,1-1.18,1.06c-.19.13-.39.25-.59.36a4.66,4.66,0,0,1-.6.28,5.89,5.89,0,0,1-.59.21h0a3.9,3.9,0,0,1-.59.14h0L12,17h0l-.14,0a5.58,5.58,0,0,1-.59-.09,4.34,4.34,0,0,1-.6-.14,5.89,5.89,0,0,1-.59-.21,4.53,4.53,0,0,1-.59-.28,5.8,5.8,0,0,1-.59-.36,6.8,6.8,0,0,1-.6-.46,6.67,6.67,0,0,1-.59-.6,5.24,5.24,0,0,1-.59-.81,5.91,5.91,0,0,1-.6-1.24A6.28,6.28,0,0,1,8.31,6.06a5.39,5.39,0,0,1,.6-.47,5.8,5.8,0,0,1,.59-.36A6.36,6.36,0,0,1,10.09,5a5.89,5.89,0,0,1,.59-.21l.6-.14a3.81,3.81,0,0,1,.59-.08.32.32,0,0,1,.14,0h0l.44.07h0l.59.14h0a5.89,5.89,0,0,1,.59.21,6.36,6.36,0,0,1,.59.28,6,6,0,0,1,.6.36,5.39,5.39,0,0,1,.6.47,6.29,6.29,0,0,1,2.12,4.7Z" transform="translate(-6.14 -4.43)"/><path id="Caminho_141" data-name="Caminho 141" class="cls-1" d="M18.73,10.76a6.53,6.53,0,0,1-.34,2.05,5.91,5.91,0,0,1-.6,1.24,5.24,5.24,0,0,1-.59.81,6.67,6.67,0,0,1-.59.6c-.19.16-.39.32-.59.46s-.39.25-.6.36a4.53,4.53,0,0,1-.59.28h0a5.89,5.89,0,0,1-.59.21h0a4.2,4.2,0,0,1-.59.14h0c-.2,0-.39.07-.59.09h0a5.68,5.68,0,0,1-.59,0q-.3,0-.6,0l-.59-.09a3.9,3.9,0,0,1-.59-.14q-.3-.09-.6-.21a4.53,4.53,0,0,1-.59-.28c-.2-.11-.4-.23-.59-.36a5.46,5.46,0,0,1-.59-.46q-.32-.29-.6-.6a7,7,0,0,1-.59-.81,6.4,6.4,0,0,1-.59-1.24A6.26,6.26,0,0,1,8.32,6.06a4.51,4.51,0,0,1,.59-.47c.19-.13.39-.25.59-.36A5.5,5.5,0,0,1,10.1,5a5.89,5.89,0,0,1,.59-.21l.59-.14a4,4,0,0,1,.59-.08l.6,0a3,3,0,0,1,.59,0h0a4,4,0,0,1,.59.08h0l.59.14h0a5.89,5.89,0,0,1,.59.21h0a6.54,6.54,0,0,1,.6.28c.2.11.4.23.59.36a5.29,5.29,0,0,1,.59.47,6.26,6.26,0,0,1,2.12,4.7Z" transform="translate(-6.14 -4.43)"/><path id="Caminho_142" data-name="Caminho 142" class="cls-1" d="M12.46,4.49A6.31,6.31,0,0,1,16.57,6q.32.29.6.6a4.44,4.44,0,0,1,.46.59c.13.19.26.39.37.59a6.28,6.28,0,0,1,.27.59h0q.12.3.21.6h0a5.66,5.66,0,0,1,.15.59h0c0,.18.06.39.08.59h0a5.68,5.68,0,0,1,0,.59,5.83,5.83,0,0,1,0,.59c0,.2-.05.4-.08.59s-.09.4-.15.6a5.89,5.89,0,0,1-.21.59,6.28,6.28,0,0,1-.27.59,5.87,5.87,0,0,1-.37.59,5.3,5.3,0,0,1-.46.6,6.67,6.67,0,0,1-.6.59,6.24,6.24,0,0,1-2.06,1.19,6.3,6.3,0,0,1-5.35-.6,5.68,5.68,0,0,1-.8-.59,4.78,4.78,0,0,1-.6-.59,5.3,5.3,0,0,1-.46-.6,4.49,4.49,0,0,1-.37-.59c-.1-.19-.19-.39-.28-.59a4.1,4.1,0,0,1-.2-.59q-.09-.3-.15-.6c0-.18-.06-.39-.08-.59a5.82,5.82,0,0,1,0-1.18h0c0-.2,0-.4.08-.59h0A5.66,5.66,0,0,1,6.45,9h0a4.22,4.22,0,0,1,.2-.6h0c.09-.2.18-.4.28-.59A5.27,5.27,0,0,1,7.3,7.2a4.44,4.44,0,0,1,.46-.59,5.66,5.66,0,0,1,.6-.6,7.86,7.86,0,0,1,.8-.59,6.32,6.32,0,0,1,3.3-.94Z" transform="translate(-6.14 -4.43)"/><path id="Caminho_143" data-name="Caminho 143" class="cls-1" d="M12.46,4.49A6.31,6.31,0,0,1,16.57,6q.32.29.6.6a4.44,4.44,0,0,1,.46.59c.13.19.25.39.37.59a6.28,6.28,0,0,1,.27.59h0q.12.3.21.6h0a5.66,5.66,0,0,1,.15.59h0c0,.18.06.39.08.59h0a.68.68,0,0,1,0,.14h0c0,.15,0,.29-.06.44h0a5.66,5.66,0,0,1-.15.59h0A6.08,6.08,0,0,1,18,12.51c-.12.21-.24.41-.37.6a6.26,6.26,0,0,1-.46.59,6.67,6.67,0,0,1-.6.59,6.17,6.17,0,0,1-2.06,1.19,6.34,6.34,0,0,1-5.35-.59,7.7,7.7,0,0,1-.81-.6,5.48,5.48,0,0,1-.59-.59,6.26,6.26,0,0,1-.46-.59,4.6,4.6,0,0,1-.37-.6,6.36,6.36,0,0,1-.28-.59,4.1,4.1,0,0,1-.2-.59h0a5.66,5.66,0,0,1-.15-.59h0c0-.15,0-.29-.07-.44h0c0-.05,0-.09,0-.14h0c0-.2,0-.4.08-.59h0A5.66,5.66,0,0,1,6.45,9h0a4.22,4.22,0,0,1,.2-.6h0a6.36,6.36,0,0,1,.28-.59A5.27,5.27,0,0,1,7.3,7.2a4.44,4.44,0,0,1,.46-.59A6.67,6.67,0,0,1,8.35,6a9.3,9.3,0,0,1,.81-.59,6.32,6.32,0,0,1,3.3-.94Z" transform="translate(-6.14 -4.43)"/><path id="Caminho_144" data-name="Caminho 144" class="cls-1" d="M12.46,4.49A6.31,6.31,0,0,1,16.57,6q.32.29.6.6a4.44,4.44,0,0,1,.46.59c.13.19.25.39.37.59a6.28,6.28,0,0,1,.27.59h0q.12.3.21.6h0a5.66,5.66,0,0,1,.15.59h0a.19.19,0,0,1,0,.07h0c0,.17-.08.34-.13.51h0A6.44,6.44,0,0,1,18,11.34c-.12.2-.24.4-.37.59a4.44,4.44,0,0,1-.46.59q-.29.32-.6.6a6.31,6.31,0,0,1-7.41.59,9.3,9.3,0,0,1-.81-.59,6.67,6.67,0,0,1-.59-.6,4.44,4.44,0,0,1-.46-.59,5.27,5.27,0,0,1-.37-.59,5.5,5.5,0,0,1-.28-.6,4.1,4.1,0,0,1-.2-.59h0a3.18,3.18,0,0,1-.13-.51h0l0-.07h0A5.66,5.66,0,0,1,6.45,9h0a4.22,4.22,0,0,1,.2-.6h0a6.36,6.36,0,0,1,.28-.59A5.27,5.27,0,0,1,7.3,7.2a4.44,4.44,0,0,1,.46-.59A6.67,6.67,0,0,1,8.35,6a9.3,9.3,0,0,1,.81-.59,6.32,6.32,0,0,1,3.3-.94Z" transform="translate(-6.14 -4.43)"/><path id="Caminho_145" data-name="Caminho 145" class="cls-1" d="M18.26,8.38h0a6.08,6.08,0,0,1,.21.6h0V9c-.06.19-.12.38-.19.55a4.53,4.53,0,0,1-.28.59c-.11.2-.23.4-.36.59a4.51,4.51,0,0,1-.47.59,5.57,5.57,0,0,1-.59.6,6.36,6.36,0,0,1-2.07,1.18,6.24,6.24,0,0,1-5.34-.59,7,7,0,0,1-.81-.59,6.79,6.79,0,0,1-.6-.6,5.46,5.46,0,0,1-.46-.59c-.13-.19-.25-.39-.36-.59a4.53,4.53,0,0,1-.28-.59A5.1,5.1,0,0,1,6.46,9V9h0a4.27,4.27,0,0,1,.21-.6h0a6.28,6.28,0,0,1,.27-.59c.11-.2.24-.4.37-.59a4.44,4.44,0,0,1,.46-.59A6.67,6.67,0,0,1,8.35,6a9.3,9.3,0,0,1,.81-.59A6.29,6.29,0,0,1,16.57,6a6.79,6.79,0,0,1,.6.6,4.44,4.44,0,0,1,.46.59c.13.19.25.39.37.59a4.41,4.41,0,0,1,.26.59Z" transform="translate(-6.14 -4.43)"/><path id="Caminho_146" data-name="Caminho 146" class="cls-1" d="M18,7.79a6.28,6.28,0,0,1,.27.59h0s0,0,0,0c-.08.19-.17.38-.26.56s-.24.4-.37.6a6.26,6.26,0,0,1-.46.59,6.67,6.67,0,0,1-.6.59A6.07,6.07,0,0,1,14.5,12a6.31,6.31,0,0,1-5.35-.6,5.68,5.68,0,0,1-.8-.59,4.78,4.78,0,0,1-.6-.59,6.26,6.26,0,0,1-.46-.59A4.6,4.6,0,0,1,6.92,9c-.09-.18-.18-.37-.26-.56l0,0h0c.09-.2.18-.4.28-.59a5.27,5.27,0,0,1,.37-.59,4.44,4.44,0,0,1,.46-.59A6.92,6.92,0,0,1,8.36,6a7.86,7.86,0,0,1,.8-.59A6.29,6.29,0,0,1,16.57,6a6.79,6.79,0,0,1,.6.6,4.44,4.44,0,0,1,.46.59C17.76,7.39,17.88,7.59,18,7.79Z" transform="translate(-6.14 -4.43)"/><path id="Caminho_147" data-name="Caminho 147" class="cls-1" d="M17.62,7.2c.13.19.26.39.37.59l0,0a6.14,6.14,0,0,1-1.41,1.75,6.24,6.24,0,0,1-2.06,1.19,6.31,6.31,0,0,1-5.35-.6,5.68,5.68,0,0,1-.8-.59A4.78,4.78,0,0,1,7.75,9a5.3,5.3,0,0,1-.46-.6,4,4,0,0,1-.35-.56s0,0,0,0a5.27,5.27,0,0,1,.37-.59,5.3,5.3,0,0,1,.46-.6A6.82,6.82,0,0,1,8.36,6a7.86,7.86,0,0,1,.8-.59A6.29,6.29,0,0,1,16.57,6q.32.29.6.6a4.37,4.37,0,0,1,.45.59Z" transform="translate(-6.14 -4.43)"/><path id="Caminho_148" data-name="Caminho 148" class="cls-1" d="M17.16,6.61a4.44,4.44,0,0,1,.46.59l0,0a4.81,4.81,0,0,1-.44.57,6.67,6.67,0,0,1-.6.59A6,6,0,0,1,14.5,9.56,6.26,6.26,0,0,1,9.15,9a6.6,6.6,0,0,1-.8-.59,5.59,5.59,0,0,1-.6-.59,6.26,6.26,0,0,1-.45-.57v0a4.44,4.44,0,0,1,.46-.59Q8,6.3,8.35,6a9.3,9.3,0,0,1,.81-.59A6.29,6.29,0,0,1,16.57,6,6.67,6.67,0,0,1,17.16,6.61Z" transform="translate(-6.14 -4.43)"/><path id="Caminho_149" data-name="Caminho 149" class="cls-1" d="M16.56,6q.32.29.6.6l0,0a5.12,5.12,0,0,1-.58.56A6.07,6.07,0,0,1,14.5,8.38a6.3,6.3,0,0,1-5.35-.6,5.68,5.68,0,0,1-.8-.59,5.12,5.12,0,0,1-.58-.56l0,0Q8,6.3,8.35,6a9.3,9.3,0,0,1,.81-.59A6.29,6.29,0,0,1,16.57,6Z" transform="translate(-6.14 -4.43)"/><path id="Caminho_150" data-name="Caminho 150" class="cls-1" d="M15.76,5.42a6.6,6.6,0,0,1,.8.59l0,0a7.16,7.16,0,0,1-.78.58,6.78,6.78,0,0,1-1.25.59A6.26,6.26,0,0,1,8.38,6l0,0a9.3,9.3,0,0,1,.81-.59,6.26,6.26,0,0,1,5.35-.59,6.78,6.78,0,0,1,1.25.59Z" transform="translate(-6.14 -4.43)"/><path id="Caminho_151" data-name="Caminho 151" class="cls-1" d="M14.51,4.83a6.78,6.78,0,0,1,1.25.59l0,0A5.87,5.87,0,0,1,14.51,6a6.3,6.3,0,0,1-5.32-.57l0,0a6.26,6.26,0,0,1,5.35-.59Z" transform="translate(-6.14 -4.43)"/><path id="Caminho_152" data-name="Caminho 152" class="cls-1" d="M10.41,4.83a6.26,6.26,0,0,1,4.1,0h0a6.29,6.29,0,0,1-4,0Z" transform="translate(-6.14 -4.43)"/><path id="Caminho_153" data-name="Caminho 153" class="cls-1" d="M12.46,16.34a6.21,6.21,0,0,1,2,.33h0a6.26,6.26,0,0,1-4.1,0h0a6.27,6.27,0,0,1,2-.33Z" transform="translate(-6.14 -4.43)"/><path id="Caminho_154" data-name="Caminho 154" class="cls-1" d="M12.46,15.15a6.22,6.22,0,0,1,2,.35,6.43,6.43,0,0,1,1.22.57l0,0a6.49,6.49,0,0,1-1.25.59,6.26,6.26,0,0,1-5.35-.59l0,0a6.28,6.28,0,0,1,3.27-.92Z" transform="translate(-6.14 -4.43)"/><path id="Caminho_155" data-name="Caminho 155" class="cls-1" d="M12.46,14a6.21,6.21,0,0,1,2,.34,6.78,6.78,0,0,1,1.25.59,7.16,7.16,0,0,1,.78.58l0,0a6.31,6.31,0,0,1-7.41.59,7.86,7.86,0,0,1-.8-.59l0,0A6.22,6.22,0,0,1,12.45,14Z" transform="translate(-6.14 -4.43)"/><path id="Caminho_156" data-name="Caminho 156" class="cls-1" d="M12.46,12.78a6.32,6.32,0,0,1,4.11,1.53,7.73,7.73,0,0,1,.58.56l0,0a6.67,6.67,0,0,1-.6.59,6.26,6.26,0,0,1-7.41.59,6.42,6.42,0,0,1-.81-.59,5.48,5.48,0,0,1-.59-.59l0,0c.18-.19.37-.38.57-.56a7.6,7.6,0,0,1,.81-.59,6.32,6.32,0,0,1,3.3-.94Z" transform="translate(-6.14 -4.43)"/><path id="Caminho_157" data-name="Caminho 157" class="cls-1" d="M12.46,11.6a6.26,6.26,0,0,1,4.11,1.53,6.67,6.67,0,0,1,.6.59,4.71,4.71,0,0,1,.44.56l0,0a6.26,6.26,0,0,1-.46.59,6.67,6.67,0,0,1-.6.59,6.17,6.17,0,0,1-2.06,1.19,6.3,6.3,0,0,1-5.35-.6,6.42,6.42,0,0,1-.81-.59,5.48,5.48,0,0,1-.59-.59,6.26,6.26,0,0,1-.46-.59v0c.14-.19.29-.38.45-.56a5.48,5.48,0,0,1,.59-.59,7.7,7.7,0,0,1,.81-.6,6.31,6.31,0,0,1,3.3-.93Z" transform="translate(-6.14 -4.43)"/><path id="Caminho_158" data-name="Caminho 158" class="cls-1" d="M12.46,10.41a6.32,6.32,0,0,1,4.11,1.53,6.67,6.67,0,0,1,.6.59,5.3,5.3,0,0,1,.46.6,6.53,6.53,0,0,1,.35.56l0,0a5.87,5.87,0,0,1-.37.59,5.3,5.3,0,0,1-.46.6,6.67,6.67,0,0,1-.6.59,6.24,6.24,0,0,1-2.06,1.19,6.3,6.3,0,0,1-5.35-.6,5.68,5.68,0,0,1-.8-.59,4.78,4.78,0,0,1-.6-.59,5.3,5.3,0,0,1-.46-.6,4.49,4.49,0,0,1-.37-.59l0,0a4.73,4.73,0,0,1,.35-.56,5.3,5.3,0,0,1,.46-.6,5.59,5.59,0,0,1,.6-.59,6.6,6.6,0,0,1,.8-.59,6.32,6.32,0,0,1,3.3-.94Z" transform="translate(-6.14 -4.43)"/><path id="Caminho_159" data-name="Caminho 159" class="cls-1" d="M12.46,9.23a6.37,6.37,0,0,1,4.11,1.53,6.79,6.79,0,0,1,.6.6,4.44,4.44,0,0,1,.46.59c.13.19.25.39.37.59s.18.37.26.56c0,0,0,0,0,0a6.28,6.28,0,0,1-.27.59c-.12.21-.24.41-.37.6a6.26,6.26,0,0,1-.46.59,6.67,6.67,0,0,1-.6.59,6.27,6.27,0,0,1-2.06,1.19,6.34,6.34,0,0,1-5.35-.59,7.7,7.7,0,0,1-.81-.6,5.48,5.48,0,0,1-.59-.59,6.26,6.26,0,0,1-.46-.59,4.6,4.6,0,0,1-.37-.6,6.36,6.36,0,0,1-.28-.59l0,0a5.69,5.69,0,0,1,.26-.56A5.27,5.27,0,0,1,7.3,12a4.44,4.44,0,0,1,.46-.59,6.67,6.67,0,0,1,.59-.6,9.3,9.3,0,0,1,.81-.59,6.29,6.29,0,0,1,3.3-.94Z" transform="translate(-6.14 -4.43)"/><path id="Caminho_160" data-name="Caminho 160" class="cls-1" d="M12.46,8a6.32,6.32,0,0,1,4.11,1.53,6.67,6.67,0,0,1,.6.59,5.3,5.3,0,0,1,.46.6c.13.19.25.38.37.59a6.28,6.28,0,0,1,.27.59,3.58,3.58,0,0,1,.19.55.06.06,0,0,1,0,0,4.69,4.69,0,0,1-.2.6,6.36,6.36,0,0,1-.28.59c-.11.2-.23.4-.36.59a5.53,5.53,0,0,1-.47.59,4.86,4.86,0,0,1-.6.6,6.3,6.3,0,0,1-7.4.59,7,7,0,0,1-.81-.59,6.79,6.79,0,0,1-.6-.6,4.44,4.44,0,0,1-.46-.59c-.13-.19-.25-.39-.36-.59a4.53,4.53,0,0,1-.28-.59q-.12-.3-.21-.6a.43.43,0,0,0,0,0l.19-.54a6.36,6.36,0,0,1,.28-.59,4.49,4.49,0,0,1,.37-.59,6.7,6.7,0,0,1,.45-.6,6.67,6.67,0,0,1,.6-.59A6.42,6.42,0,0,1,9.15,9,6.2,6.2,0,0,1,12.45,8Z" transform="translate(-6.14 -4.43)"/><path id="Caminho_161" data-name="Caminho 161" class="cls-1" d="M12.46,6.86a6.31,6.31,0,0,1,4.11,1.52q.32.28.6.6a4.44,4.44,0,0,1,.46.59c.13.19.25.39.37.59a6.46,6.46,0,0,1,.27.6,5.89,5.89,0,0,1,.21.59h0c.05.17.09.34.13.51h0a.24.24,0,0,0,0,.08c0,.2-.09.39-.15.59a5.89,5.89,0,0,1-.21.59,6.28,6.28,0,0,1-.27.59,6,6,0,0,1-.37.6,6.26,6.26,0,0,1-.46.59,6.67,6.67,0,0,1-.6.59,6.07,6.07,0,0,1-2.06,1.19,6.3,6.3,0,0,1-5.35-.6,5.68,5.68,0,0,1-.8-.59,4.78,4.78,0,0,1-.6-.59,6.26,6.26,0,0,1-.46-.59,4.6,4.6,0,0,1-.37-.6,6.36,6.36,0,0,1-.28-.59,4.1,4.1,0,0,1-.2-.59c-.06-.2-.11-.39-.15-.59a.24.24,0,0,1,0-.08h0a4.77,4.77,0,0,1,.13-.51h0a4.1,4.1,0,0,1,.2-.59,6.54,6.54,0,0,1,.28-.6,5.27,5.27,0,0,1,.37-.59A5.2,5.2,0,0,1,7.76,9a4.78,4.78,0,0,1,.6-.59,6.68,6.68,0,0,1,.8-.6,6.41,6.41,0,0,1,3.3-.94Z" transform="translate(-6.14 -4.43)"/><path id="Caminho_162" data-name="Caminho 162" class="cls-1" d="M12.46,5.67A6.26,6.26,0,0,1,16.57,7.2a6.67,6.67,0,0,1,.6.59,6.26,6.26,0,0,1,.46.59c.13.2.25.39.37.6a6.28,6.28,0,0,1,.27.59,5.89,5.89,0,0,1,.21.59h0c.06.2.11.39.15.59h0c0,.15.05.29.06.44h0a.78.78,0,0,1,0,.14c0,.21-.05.4-.08.6a5.66,5.66,0,0,1-.15.59,5.89,5.89,0,0,1-.21.59,6.46,6.46,0,0,1-.27.6c-.12.2-.24.4-.37.59a5.2,5.2,0,0,1-.46.59,6.67,6.67,0,0,1-.6.59,6.17,6.17,0,0,1-2.06,1.19,6.3,6.3,0,0,1-5.35-.59,7.7,7.7,0,0,1-.81-.6,5.48,5.48,0,0,1-.59-.59,5.2,5.2,0,0,1-.46-.59,5.27,5.27,0,0,1-.37-.59,6.54,6.54,0,0,1-.28-.6,4.1,4.1,0,0,1-.2-.59,5.66,5.66,0,0,1-.15-.59c0-.19-.06-.39-.08-.6,0,0,0-.09,0-.14h0c0-.15,0-.29.07-.44h0c0-.2.09-.39.15-.59h0a4.1,4.1,0,0,1,.2-.59A6.36,6.36,0,0,1,6.93,9a4.6,4.6,0,0,1,.37-.6,6.26,6.26,0,0,1,.46-.59,5.48,5.48,0,0,1,.59-.59,6.42,6.42,0,0,1,.81-.59,6.23,6.23,0,0,1,3.3-.94Z" transform="translate(-6.14 -4.43)"/><path id="Caminho_163" data-name="Caminho 163" class="cls-1" d="M12.46,4.49A6.31,6.31,0,0,1,16.57,6q.32.29.6.6a4.44,4.44,0,0,1,.46.59c.13.19.26.39.37.59a6.28,6.28,0,0,1,.27.59h0q.12.3.21.6h0a5.66,5.66,0,0,1,.15.59h0c0,.18.06.39.08.59h0a5.68,5.68,0,0,1,0,.59,5.83,5.83,0,0,1,0,.59c0,.2-.05.4-.08.59s-.09.4-.15.6a5.89,5.89,0,0,1-.21.59,6.28,6.28,0,0,1-.27.59,5.87,5.87,0,0,1-.37.59,5.3,5.3,0,0,1-.46.6,6.67,6.67,0,0,1-.6.59,6.24,6.24,0,0,1-2.06,1.19,6.3,6.3,0,0,1-5.35-.6,5.68,5.68,0,0,1-.8-.59,4.78,4.78,0,0,1-.6-.59,5.3,5.3,0,0,1-.46-.6,4.49,4.49,0,0,1-.37-.59c-.1-.19-.19-.39-.28-.59a4.1,4.1,0,0,1-.2-.59q-.09-.3-.15-.6c0-.18-.06-.39-.08-.59a5.82,5.82,0,0,1,0-1.18h0c0-.2,0-.4.08-.59h0A5.66,5.66,0,0,1,6.45,9h0a4.22,4.22,0,0,1,.2-.6h0c.09-.2.18-.4.28-.59A5.27,5.27,0,0,1,7.3,7.2a4.44,4.44,0,0,1,.46-.59,5.66,5.66,0,0,1,.6-.6,7.86,7.86,0,0,1,.8-.59,6.32,6.32,0,0,1,3.3-.94Z" transform="translate(-6.14 -4.43)"/></svg>