<svg xmlns="http://www.w3.org/2000/svg" width="37.5" height="40" viewBox="0 0 37.5 40">
  <g id="BusinessBlackDiaD" transform="translate(-3153.5 128)">
    <g id="PostBlackDiaD" transform="translate(54 -1.071)">
      <g id="CommentsCount" transform="translate(3114 -89.697)">
        <ellipse id="Elipse_43" data-name="Elipse 43" cx="0.399" cy="0.384" rx="0.399" ry="0.384" stroke-width="0.5" stroke="#bbb" stroke-linecap="round" stroke-linejoin="round" fill="none"/>
        <ellipse id="Elipse_43-2" data-name="Elipse 43-2" cx="0.399" cy="0.384" rx="0.399" ry="0.384" transform="translate(3.525)" fill="none" stroke="#bbb" stroke-linecap="round" stroke-linejoin="round" stroke-width="0.5"/>
        <ellipse id="Elipse_43-3" data-name="Elipse 43-3" cx="0.399" cy="0.384" rx="0.399" ry="0.384" transform="translate(7.04)" fill="none" stroke="#bbb" stroke-linecap="round" stroke-linejoin="round" stroke-width="0.5"/>
      </g>
      <g id="Content" transform="translate(3103 -116.17)">
        <line id="Linha_18" data-name="Linha 18" x2="6.854" transform="translate(0.71)" fill="none" stroke="#bbb" stroke-linecap="round" stroke-linejoin="round" stroke-width="2"/>
        <line id="Linha_19" data-name="Linha 19" x2="3.581" transform="translate(2.912 3.864)" fill="none" stroke="#bbb" stroke-linecap="round" stroke-linejoin="round" stroke-width="2"/>
        <line id="Linha_19-2" data-name="Linha 19-2" x2="4.56" transform="translate(9.975 3.864)" fill="none" stroke="#bbb" stroke-linecap="round" stroke-linejoin="round" stroke-width="2"/>
        <line id="Linha_19-3" data-name="Linha 19-3" x2="7.78" transform="translate(20.401 3.864)" fill="none" stroke="#bbb" stroke-linecap="round" stroke-linejoin="round" stroke-width="2"/>
        <line id="Linha_20" data-name="Linha 20" x2="12.55" transform="translate(13.794 7.209)" fill="none" stroke="#bbb" stroke-linecap="round" stroke-linejoin="round" stroke-width="2"/>
        <line id="Linha_20-2" data-name="Linha 20-2" x2="5.289" transform="translate(0 7.26)" fill="none" stroke="#bbb" stroke-linecap="round" stroke-linejoin="round" stroke-width="2"/>
        <line id="Linha_21" data-name="Linha 21" x2="7.268" transform="translate(4.444 10.752)" fill="none" stroke="#bbb" stroke-linecap="round" stroke-linejoin="round" stroke-width="2"/>
        <line id="Linha_21-2" data-name="Linha 21-2" x2="2.46" transform="translate(15.845 10.752)" fill="none" stroke="#bbb" stroke-linecap="round" stroke-linejoin="round" stroke-width="2"/>
        <line id="Linha_18-2" data-name="Linha 18-2" x2="10.383" transform="translate(17.158)" fill="none" stroke="#bbb" stroke-linecap="round" stroke-linejoin="round" stroke-width="2"/>
        <line id="Linha_21-3" data-name="Linha 21-3" x2="4.417" transform="translate(22.477 10.752)" fill="none" stroke="#bbb" stroke-linecap="round" stroke-linejoin="round" stroke-width="2"/>
      </g>
      <g id="Footer" transform="translate(3100 -123.929)">
        <path id="Linha_17" data-name="Linha 17" d="M0,0H.048" transform="translate(34.952 2.287)" fill="none" stroke="#bbb" stroke-linecap="round" stroke-width="4"/>
        <ellipse id="Elipse_40" data-name="Elipse 40" cx="3.001" cy="2.911" rx="3.001" ry="2.911" stroke-width="1" stroke="#bbb" stroke-linecap="round" stroke-linejoin="round" fill="#bbb"/>
        <path id="Linha_17-2" data-name="Linha 17" d="M0,0H16.161" transform="translate(11.956 2.287)" fill="none" stroke="#bbb" stroke-linecap="round" stroke-width="5"/>
      </g>
      <g id="Comments" transform="translate(3107 -102)">
        <rect id="Retângulo_55" data-name="Retângulo 55" width="21" height="10" rx="2" fill="#bbb"/>
        <ellipse id="Elipse_40-2" data-name="Elipse 40" cx="1.66" cy="1.61" rx="1.66" ry="1.61" transform="translate(1.283 1.372)" fill="#fff" stroke="#fff" stroke-linecap="round" stroke-linejoin="round" stroke-width="1"/>
        <path id="Linha_17-3" data-name="Linha 17" d="M0,0H8.938" transform="translate(6.896 2.637)" fill="#fff" stroke="#fff" stroke-linecap="round" stroke-width="2"/>
        <path id="Linha_17-4" data-name="Linha 17" d="M0,0H3.729" transform="translate(4.896 5.637)" fill="#fff" stroke="#fff" stroke-linecap="round" stroke-width="1"/>
        <path id="Linha_17-5" data-name="Linha 17" d="M0,0H7.417" transform="translate(10.896 5.637)" fill="#fff" stroke="#fff" stroke-linecap="round" stroke-width="1"/>
        <path id="Linha_17-6" data-name="Linha 17" d="M0,0H7.469" transform="translate(4.896 7.637)" fill="#fff" stroke="#fff" stroke-linecap="round" stroke-width="1"/>
        <path id="Linha_17-7" data-name="Linha 17" d="M2.508,0H0" transform="translate(14.604 7.637)" fill="#fff" stroke="#fff" stroke-linecap="round" stroke-width="1"/>
      </g>
    </g>
    <path id="Doleta" d="M9.389,14.3a11.882,11.882,0,0,1-5.676-2.568A6.709,6.709,0,0,1,1.456,6.348,4.567,4.567,0,0,1,2.482,3.28a3.243,3.243,0,0,1,2.576-1.2,2.333,2.333,0,0,1,1.71.7,2.17,2.17,0,0,1,.707,1.568A2.882,2.882,0,0,1,7.041,6.1,5.252,5.252,0,0,1,5.514,7.3a3.432,3.432,0,0,0-1,.773,1.546,1.546,0,0,0-.228.909A2.866,2.866,0,0,0,5.7,11.28,9.855,9.855,0,0,0,9.389,12.8V-.652l-2.416-1.5A8.749,8.749,0,0,1,2.55-10.061a8.329,8.329,0,0,1,1.915-5.773,9.662,9.662,0,0,1,4.924-2.909v-3.545h1.459v3.227a16.975,16.975,0,0,1,2.1-.136q.638,0,1.733.091v-3.182h1.459v3.409a10.3,10.3,0,0,1,5.084,2.432,6.007,6.007,0,0,1,1.938,4.614,6.432,6.432,0,0,1-.912,3.409,2.71,2.71,0,0,1-2.371,1.5,2.721,2.721,0,0,1-1.892-.636A2.1,2.1,0,0,1,17.277-9.2a2.286,2.286,0,0,1,.524-1.5,3.812,3.812,0,0,1,1.254-1,5.537,5.537,0,0,0,1.345-.818,1.3,1.3,0,0,0,.388-1,3,3,0,0,0-1.254-2.25,8.342,8.342,0,0,0-3.4-1.614V-4.243l1.778,1.091A12.234,12.234,0,0,1,21.722.439,8.651,8.651,0,0,1,23.067,5.3a8.68,8.68,0,0,1-1.915,5.864,9.682,9.682,0,0,1-5.015,3.045v3.5H14.678V14.485a13.251,13.251,0,0,1-1.869.136,15.935,15.935,0,0,1-1.96-.091v3.182H9.389Zm5.289-31.909a12.363,12.363,0,0,0-1.915-.136,8.543,8.543,0,0,0-1.915.182V-7.515l3.83,2.364Zm-5.289.5a5.744,5.744,0,0,0-2.462,1.7,3.875,3.875,0,0,0-.912,2.523q0,2.5,3.374,4.455Zm3.419,30.273a11.491,11.491,0,0,0,1.869-.136V2.621L10.848.257V13.076Q12.125,13.167,12.809,13.167Zm3.328-.5a4.881,4.881,0,0,0,2.508-1.818,4.415,4.415,0,0,0,.775-2.455,4.34,4.34,0,0,0-.957-2.932A9.392,9.392,0,0,0,16.137,3.53Z" transform="translate(3159.544 -105.712)" fill="#131313"/>
  </g>
</svg>
