<svg xmlns="http://www.w3.org/2000/svg" width="32.333" height="31.024" viewBox="0 0 32.333 31.024">
  <g id="BussinesDiaD" transform="translate(-3625.5 -615.5)">
    <g id="BusinessBlackDiaD" transform="translate(3626 616)">
      <line id="Linha_18" data-name="Linha 18" x2="8.575" transform="translate(2.902 4.54)" fill="none" stroke="#4d4d4d" stroke-linecap="round" stroke-linejoin="round" stroke-width="1"/>
      <line id="Linha_19" data-name="Linha 19" x2="4.486" transform="translate(5.158 7.607)" fill="none" stroke="#4d4d4d" stroke-linecap="round" stroke-linejoin="round" stroke-width="1"/>
      <line id="Linha_19-2" data-name="Linha 19-2" x2="4.182" transform="translate(12.586 7.607)" fill="none" stroke="#4d4d4d" stroke-linecap="round" stroke-linejoin="round" stroke-width="1"/>
      <line id="Linha_19-3" data-name="Linha 19-3" x2="9.743" transform="translate(19.018 7.607)" fill="none" stroke="#4d4d4d" stroke-linecap="round" stroke-linejoin="round" stroke-width="1"/>
      <line id="Linha_20" data-name="Linha 20" x2="15.706" transform="translate(10.759 10.675)" fill="none" stroke="#4d4d4d" stroke-linecap="round" stroke-linejoin="round" stroke-width="1"/>
      <line id="Linha_20-2" data-name="Linha 20-2" x2="6.61" transform="translate(2.428 10.721)" fill="none" stroke="#4d4d4d" stroke-linecap="round" stroke-linejoin="round" stroke-width="1"/>
      <line id="Linha_21" data-name="Linha 21" x2="9.103" transform="translate(6.029 13.696)" fill="none" stroke="#4d4d4d" stroke-linecap="round" stroke-linejoin="round" stroke-width="1"/>
      <line id="Linha_21-2" data-name="Linha 21-2" x2="3.074" transform="translate(17.006 13.696)" fill="none" stroke="#4d4d4d" stroke-linecap="round" stroke-linejoin="round" stroke-width="1"/>
      <line id="Linha_22" data-name="Linha 22" x2="8.622" transform="translate(3.654 16.763)" fill="none" stroke="#4d4d4d" stroke-linecap="round" stroke-linejoin="round" stroke-width="1"/>
      <line id="Linha_22-2" data-name="Linha 22-2" x2="12.929" transform="translate(13.668 16.763)" fill="none" stroke="#4d4d4d" stroke-linecap="round" stroke-linejoin="round" stroke-width="1"/>
      <line id="Linha_23" data-name="Linha 23" x2="10.891" transform="translate(10.482 19.844)" fill="none" stroke="#4d4d4d" stroke-linecap="round" stroke-linejoin="round" stroke-width="1"/>
      <line id="Linha_24" data-name="Linha 24" x2="4.769" transform="translate(5.792 22.885)" fill="none" stroke="#4d4d4d" stroke-linecap="round" stroke-linejoin="round" stroke-width="1"/>
      <line id="Linha_24-2" data-name="Linha 24-2" x2="8.1" transform="translate(13.206 22.891)" fill="none" stroke="#4d4d4d" stroke-linecap="round" stroke-linejoin="round" stroke-width="1"/>
      <line id="Linha_24-3" data-name="Linha 24-3" x2="2.764" transform="translate(23.662 22.878)" fill="none" stroke="#4d4d4d" stroke-linecap="round" stroke-linejoin="round" stroke-width="1"/>
      <line id="Linha_25" data-name="Linha 25" x2="13.721" transform="translate(5.152 25.945)" fill="none" stroke="#4d4d4d" stroke-linecap="round" stroke-linejoin="round" stroke-width="1"/>
      <line id="Linha_25-2" data-name="Linha 25-2" x2="4.347" transform="translate(20.423 25.945)" fill="none" stroke="#4d4d4d" stroke-linecap="round" stroke-linejoin="round" stroke-width="1"/>
      <line id="Linha_18-2" data-name="Linha 18-2" x2="12.988" transform="translate(14.961 4.54)" fill="none" stroke="#4d4d4d" stroke-linecap="round" stroke-linejoin="round" stroke-width="1"/>
      <line id="Linha_21-3" data-name="Linha 21-3" x2="5.515" transform="translate(21.623 13.696)" fill="none" stroke="#4d4d4d" stroke-linecap="round" stroke-linejoin="round" stroke-width="1"/>
      <path id="Caminho_170" data-name="Caminho 170" d="M-26.225-3.129A1.557,1.557,0,0,1-24.635-1.6h0V24.451a1.557,1.557,0,0,1-1.59,1.517H-53.448a1.55,1.55,0,0,1-1.583-1.517h0V-1.6a1.55,1.55,0,0,1,1.577-1.524h27.23m0-.442H-53.448a1.979,1.979,0,0,0-1.421.528A1.979,1.979,0,0,0-55.5-1.664v.073h0V24.471a1.979,1.979,0,0,0,1.979,1.979h27.3a1.979,1.979,0,0,0,1.425-.525,1.979,1.979,0,0,0,.633-1.381v-.073h0V-1.585a1.979,1.979,0,0,0-1.979-1.979h-.073Z" transform="translate(55.5 3.572)" fill="none" stroke="#000" stroke-width="1"/>
      <path id="Caminho_168" data-name="Caminho 168" d="M6.5,1.036A7.541,7.541,0,0,1,2.89-.6,4.282,4.282,0,0,1,1.456-4.034,2.916,2.916,0,0,1,2.108-5.99a2.058,2.058,0,0,1,1.637-.768,1.48,1.48,0,0,1,1.087.449,1.385,1.385,0,0,1,.449,1,1.841,1.841,0,0,1-.275,1.115,3.34,3.34,0,0,1-.971.768,2.182,2.182,0,0,0-.637.493.988.988,0,0,0-.145.579,1.828,1.828,0,0,0,.9,1.463A6.253,6.253,0,0,0,6.5.08V-8.5L4.962-9.453a5.581,5.581,0,0,1-2.81-5.041,5.32,5.32,0,0,1,1.217-3.68A6.137,6.137,0,0,1,6.5-20.028v-2.26h.927v2.057a10.756,10.756,0,0,1,1.333-.087q.406,0,1.1.058v-2.028h.927v2.173a6.539,6.539,0,0,1,3.231,1.55,3.835,3.835,0,0,1,1.231,2.941,4.109,4.109,0,0,1-.579,2.173,1.721,1.721,0,0,1-1.507.956,1.726,1.726,0,0,1-1.2-.406,1.342,1.342,0,0,1-.449-1.043,1.46,1.46,0,0,1,.333-.956,2.424,2.424,0,0,1,.8-.637,3.517,3.517,0,0,0,.855-.522.833.833,0,0,0,.246-.637,1.915,1.915,0,0,0-.8-1.434,5.294,5.294,0,0,0-2.159-1.029v8.373l1.13.7A7.785,7.785,0,0,1,14.335-7.8a5.527,5.527,0,0,1,.855,3.1A5.544,5.544,0,0,1,13.973-.963,6.15,6.15,0,0,1,10.786.978V3.209H9.858V1.152a8.4,8.4,0,0,1-1.188.087,10.1,10.1,0,0,1-1.246-.058V3.209H6.5ZM9.858-19.3a7.833,7.833,0,0,0-1.217-.087,5.413,5.413,0,0,0-1.217.116v6.4l2.434,1.507ZM6.5-18.985A3.65,3.65,0,0,0,4.933-17.9a2.475,2.475,0,0,0-.579,1.608q0,1.594,2.144,2.839ZM8.67.312A7.281,7.281,0,0,0,9.858.225V-6.41L7.425-7.917V.254Q8.236.312,8.67.312Zm2.115-.319a3.1,3.1,0,0,0,1.594-1.159,2.82,2.82,0,0,0,.493-1.565A2.772,2.772,0,0,0,12.263-4.6a5.973,5.973,0,0,0-1.478-1.231Z" transform="translate(7.069 23.739)"/>
    </g>
  </g>
</svg>
