<svg xmlns="http://www.w3.org/2000/svg" width="21.84" height="20.98" viewBox="0 0 21.84 20.98">
  <g id="CityWhiteDiaD" transform="translate(-2577.5 -345.5)">
    <rect id="Retângulo_47" data-name="Retângulo 47" width="7.1" height="12" transform="translate(2581.46 346)" fill="#e8e8e8" stroke="#fff" stroke-linejoin="round" stroke-width="1"/>
    <path id="Caminho_171" data-name="Caminho 171" d="M6.98,2.09h-1v1h1v-1Z" transform="translate(2577.5 345.5)" fill="#fff"/>
    <path id="Caminho_172" data-name="Caminho 172" d="M9.02,2.09h-1v1h1v-1Z" transform="translate(2577.5 345.5)" fill="#fff"/>
    <path id="Caminho_173" data-name="Caminho 173" d="M6.99,4.05h-1v1h1v-1Z" transform="translate(2577.5 345.5)" fill="#fff"/>
    <path id="Caminho_174" data-name="Caminho 174" d="M9.02,4.05h-1v1h1v-1Z" transform="translate(2577.5 345.5)" fill="#fff"/>
    <path id="Caminho_175" data-name="Caminho 175" d="M6.98,6.05h-1v1h1v-1Z" transform="translate(2577.5 345.5)" fill="#fff"/>
    <path id="Caminho_176" data-name="Caminho 176" d="M9.02,6.05h-1v1h1v-1Z" transform="translate(2577.5 345.5)" fill="#fff"/>
    <path id="Caminho_177" data-name="Caminho 177" d="M9.03,8.02h-1v1h1v-1Z" transform="translate(2577.5 345.5)" fill="#fff"/>
    <rect id="Retângulo_48" data-name="Retângulo 48" width="6.91" height="12" transform="translate(2578 353.98)" fill="#e8e8e8" stroke="#fff" stroke-linejoin="round" stroke-width="1"/>
    <path id="Caminho_178" data-name="Caminho 178" d="M3.44,10.05h-1v1h1v-1Z" transform="translate(2577.5 345.5)" fill="#fff"/>
    <path id="Caminho_179" data-name="Caminho 179" d="M5.47,10.05h-1v1h1v-1Z" transform="translate(2577.5 345.5)" fill="#fff"/>
    <path id="Caminho_180" data-name="Caminho 180" d="M3.44,12.02h-1v1h1v-1Z" transform="translate(2577.5 345.5)" fill="#fff"/>
    <path id="Caminho_181" data-name="Caminho 181" d="M5.47,12.02h-1v1h1v-1Z" transform="translate(2577.5 345.5)" fill="#fff"/>
    <path id="Caminho_182" data-name="Caminho 182" d="M3.44,13.98h-1v1h1v-1Z" transform="translate(2577.5 345.5)" fill="#fff"/>
    <path id="Caminho_183" data-name="Caminho 183" d="M5.47,13.98h-1v1h1v-1Z" transform="translate(2577.5 345.5)" fill="#fff"/>
    <path id="Caminho_184" data-name="Caminho 184" d="M4.47,18.05H3.59v1.97h.88V18.05Z" transform="translate(2577.5 345.5)" fill="#fff"/>
    <rect id="Retângulo_49" data-name="Retângulo 49" width="6.86" height="7.98" transform="translate(2584.91 358)" fill="#e8e8e8" stroke="#fff" stroke-linejoin="round" stroke-width="1"/>
    <path id="Caminho_185" data-name="Caminho 185" d="M10.43,14.02h-1v1h1v-1Z" transform="translate(2577.5 345.5)" fill="#fff"/>
    <path id="Caminho_186" data-name="Caminho 186" d="M12.46,14.02h-1v1h1v-1Z" transform="translate(2577.5 345.5)" fill="#fff"/>
    <path id="Caminho_187" data-name="Caminho 187" d="M10.43,15.98h-1v1h1v-1Z" transform="translate(2577.5 345.5)" fill="#fff"/>
    <path id="Caminho_188" data-name="Caminho 188" d="M12.47,15.98h-1v1h1v-1Z" transform="translate(2577.5 345.5)" fill="#fff"/>
    <path id="Caminho_189" data-name="Caminho 189" d="M11.39,18.05H10.5v1.97h.89V18.05Z" transform="translate(2577.5 345.5)" fill="#fff"/>
    <rect id="Retângulo_50" data-name="Retângulo 50" width="6.86" height="17.89" transform="translate(2591.98 348.09)" fill="#e8e8e8" stroke="#fff" stroke-linejoin="round" stroke-width="1"/>
    <path id="Caminho_190" data-name="Caminho 190" d="M17.39,4.05h-1v1h1v-1Z" transform="translate(2577.5 345.5)" fill="#fff"/>
    <path id="Caminho_191" data-name="Caminho 191" d="M19.43,4.05h-1v1h1v-1Z" transform="translate(2577.5 345.5)" fill="#fff"/>
    <path id="Caminho_192" data-name="Caminho 192" d="M17.39,6.02h-1v1h1v-1Z" transform="translate(2577.5 345.5)" fill="#fff"/>
    <path id="Caminho_193" data-name="Caminho 193" d="M19.43,6.02h-1v1h1v-1Z" transform="translate(2577.5 345.5)" fill="#fff"/>
    <path id="Caminho_194" data-name="Caminho 194" d="M17.39,7.98h-1v1h1v-1Z" transform="translate(2577.5 345.5)" fill="#fff"/>
    <path id="Caminho_195" data-name="Caminho 195" d="M19.43,7.98h-1v1h1v-1Z" transform="translate(2577.5 345.5)" fill="#fff"/>
    <path id="Caminho_196" data-name="Caminho 196" d="M17.39,9.95h-1v1h1v-1Z" transform="translate(2577.5 345.5)" fill="#fff"/>
    <path id="Caminho_197" data-name="Caminho 197" d="M19.43,9.95h-1v1h1v-1Z" transform="translate(2577.5 345.5)" fill="#fff"/>
    <path id="Caminho_198" data-name="Caminho 198" d="M17.39,11.91h-1v1h1v-1Z" transform="translate(2577.5 345.5)" fill="#fff"/>
    <path id="Caminho_199" data-name="Caminho 199" d="M19.43,11.91h-1v1h1v-1Z" transform="translate(2577.5 345.5)" fill="#fff"/>
    <path id="Caminho_200" data-name="Caminho 200" d="M17.39,13.88h-1v1h1v-1Z" transform="translate(2577.5 345.5)" fill="#fff"/>
    <path id="Caminho_201" data-name="Caminho 201" d="M19.43,13.88h-1v1h1v-1Z" transform="translate(2577.5 345.5)" fill="#fff"/>
    <path id="Caminho_202" data-name="Caminho 202" d="M17.39,15.98h-1v1h1v-1Z" transform="translate(2577.5 345.5)" fill="#fff"/>
    <path id="Caminho_203" data-name="Caminho 203" d="M19.43,15.98h-1v1h1v-1Z" transform="translate(2577.5 345.5)" fill="#fff"/>
    <path id="Caminho_204" data-name="Caminho 204" d="M18.35,18.09h-.88v1.96h.88V18.09Z" transform="translate(2577.5 345.5)" fill="#fff"/>
  </g>
</svg>
