<svg xmlns="http://www.w3.org/2000/svg" width="17.82" height="17.75" viewBox="0 0 17.82 17.75">
  <g id="CommentDiaD" transform="translate(0.04)">
    <path id="Caminho_253" data-name="Caminho 253" d="M21.14,13.06c0,4.18-3.87,7.56-8.64,7.56a9.72,9.72,0,0,1-2-.19c-.5-.1-1.15,2.15-3.47,2.32.64-1.38,1.08-3.14.65-3.39a7.35,7.35,0,0,1-3.86-6.3c0-4.17,3.87-7.56,8.64-7.56S21.14,8.89,21.14,13.06Z" transform="translate(-3.61 -5.25)" fill="none" stroke="#000" stroke-linecap="round" stroke-linejoin="round" stroke-width="0.5"/>
    <ellipse id="Elipse_44" data-name="Elipse 44" cx="1.36" cy="1.28" rx="1.36" ry="1.28" transform="translate(3.74 7.81)" fill="none" stroke="#000" stroke-linecap="round" stroke-linejoin="round" stroke-width="0.5"/>
    <ellipse id="Elipse_45" data-name="Elipse 45" cx="1.36" cy="1.28" rx="1.36" ry="1.28" transform="translate(7.53 7.81)" fill="none" stroke="#000" stroke-linecap="round" stroke-linejoin="round" stroke-width="0.5"/>
    <ellipse id="Elipse_46" data-name="Elipse 46" cx="1.36" cy="1.28" rx="1.36" ry="1.28" transform="translate(11.33 7.81)" fill="none" stroke="#000" stroke-linecap="round" stroke-linejoin="round" stroke-width="0.5"/>
  </g>
</svg>
