<svg xmlns="http://www.w3.org/2000/svg" width="45.531" height="45.531" viewBox="0 0 45.531 45.531">
  <g id="ConfigDiaD" transform="translate(0.2 0.2)">
    <path id="Caminho_258" data-name="Caminho 258" d="M18.267,22.711a6.473,6.473,0,1,0-3.728,0" transform="translate(6.162 6.327)" fill="none" stroke="#000" stroke-linecap="round" stroke-linejoin="round" stroke-width="1"/>
    <path id="Caminho_259" data-name="Caminho 259" d="M11,10.964l.479-5.037A2.519,2.519,0,0,1,14,3.66h1.209a2.519,2.519,0,0,1,2.519,2.166l.831,5.138" transform="translate(7.787 -3.36)" fill="none" stroke="#000" stroke-linecap="round" stroke-linejoin="round" stroke-width="1"/>
    <path id="Caminho_260" data-name="Caminho 260" d="M18.556,18.44l-.479,5.037a2.519,2.519,0,0,1-2.519,2.267H14.274a2.519,2.519,0,0,1-2.519-2.166L11,18.44" transform="translate(7.787 19.086)" fill="none" stroke="#000" stroke-linecap="round" stroke-linejoin="round" stroke-width="1"/>
    <path id="Caminho_261" data-name="Caminho 261" d="M9.547,14.74,6.4,10.76a2.519,2.519,0,0,1,0-3.4L7.255,6.5a2.519,2.519,0,0,1,3.325-.176l4.231,3.148" transform="translate(-0.204 -0.134)" fill="none" stroke="#000" stroke-linecap="round" stroke-linejoin="round" stroke-width="1"/>
    <path id="Caminho_262" data-name="Caminho 262" d="M20.909,15.66l3.274,3.98a2.519,2.519,0,0,1-.126,3.4L23.2,23.9a2.519,2.519,0,0,1-3.3.227l-4.231-3.2" transform="translate(14.879 14.864)" fill="none" stroke="#000" stroke-linecap="round" stroke-linejoin="round" stroke-width="1"/>
    <path id="Caminho_263" data-name="Caminho 263" d="M10.964,18.556l-5.037-.479A2.519,2.519,0,0,1,3.66,15.559V14.274a2.519,2.519,0,0,1,2.166-2.519L10.964,11" transform="translate(-3.36 7.787)" fill="none" stroke="#000" stroke-linecap="round" stroke-linejoin="round" stroke-width="1"/>
    <path id="Caminho_264" data-name="Caminho 264" d="M18.44,11l5.037.479A2.519,2.519,0,0,1,25.744,14v1.209a2.519,2.519,0,0,1-2.166,2.519l-5.138.831" transform="translate(19.086 7.787)" fill="none" stroke="#000" stroke-linecap="round" stroke-linejoin="round" stroke-width="1"/>
    <path id="Caminho_265" data-name="Caminho 265" d="M14.74,20.924,10.76,24.2a2.519,2.519,0,0,1-3.4-.126L6.5,23.216a2.519,2.519,0,0,1-.176-3.325l3.2-4.231" transform="translate(-0.134 14.864)" fill="none" stroke="#000" stroke-linecap="round" stroke-linejoin="round" stroke-width="1"/>
    <path id="Caminho_266" data-name="Caminho 266" d="M15.66,9.547,19.64,6.4a2.519,2.519,0,0,1,3.4,0l.856.856a2.519,2.519,0,0,1,.176,3.325l-3.148,4.231" transform="translate(14.864 -0.204)" fill="none" stroke="#000" stroke-linecap="round" stroke-linejoin="round" stroke-width="1"/>
    <path id="Caminho_267" data-name="Caminho 267" d="M13.567,6.56A12.593,12.593,0,0,0,9.31,8.3" transform="translate(5.221 1.044)" fill="none" stroke="#000" stroke-linecap="round" stroke-linejoin="round" stroke-width="1"/>
    <path id="Caminho_268" data-name="Caminho 268" d="M19.488,13.567A12.593,12.593,0,0,0,17.75,9.31" transform="translate(18.038 5.221)" fill="none" stroke="#000" stroke-linecap="round" stroke-linejoin="round" stroke-width="1"/>
    <path id="Caminho_269" data-name="Caminho 269" d="M18.227,17.75a12.593,12.593,0,0,1-4.257,1.738" transform="translate(12.298 18.038)" fill="none" stroke="#000" stroke-linecap="round" stroke-linejoin="round" stroke-width="1"/>
    <path id="Caminho_270" data-name="Caminho 270" d="M8.3,18.181A12.593,12.593,0,0,1,6.56,14" transform="translate(1.044 12.343)" fill="none" stroke="#000" stroke-linecap="round" stroke-linejoin="round" stroke-width="1"/>
    <path id="Caminho_271" data-name="Caminho 271" d="M6.56,13.567A13.2,13.2,0,0,1,8.3,9.31" transform="translate(1.044 5.221)" fill="none" stroke="#000" stroke-linecap="round" stroke-linejoin="round" stroke-width="1"/>
    <path id="Caminho_272" data-name="Caminho 272" d="M9.21,18l.327-.252a13.2,13.2,0,0,0,4.257,1.738" transform="translate(5.069 18.038)" fill="none" stroke="#000" stroke-linecap="round" stroke-linejoin="round" stroke-width="1"/>
    <path id="Caminho_273" data-name="Caminho 273" d="M17.75,18.181A13.2,13.2,0,0,0,19.488,14" transform="translate(18.038 12.343)" fill="none" stroke="#000" stroke-linecap="round" stroke-linejoin="round" stroke-width="1"/>
    <path id="Caminho_274" data-name="Caminho 274" d="M18.181,8.3A13.2,13.2,0,0,0,14,6.56" transform="translate(12.343 1.044)" fill="none" stroke="#000" stroke-linecap="round" stroke-linejoin="round" stroke-width="1"/>
    <path id="Caminho_275" data-name="Caminho 275" d="M12.128,11.72v2.645H8.4V11.72" transform="translate(12.301 17.343)" fill="none" stroke="#000" stroke-linecap="round" stroke-linejoin="round" stroke-width="1"/>
  </g>
</svg>
