<svg xmlns="http://www.w3.org/2000/svg" width="50.532" height="34.23" viewBox="0 0 50.532 34.23">
  <g id="DontFollow" transform="translate(-0.502 -0.433)">
    <ellipse id="Elipse_21" data-name="Elipse 21" cx="7.378" cy="7.378" rx="7.378" ry="7.378" transform="translate(7.64 9.816)" fill="none" stroke="#000" stroke-miterlimit="10" stroke-width="1"/>
    <path id="Caminho_29" data-name="Caminho 29" d="M9.5,70.554l1.054-11.8L23.2,45.469s1.9-.843,2.951.422a2.4,2.4,0,0,1,.422,2.53l-3.9,5.586" transform="translate(-8.5 -44.19)" fill="none" stroke="#000" stroke-miterlimit="10" stroke-width="1"/>
    <path id="Caminho_30" data-name="Caminho 30" d="M25.5,158.62h6.324l10.961-7.8a1.667,1.667,0,0,0,.422-1.476A8.876,8.876,0,0,0,41.33,146.9" transform="translate(-21.127 -124.457)" fill="none" stroke="#000" stroke-miterlimit="10" stroke-width="1"/>
    <line id="Linha_12" data-name="Linha 12" x1="6.033" y1="0.015" transform="translate(20.051 11.804)" fill="none" stroke="#000" stroke-miterlimit="10" stroke-width="1"/>
    <line id="Linha_13" data-name="Linha 13" x1="3.583" transform="translate(22.501 17.089)" fill="none" stroke="#000" stroke-miterlimit="10" stroke-width="1"/>
    <ellipse id="Elipse_22" data-name="Elipse 22" cx="7.378" cy="7.378" rx="7.378" ry="7.378" transform="translate(29.141 9.816)" fill="none" stroke="#000" stroke-miterlimit="10" stroke-width="1"/>
    <path id="Caminho_31" data-name="Caminho 31" d="M179.868,70.554l-1.054-11.8-12.648-13.28s-1.9-.843-2.951.422a2.4,2.4,0,0,0-.422,2.53l3.9,5.586" transform="translate(-129.332 -44.19)" fill="none" stroke="#000" stroke-miterlimit="10" stroke-width="1"/>
    <path id="Caminho_32" data-name="Caminho 32" d="M162.082,158.62h-6.324l-10.961-7.8a1.667,1.667,0,0,1-.422-1.476,8.876,8.876,0,0,1,1.876-2.445" transform="translate(-114.919 -124.457)" fill="none" stroke="#000" stroke-miterlimit="10" stroke-width="1"/>
    <line id="Linha_14" data-name="Linha 14" x1="6.031" y2="0.015" transform="translate(25.452 11.804)" fill="none" stroke="#000" stroke-miterlimit="10" stroke-width="1"/>
    <line id="Linha_15" data-name="Linha 15" x1="3.583" transform="translate(25.452 17.089)" fill="none" stroke="#000" stroke-miterlimit="10" stroke-width="1"/>
    <path id="Caminho_33" data-name="Caminho 33" d="M83.116,112.717a4.237,4.237,0,0,1-.139,3.756,9.411,9.411,0,0,1-2.915,2.5c-.683.438-.048,1.535.632,1.092,1.36-.875,3.031-1.992,3.666-3.546a5.429,5.429,0,0,0-.158-4.439c-.451-.675-1.547-.042-1.092.632Z" transform="translate(-64.956 -96.75)" fill="#d9f0ff"/>
    <path id="Caminho_34" data-name="Caminho 34" d="M185.116,110.717a4.237,4.237,0,0,1-.139,3.756,9.411,9.411,0,0,1-2.915,2.5c-.683.438-.048,1.535.632,1.092,1.36-.875,3.031-1.992,3.666-3.546a5.429,5.429,0,0,0-.158-4.439c-.451-.675-1.547-.042-1.092.632Z" transform="translate(-145.456 -95.171)" fill="#d9f0ff"/>
    <path id="Caminho_35" data-name="Caminho 35" d="M91.279,104.125a.633.633,0,0,0,0-1.265A.633.633,0,0,0,91.279,104.125Z" transform="translate(-73.558 -89.701)" fill="#cff"/>
    <path id="Caminho_36" data-name="Caminho 36" d="M193.852,102.695a.633.633,0,0,0,0-1.265A.633.633,0,0,0,193.852,102.695Z" transform="translate(-154.51 -88.572)" fill="#cff"/>
    <ellipse id="Elipse_23" data-name="Elipse 23" cx="5.64" cy="5.64" rx="5.64" ry="5.64" transform="translate(9.378 11.554)" fill="none" stroke="#000" stroke-miterlimit="10" stroke-width="0.5"/>
    <ellipse id="Elipse_24" data-name="Elipse 24" cx="5.64" cy="5.64" rx="5.64" ry="5.64" transform="translate(30.879 11.554)" fill="none" stroke="#000" stroke-miterlimit="10" stroke-width="0.5"/>
  </g>
</svg>
