<svg xmlns="http://www.w3.org/2000/svg" width="17.333" height="28.155" viewBox="0 0 17.333 28.155">
  <g id="EditDiaD" transform="translate(0.01 0.38)">
    <path id="Caminho_254" data-name="Caminho 254" d="M21.559,7.35,12.9,23.34a2.115,2.115,0,0,1-.565.657L7.08,27.938l.486-6.569a1.931,1.931,0,0,1,.236-.841L16.474,4.6a.6.6,0,0,1,.815-.236l4.02,2.168A.6.6,0,0,1,21.559,7.35Z" transform="translate(-6.84 -0.413)" fill="none" stroke="#000" stroke-linecap="round" stroke-linejoin="round" stroke-width="0.5"/>
    <path id="Caminho_255" data-name="Caminho 255" d="M1.077,0H4.664A1.091,1.091,0,0,1,5.755,1.091V2.956H0V1.025A1.091,1.091,0,0,1,1.077,0Z" transform="matrix(0.879, 0.476, -0.476, 0.879, 11.923, -0.041)" fill="none" stroke="#000" stroke-linecap="round" stroke-linejoin="round" stroke-width="0.5"/>
    <line id="Linha_24" data-name="Linha 24" x1="3.745" y2="6.937" transform="translate(6.665 5.452)" fill="#fff" stroke="#000" stroke-linecap="round" stroke-linejoin="round" stroke-width="1"/>
    <path id="Caminho_256" data-name="Caminho 256" d="M12.405,18.9c-.145.263,0,.315-.105.775L7.36,23.447l.447-6.083c.368-.342.5-.368.644-.644l.539.223v1.629l1.314-.959.447.25V19.4l1.314-.867Z" transform="translate(-6.752 3.487)"/>
    <path id="Caminho_257" data-name="Caminho 257" d="M12.333,20.2c-.407-.223.21-1.314-.21-1.59s-1.025.92-1.445.7.21-1.314-.21-1.59-1.038.92-1.445.7.2-1.34-.223-1.6-1.038.92-1.458.7" transform="translate(-6.758 3.503)" fill="none" stroke="#000" stroke-linecap="round" stroke-linejoin="round" stroke-width="0.25"/>
  </g>
</svg>
