<svg xmlns="http://www.w3.org/2000/svg" width="19.946" height="21.045" viewBox="0 0 19.946 21.045">
  <path id="EmailBlackDiaD" d="M16.365-1.73q-.136.531-.309,1.266l-.377,1.6q-.2.865-.42,1.828t-.438,1.964q-.136.63-.216,1.112a5.094,5.094,0,0,0-.08.815,1.163,1.163,0,0,0,.216.778.882.882,0,0,0,.7.247,2.667,2.667,0,0,0,.834-.154,3.772,3.772,0,0,0,.932-.475,5.053,5.053,0,0,0,.914-.821,5.452,5.452,0,0,0,.79-1.192,7.26,7.26,0,0,0,.556-1.581,8.73,8.73,0,0,0,.21-2,8.726,8.726,0,0,0-.494-3,6.441,6.441,0,0,0-1.439-2.328,6.5,6.5,0,0,0-2.31-1.507,8.465,8.465,0,0,0-3.118-.537A9.271,9.271,0,0,0,9.5-5.311a8.375,8.375,0,0,0-2.31,1.13,8.293,8.293,0,0,0-1.8,1.723A10.359,10.359,0,0,0,4.1-.272a12,12,0,0,0-.778,2.507,13.947,13.947,0,0,0-.259,2.692,11.73,11.73,0,0,0,.469,3.421A7.672,7.672,0,0,0,4.91,11a6.185,6.185,0,0,0,2.235,1.723,7.2,7.2,0,0,0,3.044.611,7.416,7.416,0,0,0,3.143-.636A7.8,7.8,0,0,0,15.8,10.892a3.532,3.532,0,0,1,.371.266,2.029,2.029,0,0,1,.309.315,8.071,8.071,0,0,1-1.414,1.334,7.731,7.731,0,0,1-1.556.883,7.633,7.633,0,0,1-1.68.488,10.693,10.693,0,0,1-1.8.148,10.457,10.457,0,0,1-2.729-.34,8.751,8.751,0,0,1-2.285-.963A8.266,8.266,0,0,1,3.2,11.535a8.634,8.634,0,0,1-1.328-1.92,9.824,9.824,0,0,1-.815-2.266A11.226,11.226,0,0,1,.779,4.828a11.823,11.823,0,0,1,.377-2.983A12.047,12.047,0,0,1,2.23-.89a11.517,11.517,0,0,1,1.7-2.359A10.778,10.778,0,0,1,8.905-6.293a11.3,11.3,0,0,1,3.137-.426,10.527,10.527,0,0,1,3.409.537,7.881,7.881,0,0,1,2.754,1.587A7.387,7.387,0,0,1,20.052-2a8.828,8.828,0,0,1,.673,3.557,9.39,9.39,0,0,1-.272,2.34,7.726,7.726,0,0,1-.735,1.877A6.669,6.669,0,0,1,18.656,7.2a6.215,6.215,0,0,1-1.26.994,5.672,5.672,0,0,1-1.34.58,4.741,4.741,0,0,1-1.284.191,2.185,2.185,0,0,1-1.562-.5,1.828,1.828,0,0,1-.525-1.389,4.254,4.254,0,0,1,.043-.574q.043-.315.117-.636l-.1-.025q-.346.642-.71,1.2a5.288,5.288,0,0,1-.8.976,3.392,3.392,0,0,1-.976.648A3.043,3.043,0,0,1,9.029,8.9a2.872,2.872,0,0,1-1.439-.34,2.93,2.93,0,0,1-.982-.9A3.969,3.969,0,0,1,6.04,6.391a6.018,6.018,0,0,1-.185-1.5A7.393,7.393,0,0,1,6.04,3.272,8.694,8.694,0,0,1,6.571,1.66,7.681,7.681,0,0,1,7.423.191a6.414,6.414,0,0,1,1.155-1.2A5.3,5.3,0,0,1,10-1.828a4.594,4.594,0,0,1,1.661-.3,3.525,3.525,0,0,1,1.451.284,2.266,2.266,0,0,1,1.031.951L14.2-.9l.235-.827ZM13.7.234a1.1,1.1,0,0,0-.13-.519,1.449,1.449,0,0,0-.358-.438,1.737,1.737,0,0,0-.543-.3,2.085,2.085,0,0,0-.7-.111,2.564,2.564,0,0,0-1.575.543A5.019,5.019,0,0,0,9.134.833a7.664,7.664,0,0,0-.84,2.013,8.867,8.867,0,0,0-.3,2.3,6.78,6.78,0,0,0,.074,1.019,3.14,3.14,0,0,0,.247.858,1.536,1.536,0,0,0,.469.593,1.18,1.18,0,0,0,.729.222,1.822,1.822,0,0,0,1.217-.488,5.423,5.423,0,0,0,1.031-1.241,10.149,10.149,0,0,0,.827-1.667q.358-.914.605-1.76t.377-1.513A5.765,5.765,0,0,0,13.7.234Z" transform="translate(-0.779 6.719)"/>
</svg>
