<svg xmlns="http://www.w3.org/2000/svg" width="512" height="512" viewBox="0 0 512 512">
  <g id="Facebook" transform="translate(-6 -6)">
    <path id="Caminho_276" data-name="Caminho 276" d="M518,446.889A71.106,71.106,0,0,1,446.889,518H77.111A71.106,71.106,0,0,1,6,446.889V77.111A71.106,71.106,0,0,1,77.111,6H446.889A71.106,71.106,0,0,1,518,77.111Z" fill="#3f51b5"/>
    <path id="Caminho_277" data-name="Caminho 277" d="M184.667,183.667H136.778V368.556H65.667V183.667H23V126.778H65.667V92.5C65.722,42.611,86.444,13,145.223,13h48.444V69.889h-32.5c-22.888,0-24.388,8.556-24.388,24.5v32.388h56.889Z" transform="translate(224.778 92.556)" fill="#fff"/>
  </g>
</svg>
