<svg xmlns="http://www.w3.org/2000/svg" width="42.528" height="35.75" viewBox="0 0 42.528 35.75">
  <g id="FavoritesDiaD" transform="translate(-3340.004 123.5)">
    <g id="PostDiad" transform="translate(244 0.929)">
      <g id="CommentsCount" transform="translate(3114 -89.697)">
        <ellipse id="Elipse_43" data-name="Elipse 43" cx="0.399" cy="0.384" rx="0.399" ry="0.384" stroke-width="0.5" stroke="#bbb" stroke-linecap="round" stroke-linejoin="round" fill="none"/>
        <ellipse id="Elipse_43-2" data-name="Elipse 43-2" cx="0.399" cy="0.384" rx="0.399" ry="0.384" transform="translate(3.525)" fill="none" stroke="#bbb" stroke-linecap="round" stroke-linejoin="round" stroke-width="0.5"/>
        <ellipse id="Elipse_43-3" data-name="Elipse 43-3" cx="0.399" cy="0.384" rx="0.399" ry="0.384" transform="translate(7.04)" fill="none" stroke="#bbb" stroke-linecap="round" stroke-linejoin="round" stroke-width="0.5"/>
      </g>
      <g id="Content" transform="translate(3103 -116.17)">
        <line id="Linha_18" data-name="Linha 18" x2="6.854" transform="translate(0.71)" fill="none" stroke="#bbb" stroke-linecap="round" stroke-linejoin="round" stroke-width="2"/>
        <line id="Linha_19" data-name="Linha 19" x2="3.581" transform="translate(2.912 3.864)" fill="none" stroke="#bbb" stroke-linecap="round" stroke-linejoin="round" stroke-width="2"/>
        <line id="Linha_19-2" data-name="Linha 19-2" x2="4.56" transform="translate(9.975 3.864)" fill="none" stroke="#bbb" stroke-linecap="round" stroke-linejoin="round" stroke-width="2"/>
        <line id="Linha_19-3" data-name="Linha 19-3" x2="7.78" transform="translate(20.401 3.864)" fill="none" stroke="#bbb" stroke-linecap="round" stroke-linejoin="round" stroke-width="2"/>
        <line id="Linha_20" data-name="Linha 20" x2="12.55" transform="translate(13.794 7.209)" fill="none" stroke="#bbb" stroke-linecap="round" stroke-linejoin="round" stroke-width="2"/>
        <line id="Linha_20-2" data-name="Linha 20-2" x2="5.289" transform="translate(0 7.26)" fill="none" stroke="#bbb" stroke-linecap="round" stroke-linejoin="round" stroke-width="2"/>
        <line id="Linha_21" data-name="Linha 21" x2="7.268" transform="translate(4.444 10.752)" fill="none" stroke="#bbb" stroke-linecap="round" stroke-linejoin="round" stroke-width="2"/>
        <line id="Linha_21-2" data-name="Linha 21-2" x2="2.46" transform="translate(15.845 10.752)" fill="none" stroke="#bbb" stroke-linecap="round" stroke-linejoin="round" stroke-width="2"/>
        <line id="Linha_18-2" data-name="Linha 18-2" x2="10.383" transform="translate(17.158)" fill="none" stroke="#bbb" stroke-linecap="round" stroke-linejoin="round" stroke-width="2"/>
        <line id="Linha_21-3" data-name="Linha 21-3" x2="4.417" transform="translate(22.477 10.752)" fill="none" stroke="#bbb" stroke-linecap="round" stroke-linejoin="round" stroke-width="2"/>
      </g>
      <g id="Footer" transform="translate(3100 -123.929)">
        <path id="Linha_17" data-name="Linha 17" d="M0,0H.048" transform="translate(34.952 2.287)" fill="none" stroke="#bbb" stroke-linecap="round" stroke-width="4"/>
        <ellipse id="Elipse_40" data-name="Elipse 40" cx="3.001" cy="2.911" rx="3.001" ry="2.911" stroke-width="1" stroke="#bbb" stroke-linecap="round" stroke-linejoin="round" fill="#bbb"/>
        <path id="Linha_17-2" data-name="Linha 17" d="M0,0H16.161" transform="translate(11.956 2.287)" fill="none" stroke="#bbb" stroke-linecap="round" stroke-width="5"/>
      </g>
      <g id="Comments" transform="translate(3107 -102)">
        <rect id="Retângulo_55" data-name="Retângulo 55" width="21" height="10" rx="2" fill="#bbb"/>
        <ellipse id="Elipse_40-2" data-name="Elipse 40" cx="1.66" cy="1.61" rx="1.66" ry="1.61" transform="translate(1.283 1.372)" fill="#fff" stroke="#fff" stroke-linecap="round" stroke-linejoin="round" stroke-width="1"/>
        <path id="Linha_17-3" data-name="Linha 17" d="M0,0H8.938" transform="translate(6.896 2.637)" fill="#fff" stroke="#fff" stroke-linecap="round" stroke-width="2"/>
        <path id="Linha_17-4" data-name="Linha 17" d="M0,0H3.729" transform="translate(4.896 5.637)" fill="#fff" stroke="#fff" stroke-linecap="round" stroke-width="1"/>
        <path id="Linha_17-5" data-name="Linha 17" d="M0,0H7.417" transform="translate(10.896 5.637)" fill="#fff" stroke="#fff" stroke-linecap="round" stroke-width="1"/>
        <path id="Linha_17-6" data-name="Linha 17" d="M0,0H7.469" transform="translate(4.896 7.637)" fill="#fff" stroke="#fff" stroke-linecap="round" stroke-width="1"/>
        <path id="Linha_17-7" data-name="Linha 17" d="M2.508,0H0" transform="translate(14.604 7.637)" fill="#fff" stroke="#fff" stroke-linecap="round" stroke-width="1"/>
      </g>
    </g>
    <g id="Binocle" transform="translate(3340 -122.418)">
      <ellipse id="Elipse_21" data-name="Elipse 21" cx="6.037" cy="6.037" rx="6.037" ry="6.037" transform="translate(6.434 8.215)" fill="none" stroke="#000" stroke-miterlimit="10" stroke-width="1"/>
      <path id="Caminho_29" data-name="Caminho 29" d="M9.5,65.946l.862-9.66,10.35-10.867s1.552-.69,2.415.345a1.961,1.961,0,0,1,.345,2.07l-3.191,4.571" transform="translate(-8.5 -44.19)" fill="none" stroke="#000" stroke-miterlimit="10" stroke-width="2"/>
      <path id="Caminho_30" data-name="Caminho 30" d="M25.5,156.491h5.175l8.97-6.382a1.364,1.364,0,0,0,.345-1.207,7.263,7.263,0,0,0-1.535-2" transform="translate(-21.74 -128.352)" fill="none" stroke="#000" stroke-miterlimit="10" stroke-width="2"/>
      <line id="Linha_12" data-name="Linha 12" x1="4.937" y1="0.012" transform="translate(16.59 9.842)" fill="none" stroke="#000" stroke-miterlimit="10" stroke-width="1"/>
      <line id="Linha_13" data-name="Linha 13" x1="2.932" transform="translate(18.594 14.166)" fill="none" stroke="#000" stroke-miterlimit="10" stroke-width="1"/>
      <ellipse id="Elipse_22" data-name="Elipse 22" cx="6.037" cy="6.037" rx="6.037" ry="6.037" transform="translate(24.028 8.215)" fill="none" stroke="#000" stroke-miterlimit="10" stroke-width="1"/>
      <path id="Caminho_31" data-name="Caminho 31" d="M176.732,65.946l-.862-9.66-10.35-10.867s-1.552-.69-2.415.345a1.961,1.961,0,0,0-.345,2.07l3.191,4.571" transform="translate(-135.195 -44.19)" fill="none" stroke="#000" stroke-miterlimit="10" stroke-width="2"/>
      <path id="Caminho_32" data-name="Caminho 32" d="M158.859,156.491h-5.175l-8.97-6.382a1.364,1.364,0,0,1-.345-1.207,7.263,7.263,0,0,1,1.535-2" transform="translate(-120.083 -128.352)" fill="none" stroke="#000" stroke-miterlimit="10" stroke-width="2"/>
      <line id="Linha_14" data-name="Linha 14" x1="4.935" y2="0.012" transform="translate(21.009 9.842)" fill="none" stroke="#000" stroke-miterlimit="10" stroke-width="1"/>
      <line id="Linha_15" data-name="Linha 15" x1="2.932" transform="translate(21.009 14.166)" fill="none" stroke="#000" stroke-miterlimit="10" stroke-width="1"/>
      <path id="Caminho_33" data-name="Caminho 33" d="M82.508,112.549a3.467,3.467,0,0,1-.114,3.074,7.7,7.7,0,0,1-2.386,2.046c-.559.359-.04,1.256.517.894a7.3,7.3,0,0,0,3-2.9,4.442,4.442,0,0,0-.129-3.633c-.369-.552-1.266-.035-.894.517Z" transform="translate(-67.466 -99.3)" fill="#d9f0ff"/>
      <path id="Caminho_34" data-name="Caminho 34" d="M184.508,110.549a3.467,3.467,0,0,1-.114,3.074,7.7,7.7,0,0,1-2.386,2.046c-.559.359-.04,1.256.517.894a7.3,7.3,0,0,0,3-2.9,4.442,4.442,0,0,0-.129-3.633c-.369-.552-1.266-.035-.894.517Z" transform="translate(-151.871 -97.645)" fill="#d9f0ff"/>
      <path id="Caminho_35" data-name="Caminho 35" d="M91.168,103.895a.518.518,0,0,0,0-1.035A.518.518,0,0,0,91.168,103.895Z" transform="translate(-76.485 -91.909)" fill="#cff"/>
      <path id="Caminho_36" data-name="Caminho 36" d="M193.741,102.465a.518.518,0,0,0,0-1.035A.518.518,0,0,0,193.741,102.465Z" transform="translate(-161.365 -90.726)" fill="#cff"/>
      <ellipse id="Elipse_23" data-name="Elipse 23" cx="4.615" cy="4.615" rx="4.615" ry="4.615" transform="translate(7.856 9.637)" fill="none" stroke="#000" stroke-miterlimit="10" stroke-width="0.5"/>
      <ellipse id="Elipse_24" data-name="Elipse 24" cx="4.615" cy="4.615" rx="4.615" ry="4.615" transform="translate(25.45 9.637)" fill="none" stroke="#000" stroke-miterlimit="10" stroke-width="0.5"/>
    </g>
  </g>
</svg>
