<svg xmlns="http://www.w3.org/2000/svg" width="31.773" height="30.52" viewBox="0 0 31.773 30.52">
  <g id="FeedDiaD" transform="translate(-3200.5 161.213)">
    <path id="Caminho_170" data-name="Caminho 170" d="M139.118,72.746a1.529,1.529,0,0,1,1.555,1.5v25.6a1.523,1.523,0,0,1-1.555,1.5H112.375a1.529,1.529,0,0,1-1.562-1.5V74.223a1.536,1.536,0,0,1,1.562-1.477h26.736m0-.434H112.375a1.944,1.944,0,0,0-2.015,1.944h0v25.6a1.944,1.944,0,0,0,2.015,1.944h26.743a1.944,1.944,0,0,0,2.015-1.944h0V74.223a1.944,1.944,0,0,0-2.015-1.944Z" transform="translate(3090.64 -232.991)" stroke="#000" stroke-width="1"/>
    <line id="Linha_17" data-name="Linha 17" x2="15.079" transform="translate(3210.714 -156.623)" fill="none" stroke="#000" stroke-linecap="round" stroke-linejoin="round" stroke-width="3"/>
    <ellipse id="Elipse_40" data-name="Elipse 40" cx="1.724" cy="1.646" rx="1.724" ry="1.646" transform="translate(3203.352 -158.593)" stroke="#000" stroke-linecap="round" stroke-linejoin="round" stroke-width="1"/>
    <ellipse id="Elipse_43" data-name="Elipse 43" cx="0.343" cy="0.33" rx="0.343" ry="0.33" transform="translate(3213.992 -133.813)" stroke="#000" stroke-linecap="round" stroke-linejoin="round" stroke-width="0.5"/>
    <ellipse id="Elipse_43-2" data-name="Elipse 43-2" cx="0.343" cy="0.33" rx="0.343" ry="0.33" transform="translate(3216.234 -133.813)" stroke="#000" stroke-linecap="round" stroke-linejoin="round" stroke-width="0.5"/>
    <ellipse id="Elipse_43-3" data-name="Elipse 43-3" cx="0.343" cy="0.33" rx="0.343" ry="0.33" transform="translate(3218.47 -133.813)" stroke="#000" stroke-linecap="round" stroke-linejoin="round" stroke-width="0.5"/>
    <line id="Linha_18" data-name="Linha 18" x2="5.903" transform="translate(3207.299 -153.344)" fill="none" stroke="#000" stroke-linecap="round" stroke-linejoin="round" stroke-width="1"/>
    <line id="Linha_19" data-name="Linha 19" x2="3.084" transform="translate(3208.847 -151.05)" fill="none" stroke="#000" stroke-linecap="round" stroke-linejoin="round" stroke-width="1"/>
    <line id="Linha_19-2" data-name="Linha 19-2" x2="3.927" transform="translate(3213.072 -151.05)" fill="none" stroke="#000" stroke-linecap="round" stroke-linejoin="round" stroke-width="1"/>
    <line id="Linha_19-3" data-name="Linha 19-3" x2="6.7" transform="translate(3218.392 -151.05)" fill="none" stroke="#000" stroke-linecap="round" stroke-linejoin="round" stroke-width="1"/>
    <line id="Linha_20" data-name="Linha 20" x2="10.809" transform="translate(3212.703 -148.756)" fill="none" stroke="#000" stroke-linecap="round" stroke-linejoin="round" stroke-width="1"/>
    <line id="Linha_20-2" data-name="Linha 20-2" x2="4.555" transform="translate(3206.968 -148.724)" fill="none" stroke="#000" stroke-linecap="round" stroke-linejoin="round" stroke-width="1"/>
    <line id="Linha_21" data-name="Linha 21" x2="6.26" transform="translate(3209.45 -146.501)" fill="none" stroke="#000" stroke-linecap="round" stroke-linejoin="round" stroke-width="1"/>
    <line id="Linha_21-2" data-name="Linha 21-2" x2="2.119" transform="translate(3216.999 -146.501)" fill="none" stroke="#000" stroke-linecap="round" stroke-linejoin="round" stroke-width="1"/>
    <line id="Linha_22" data-name="Linha 22" x2="5.929" transform="translate(3207.817 -144.201)" fill="none" stroke="#000" stroke-linecap="round" stroke-linejoin="round" stroke-width="1"/>
    <line id="Linha_22-2" data-name="Linha 22-2" x2="8.897" transform="translate(3214.712 -144.201)" fill="none" stroke="#000" stroke-linecap="round" stroke-linejoin="round" stroke-width="1"/>
    <line id="Linha_23" data-name="Linha 23" x2="7.491" transform="translate(3212.515 -141.9)" fill="none" stroke="#000" stroke-linecap="round" stroke-linejoin="round" stroke-width="1"/>
    <line id="Linha_24" data-name="Linha 24" x2="3.292" transform="translate(3209.281 -139.626)" fill="none" stroke="#000" stroke-linecap="round" stroke-linejoin="round" stroke-width="1"/>
    <line id="Linha_24-2" data-name="Linha 24-2" x2="5.566" transform="translate(3214.394 -139.62)" fill="none" stroke="#000" stroke-linecap="round" stroke-linejoin="round" stroke-width="1"/>
    <line id="Linha_24-3" data-name="Linha 24-3" x2="1.905" transform="translate(3221.587 -139.632)" fill="none" stroke="#000" stroke-linecap="round" stroke-linejoin="round" stroke-width="1"/>
    <line id="Linha_25" data-name="Linha 25" x2="9.448" transform="translate(3208.847 -137.332)" fill="none" stroke="#000" stroke-linecap="round" stroke-linejoin="round" stroke-width="1"/>
    <line id="Linha_25-2" data-name="Linha 25-2" x2="3.104" transform="translate(3219.474 -137.332)" fill="none" stroke="#000" stroke-linecap="round" stroke-linejoin="round" stroke-width="1"/>
    <line id="Linha_18-2" data-name="Linha 18-2" x2="8.942" transform="translate(3215.599 -153.344)" fill="none" stroke="#000" stroke-linecap="round" stroke-linejoin="round" stroke-width="1"/>
    <line id="Linha_21-3" data-name="Linha 21-3" x2="3.804" transform="translate(3220.181 -146.501)" fill="none" stroke="#000" stroke-linecap="round" stroke-linejoin="round" stroke-width="1"/>
  </g>
</svg>
