<svg xmlns="http://www.w3.org/2000/svg" width="18.76" height="24.77" viewBox="0 0 18.76 24.77">
  <g id="FlameBlueDiaD" transform="translate(0 -0.05)">
    <path id="Caminho_246" data-name="Caminho 246" d="M3.11,16.05a10.49,10.49,0,0,0,2.51,6.63A2.1,2.1,0,0,0,6,23s.49.27.74.37a18.56,18.56,0,0,0,5.8,1.52c1.86,0,5.13-.37,7.17-3,2.27-2.94,1.74-2.8,2.16-6A18,18,0,0,0,19.5,7s-.38,5.08-2.14,5.12c0,0,1.2-8.87-4.78-12,0,0-.46,7-2.64,7.85A6.43,6.43,0,0,0,7.55,3.84a10.56,10.56,0,0,1-2.16,6.23,9,9,0,0,0-2.28,5.98Z" transform="translate(-3.11 -0.07)" fill="#08f"/>
    <path id="Caminho_247" data-name="Caminho 247" d="M9.54,20.07v.25c.18.74.86,3,2.88,3s2.68-2.25,2.85-3V20.1a2.69,2.69,0,0,0,0-.34,13.53,13.53,0,0,0-2.39-6.26c-.52-.65-.34-1.34-1.4-.06s-1.78,5.12-2,6.3A1.37,1.37,0,0,0,9.54,20.07Z" transform="translate(-3.11 -0.07)" fill="#6cf"/>
  </g>
</svg>
