<svg xmlns="http://www.w3.org/2000/svg" width="18.671" height="24.705" viewBox="0 0 18.671 24.705">
  <g id="FlameRedDiaD" transform="translate(0 0.06)">
    <path id="Caminho_248" data-name="Caminho 248" d="M4.66,17.96a10.476,10.476,0,0,0,2.494,6.592,1.116,1.116,0,0,0,.4.356,4.181,4.181,0,0,0,.736.368,18.327,18.327,0,0,0,5.76,1.508c1.853,0,5.1-.368,7.126-2.981,2.257-2.922,1.734-2.779,2.15-5.939a17.888,17.888,0,0,0-2.376-8.909S20.576,14,18.83,14.04c0,0,1.188-8.813-4.751-11.96,0,0-.463,6.924-2.625,7.8A6.414,6.414,0,0,0,9.078,5.821a10.523,10.523,0,0,1-2.15,6.2A8.955,8.955,0,0,0,4.66,17.96Z" transform="translate(-4.66 -2.14)" fill="#c85c5e"/>
    <path id="Caminho_249" data-name="Caminho 249" d="M10.078,19.978a.725.725,0,0,0,0,.238c.178.736.855,2.981,2.862,2.957s2.684-2.292,2.827-2.969a1.46,1.46,0,0,0,0-.214,1.532,1.532,0,0,0,0-.344,13.469,13.469,0,0,0-2.375-6.224c-.511-.641-.333-1.33-1.39-.059s-1.77,5.083-1.972,6.259a2.541,2.541,0,0,0,.048.356Z" transform="translate(-3.652 -0.156)" fill="#ffb800"/>
  </g>
</svg>
