<svg xmlns="http://www.w3.org/2000/svg" width="50.296" height="34.072" viewBox="0 0 50.296 34.072">
  <g id="Follow" transform="translate(-0.502 -0.433)">
    <circle id="Elipse_17" data-name="Elipse 17" cx="7.343" cy="7.343" r="7.343" transform="translate(7.608 9.774)" fill="none" stroke="#000" stroke-miterlimit="10" stroke-width="1"/>
    <path id="Caminho_21" data-name="Caminho 21" d="M9.5,70.433l1.049-11.748L23.136,45.468s1.888-.839,2.937.42a2.385,2.385,0,0,1,.42,2.517l-3.881,5.559" transform="translate(-8.5 -44.19)" fill="none" stroke="#000" stroke-miterlimit="10" stroke-width="1"/>
    <path id="Caminho_22" data-name="Caminho 22" d="M25.5,158.564h6.294L42.7,150.8a1.659,1.659,0,0,0,.42-1.469,8.834,8.834,0,0,0-1.867-2.434" transform="translate(-21.143 -124.559)" fill="none" stroke="#000" stroke-miterlimit="10" stroke-width="1"/>
    <line id="Linha_8" data-name="Linha 8" x1="6.004" y1="0.015" transform="translate(19.961 11.753)" fill="none" stroke="#000" stroke-miterlimit="10" stroke-width="1"/>
    <line id="Linha_9" data-name="Linha 9" x1="3.566" transform="translate(22.399 17.012)" fill="none" stroke="#000" stroke-miterlimit="10" stroke-width="1"/>
    <circle id="Elipse_18" data-name="Elipse 18" cx="7.343" cy="7.343" r="7.343" transform="translate(29.007 9.774)" fill="none" stroke="#000" stroke-miterlimit="10" stroke-width="1"/>
    <path id="Caminho_23" data-name="Caminho 23" d="M179.786,70.433l-1.049-11.748L166.15,45.468s-1.888-.839-2.937.42a2.385,2.385,0,0,0-.42,2.517l3.881,5.559" transform="translate(-129.485 -44.19)" fill="none" stroke="#000" stroke-miterlimit="10" stroke-width="1"/>
    <path id="Caminho_24" data-name="Caminho 24" d="M162,158.564H155.7L144.8,150.8a1.659,1.659,0,0,1-.42-1.469,8.834,8.834,0,0,1,1.867-2.434" transform="translate(-115.054 -124.559)" fill="none" stroke="#000" stroke-miterlimit="10" stroke-width="1"/>
    <line id="Linha_10" data-name="Linha 10" x1="6.002" y2="0.015" transform="translate(25.336 11.753)" fill="none" stroke="#000" stroke-miterlimit="10" stroke-width="1"/>
    <line id="Linha_11" data-name="Linha 11" x1="3.566" transform="translate(25.336 17.012)" fill="none" stroke="#000" stroke-miterlimit="10" stroke-width="1"/>
    <circle id="Elipse_19" data-name="Elipse 19" cx="6.503" cy="6.503" r="6.503" transform="translate(29.846 10.614)" fill="#09f"/>
    <circle id="Elipse_20" data-name="Elipse 20" cx="6.503" cy="6.503" r="6.503" transform="translate(8.448 10.614)" fill="#09f"/>
    <path id="Caminho_25" data-name="Caminho 25" d="M83.1,112.713a4.217,4.217,0,0,1-.138,3.738,9.367,9.367,0,0,1-2.9,2.488c-.68.436-.048,1.527.629,1.087,1.353-.871,3.017-1.983,3.648-3.529a5.4,5.4,0,0,0-.157-4.418c-.449-.671-1.54-.042-1.087.629Z" transform="translate(-64.027 -96.816)" fill="#99d6ff"/>
    <path id="Caminho_26" data-name="Caminho 26" d="M185.1,110.712a4.217,4.217,0,0,1-.138,3.738,9.366,9.366,0,0,1-2.9,2.488c-.68.436-.048,1.527.629,1.087,1.353-.871,3.017-1.982,3.648-3.529a5.4,5.4,0,0,0-.157-4.418c-.449-.671-1.54-.042-1.087.629Z" transform="translate(-144.628 -95.236)" fill="#99d6ff"/>
    <path id="Caminho_27" data-name="Caminho 27" d="M91.276,104.119a.63.63,0,0,0,0-1.259A.63.63,0,0,0,91.276,104.119Z" transform="translate(-72.639 -89.758)" fill="#cff"/>
    <path id="Caminho_28" data-name="Caminho 28" d="M193.849,102.689a.63.63,0,0,0,0-1.259A.63.63,0,0,0,193.849,102.689Z" transform="translate(-153.694 -88.628)" fill="#cff"/>
  </g>
</svg>
