<svg xmlns="http://www.w3.org/2000/svg" width="40" height="40" viewBox="0 0 40 40">
  <g id="GeneralBlackDiaD" transform="translate(-3085 125)">
    <g id="PostBlackDiaD" transform="translate(-13 1.929)">
      <g id="CommentsCount" transform="translate(3114 -89.697)">
        <ellipse id="Elipse_43" data-name="Elipse 43" cx="0.399" cy="0.384" rx="0.399" ry="0.384" stroke-width="0.5" stroke="#bbb" stroke-linecap="round" stroke-linejoin="round" fill="none"/>
        <ellipse id="Elipse_43-2" data-name="Elipse 43-2" cx="0.399" cy="0.384" rx="0.399" ry="0.384" transform="translate(3.525)" fill="none" stroke="#bbb" stroke-linecap="round" stroke-linejoin="round" stroke-width="0.5"/>
        <ellipse id="Elipse_43-3" data-name="Elipse 43-3" cx="0.399" cy="0.384" rx="0.399" ry="0.384" transform="translate(7.04)" fill="none" stroke="#bbb" stroke-linecap="round" stroke-linejoin="round" stroke-width="0.5"/>
      </g>
      <g id="Content" transform="translate(3103 -116.17)">
        <line id="Linha_18" data-name="Linha 18" x2="6.854" transform="translate(0.71)" fill="none" stroke="#bbb" stroke-linecap="round" stroke-linejoin="round" stroke-width="2"/>
        <line id="Linha_19" data-name="Linha 19" x2="3.581" transform="translate(2.912 3.864)" fill="none" stroke="#bbb" stroke-linecap="round" stroke-linejoin="round" stroke-width="2"/>
        <line id="Linha_19-2" data-name="Linha 19-2" x2="4.56" transform="translate(9.975 3.864)" fill="none" stroke="#bbb" stroke-linecap="round" stroke-linejoin="round" stroke-width="2"/>
        <line id="Linha_19-3" data-name="Linha 19-3" x2="7.78" transform="translate(20.401 3.864)" fill="none" stroke="#bbb" stroke-linecap="round" stroke-linejoin="round" stroke-width="2"/>
        <line id="Linha_20" data-name="Linha 20" x2="12.55" transform="translate(13.794 7.209)" fill="none" stroke="#bbb" stroke-linecap="round" stroke-linejoin="round" stroke-width="2"/>
        <line id="Linha_20-2" data-name="Linha 20-2" x2="5.289" transform="translate(0 7.26)" fill="none" stroke="#bbb" stroke-linecap="round" stroke-linejoin="round" stroke-width="2"/>
        <line id="Linha_21" data-name="Linha 21" x2="7.268" transform="translate(4.444 10.752)" fill="none" stroke="#bbb" stroke-linecap="round" stroke-linejoin="round" stroke-width="2"/>
        <line id="Linha_21-2" data-name="Linha 21-2" x2="2.46" transform="translate(15.845 10.752)" fill="none" stroke="#bbb" stroke-linecap="round" stroke-linejoin="round" stroke-width="2"/>
        <line id="Linha_18-2" data-name="Linha 18-2" x2="10.383" transform="translate(17.158)" fill="none" stroke="#bbb" stroke-linecap="round" stroke-linejoin="round" stroke-width="2"/>
        <line id="Linha_21-3" data-name="Linha 21-3" x2="4.417" transform="translate(22.477 10.752)" fill="none" stroke="#bbb" stroke-linecap="round" stroke-linejoin="round" stroke-width="2"/>
      </g>
      <g id="Footer" transform="translate(3100 -123.929)">
        <path id="Linha_17" data-name="Linha 17" d="M0,0H.048" transform="translate(34.952 2.287)" fill="none" stroke="#bbb" stroke-linecap="round" stroke-width="4"/>
        <ellipse id="Elipse_40" data-name="Elipse 40" cx="3.001" cy="2.911" rx="3.001" ry="2.911" stroke-width="1" stroke="#bbb" stroke-linecap="round" stroke-linejoin="round" fill="#bbb"/>
        <path id="Linha_17-2" data-name="Linha 17" d="M0,0H16.161" transform="translate(11.956 2.287)" fill="none" stroke="#bbb" stroke-linecap="round" stroke-width="5"/>
      </g>
      <g id="Comments" transform="translate(3107 -102)">
        <rect id="Retângulo_55" data-name="Retângulo 55" width="21" height="10" rx="2" fill="#bbb"/>
        <ellipse id="Elipse_40-2" data-name="Elipse 40" cx="1.66" cy="1.61" rx="1.66" ry="1.61" transform="translate(1.283 1.372)" fill="#fff" stroke="#fff" stroke-linecap="round" stroke-linejoin="round" stroke-width="1"/>
        <path id="Linha_17-3" data-name="Linha 17" d="M0,0H8.938" transform="translate(6.896 2.637)" fill="#fff" stroke="#fff" stroke-linecap="round" stroke-width="2"/>
        <path id="Linha_17-4" data-name="Linha 17" d="M0,0H3.729" transform="translate(4.896 5.637)" fill="#fff" stroke="#fff" stroke-linecap="round" stroke-width="1"/>
        <path id="Linha_17-5" data-name="Linha 17" d="M0,0H7.417" transform="translate(10.896 5.637)" fill="#fff" stroke="#fff" stroke-linecap="round" stroke-width="1"/>
        <path id="Linha_17-6" data-name="Linha 17" d="M0,0H7.469" transform="translate(4.896 7.637)" fill="#fff" stroke="#fff" stroke-linecap="round" stroke-width="1"/>
        <path id="Linha_17-7" data-name="Linha 17" d="M2.508,0H0" transform="translate(14.604 7.637)" fill="#fff" stroke="#fff" stroke-linecap="round" stroke-width="1"/>
      </g>
    </g>
    <g id="Globo">
      <g id="Subtração_1" data-name="Subtração 1" transform="translate(2997 -105)" fill="none">
        <path d="M121.775,14.5h0A20.052,20.052,0,0,0,94.2,14.48a19.933,19.933,0,0,1-4.535-6.47A19.859,19.859,0,0,1,88,0a20.071,20.071,0,0,1,3.745-11.655A18.706,18.706,0,0,1,93.7-14.019,19.848,19.848,0,0,0,108-8a19.85,19.85,0,0,0,14.283-6A19.887,19.887,0,0,1,128,0a19.859,19.859,0,0,1-1.674,8.024,19.93,19.93,0,0,1-4.55,6.475Z" stroke="none"/>
        <path d="M 121.7022476196289 12.43087577819824 C 123.0523986816406 10.94632339477539 124.142692565918 9.266345024108887 124.9515991210938 7.421504974365234 C 125.9789123535156 5.078535079956055 126.4998016357422 2.581584930419922 126.4998016357422 5.028381565352902e-06 C 126.4998016357422 -4.377443790435791 124.9837036132813 -8.534439086914063 122.2022476196289 -11.8567066192627 C 118.2768478393555 -8.390986442565918 113.2917709350586 -6.500094890594482 108 -6.500094890594482 C 102.7017364501953 -6.500094890594482 97.71243286132813 -8.394950866699219 93.78515625 -11.86774253845215 C 93.50006866455078 -11.52008628845215 93.22970581054688 -11.16264533996582 92.97586822509766 -10.79756450653076 C 90.66959381103516 -7.487074851989746 89.50019836425781 -3.854244947433472 89.50019836425781 5.028381565352902e-06 C 89.50019836425781 2.576585054397583 90.01937103271484 5.069385051727295 91.04328155517578 7.409134864807129 C 91.84873962402344 9.24964714050293 92.93391418457031 10.9261999130249 94.27790832519531 12.40890789031982 C 98.10822296142578 9.233319282531738 102.9260787963867 7.50000524520874 108 7.50000524520874 C 113.0415954589844 7.50000524520874 117.8526229858398 9.24079418182373 121.7022476196289 12.43087577819824 M 121.7748336791992 14.4998950958252 L 121.7741394042969 14.49923515319824 C 118.0417861938477 10.95300483703613 113.150032043457 9.000004768371582 108 9.000004768371582 C 102.8105773925781 9.000004768371582 97.91127014160156 10.94630527496338 94.20458221435547 14.48038482666016 C 92.26396942138672 12.63088512420654 90.73848724365234 10.45409488677979 89.66911315917969 8.010504722595215 C 88.56169891357422 5.479955196380615 88.00019836425781 2.78483510017395 88.00019836425781 5.028381565352902e-06 C 88.00019836425781 -4.166784763336182 89.26016998291016 -8.088085174560547 91.74510192871094 -11.65499496459961 C 92.32314300537109 -12.48636531829834 92.98036193847656 -13.2817850112915 93.69850921630859 -14.0191650390625 C 97.49346160888672 -10.13770484924316 102.5719833374023 -8.000095367431641 108 -8.000095367431641 C 113.4175796508789 -8.000095367431641 118.4899063110352 -10.13088512420654 122.2826080322266 -13.99994468688965 C 125.9699020385742 -10.2384147644043 127.9998016357422 -5.266465187072754 127.9998016357422 5.028381565352902e-06 C 127.9998016357422 2.790215015411377 127.4364318847656 5.489825248718262 126.3253479003906 8.023844718933105 C 125.2521514892578 10.47144508361816 123.7213668823242 12.65008544921875 121.775520324707 14.49923515319824 L 121.7748336791992 14.4998950958252 Z" stroke="none" fill="#131313"/>
      </g>
      <g id="Caminho_294" data-name="Caminho 294" transform="translate(3094.305 -115.695)" fill="none">
        <path d="M10.695-8.589C16.6-8.589,21.39,4.788,21.39,10.695S16.6,30.676,10.695,30.676,0,16.6,0,10.695,4.788-8.589,10.695-8.589Z" stroke="none"/>
        <path d="M 10.69482421875 -7.088523864746094 C 8.758264541625977 -7.088523864746094 6.437904357910156 -4.632724761962891 4.48785400390625 -0.5192642211914063 C 2.728654861450195 3.191606521606445 1.500003814697266 7.803006172180176 1.500003814697266 10.69482612609863 C 1.500003814697266 13.17487621307373 2.529773712158203 17.95058631896973 4.497953414916992 22.27978515625 C 6.461234092712402 26.59822463989258 8.777824401855469 29.17639541625977 10.69482421875 29.17639541625977 C 12.61182403564453 29.17639541625977 14.9284143447876 26.59822463989258 16.89169311523438 22.27978515625 C 18.8598747253418 17.95058631896973 19.88964462280273 13.17487621307373 19.88964462280273 10.69482612609863 C 19.88964462280273 7.803006172180176 18.6609935760498 3.191606521606445 16.90179443359375 -0.5192642211914063 C 14.95174407958984 -4.632724761962891 12.63138389587402 -7.088523864746094 10.69482421875 -7.088523864746094 M 10.69482421875 -8.588523864746094 C 16.60141372680664 -8.588523864746094 21.38964462280273 4.788236618041992 21.38964462280273 10.69482612609863 C 21.38964462280273 16.60141563415527 16.60141372680664 30.67639541625977 10.69482421875 30.67639541625977 C 4.788234710693359 30.67639541625977 3.814697265625e-06 16.60141563415527 3.814697265625e-06 10.69482612609863 C 3.814697265625e-06 4.788236618041992 4.788234710693359 -8.588523864746094 10.69482421875 -8.588523864746094 Z" stroke="none" fill="#131313"/>
      </g>
      <g id="Caminho_295" data-name="Caminho 295" transform="translate(3099 -111)" fill="none">
        <path d="M6-12.834c3.314,0,6,15.52,6,18.834S9.314,25.734,6,25.734,0,9.314,0,6,2.686-12.834,6-12.834Z" stroke="none"/>
        <path d="M 6 -11.25266075134277 C 5.61435604095459 -10.88880729675293 4.427741050720215 -9.365028381347656 3.046500205993652 -3.622425079345703 C 2.037429809570313 0.5728139877319336 1.5 4.661454200744629 1.5 6.000003814697266 C 1.5 7.333144187927246 2.050069808959961 11.67136383056641 3.044690132141113 16.02823448181152 C 4.402992248535156 21.97821807861328 5.581746578216553 23.67911529541016 6 24.12176895141602 C 6.418253421783447 23.67911529541016 7.597007751464844 21.97821807861328 8.955309867858887 16.02823448181152 C 9.949930191040039 11.67136383056641 10.5 7.333144187927246 10.5 6.000003814697266 C 10.5 4.661454200744629 9.962570190429688 0.5728139877319336 8.953499794006348 -3.622425079345703 C 7.572258949279785 -9.365028381347656 6.38564395904541 -10.88880729675293 6 -11.25266075134277 M 6 -12.83398628234863 C 9.31371021270752 -12.83398628234863 12 2.686293601989746 12 6.000003814697266 C 12 9.313703536987305 9.31371021270752 25.73385429382324 6 25.73385429382324 C 2.68628978729248 25.73385429382324 0 9.313703536987305 0 6.000003814697266 C 0 2.686293601989746 2.68628978729248 -12.83398628234863 6 -12.83398628234863 Z" stroke="none" fill="#131313"/>
      </g>
      <g id="Caminho_296" data-name="Caminho 296" transform="translate(3090 -120)" fill="none">
        <path d="M15-4.641C23.284-4.641,30,6.716,30,15S23.284,34.769,15,34.769,0,23.284,0,15,6.716-4.641,15-4.641Z" stroke="none"/>
        <path d="M 15 -3.141395568847656 C 13.32523918151855 -3.141395568847656 11.64040946960449 -2.5853271484375 9.9923095703125 -1.488616943359375 C 8.432750701904297 -0.450836181640625 6.921499252319336 1.078254699707031 5.621929168701172 2.933334350585938 C 3.079429626464844 6.56268310546875 1.5 11.18635368347168 1.5 15.00000381469727 C 1.5 18.82309341430664 3.080699920654297 23.47296333312988 5.62523078918457 27.13503456115723 C 6.926570892333984 29.0079231262207 8.438669204711914 30.55183410644531 9.998039245605469 31.59986305236816 C 11.64569091796875 32.70722198486328 13.32859039306641 33.26870346069336 15 33.26870346069336 C 16.67140960693359 33.26870346069336 18.35430908203125 32.70722198486328 20.00196075439453 31.59986305236816 C 21.56132888793945 30.55183410644531 23.07342910766602 29.0079231262207 24.37477111816406 27.13503456115723 C 26.9193000793457 23.47296333312988 28.5 18.82309341430664 28.5 15.00000381469727 C 28.5 11.18635368347168 26.92057037353516 6.56268310546875 24.37807083129883 2.933334350585938 C 23.07849884033203 1.078254699707031 21.5672492980957 -0.450836181640625 20.0076904296875 -1.488616943359375 C 18.35958862304688 -2.5853271484375 16.67475891113281 -3.141395568847656 15 -3.141395568847656 M 15 -4.641395568847656 C 23.28426933288574 -4.641395568847656 30 6.715723037719727 30 15.00000381469727 C 30 23.28427505493164 23.28426933288574 34.76870346069336 15 34.76870346069336 C 6.715730667114258 34.76870346069336 0 23.28427505493164 0 15.00000381469727 C 0 6.715723037719727 6.715730667114258 -4.641395568847656 15 -4.641395568847656 Z" stroke="none" fill="#131313"/>
      </g>
      <line id="Linha_30" data-name="Linha 30" x2="37" transform="translate(3086.5 -104.5)" fill="none" stroke="#131313" stroke-width="1"/>
      <path id="Caminho_297" data-name="Caminho 297" d="M3027-63.2v-37.638" transform="translate(78 -23)" fill="none" stroke="#131313" stroke-width="2"/>
      <g id="Caminho_299" data-name="Caminho 299" transform="translate(3085 -125)" fill="none">
        <path d="M20,0A20,20,0,1,1,3.745,8.345,20,20,0,0,1,20,0Z" stroke="none"/>
        <path d="M 20 1.5 C 16.97504997253418 1.5 13.97036933898926 2.241420745849609 11.3107795715332 3.644111633300781 C 8.759269714355469 4.989791870117188 6.568878173828125 6.911571502685547 4.975620269775391 9.202779769897461 C 2.669368743896484 12.5130500793457 1.5 16.14575958251953 1.5 20 C 1.5 24.94153022766113 3.424339294433594 29.58728981018066 6.918521881103516 33.08148193359375 C 10.41271018981934 36.57566070556641 15.05846977233887 38.5 20 38.5 C 24.94153022766113 38.5 29.58728981018066 36.57566070556641 33.08148193359375 33.08148193359375 C 36.57566070556641 29.58728981018066 38.5 24.94153022766113 38.5 20 C 38.5 15.05846977233887 36.57566070556641 10.41271018981934 33.08148193359375 6.918521881103516 C 29.58728981018066 3.424339294433594 24.94153022766113 1.5 20 1.5 M 20 0 C 31.04570007324219 0 40 8.954299926757813 40 20 C 40 31.04570007324219 31.04570007324219 40 20 40 C 8.954299926757813 40 0 31.04570007324219 0 20 C 0 15.75847053527832 1.320358276367188 11.82531929016113 3.744869232177734 8.345319747924805 C 7.185268402099609 3.397781372070313 13.19582939147949 0 20 0 Z" stroke="none" fill="#131313"/>
      </g>
    </g>
  </g>
</svg>
