<svg xmlns="http://www.w3.org/2000/svg" width="40" height="40" viewBox="0 0 40 40">
  <g id="JusticeBlackDiaD" transform="translate(-3283 126)">
    <g id="PostBlackDiaD" transform="translate(186 -0.071)">
      <g id="CommentsCount" transform="translate(3114 -89.697)">
        <ellipse id="Elipse_43" data-name="Elipse 43" cx="0.399" cy="0.384" rx="0.399" ry="0.384" stroke-width="0.5" stroke="#bbb" stroke-linecap="round" stroke-linejoin="round" fill="none"/>
        <ellipse id="Elipse_43-2" data-name="Elipse 43-2" cx="0.399" cy="0.384" rx="0.399" ry="0.384" transform="translate(3.525)" fill="none" stroke="#bbb" stroke-linecap="round" stroke-linejoin="round" stroke-width="0.5"/>
        <ellipse id="Elipse_43-3" data-name="Elipse 43-3" cx="0.399" cy="0.384" rx="0.399" ry="0.384" transform="translate(7.04)" fill="none" stroke="#bbb" stroke-linecap="round" stroke-linejoin="round" stroke-width="0.5"/>
      </g>
      <g id="Content" transform="translate(3103 -116.17)">
        <line id="Linha_18" data-name="Linha 18" x2="6.854" transform="translate(0.71)" fill="none" stroke="#bbb" stroke-linecap="round" stroke-linejoin="round" stroke-width="2"/>
        <line id="Linha_19" data-name="Linha 19" x2="3.581" transform="translate(2.912 3.864)" fill="none" stroke="#bbb" stroke-linecap="round" stroke-linejoin="round" stroke-width="2"/>
        <line id="Linha_19-2" data-name="Linha 19-2" x2="4.56" transform="translate(9.975 3.864)" fill="none" stroke="#bbb" stroke-linecap="round" stroke-linejoin="round" stroke-width="2"/>
        <line id="Linha_19-3" data-name="Linha 19-3" x2="7.78" transform="translate(20.401 3.864)" fill="none" stroke="#bbb" stroke-linecap="round" stroke-linejoin="round" stroke-width="2"/>
        <line id="Linha_20" data-name="Linha 20" x2="12.55" transform="translate(13.794 7.209)" fill="none" stroke="#bbb" stroke-linecap="round" stroke-linejoin="round" stroke-width="2"/>
        <line id="Linha_20-2" data-name="Linha 20-2" x2="5.289" transform="translate(0 7.26)" fill="none" stroke="#bbb" stroke-linecap="round" stroke-linejoin="round" stroke-width="2"/>
        <line id="Linha_21" data-name="Linha 21" x2="7.268" transform="translate(4.444 10.752)" fill="none" stroke="#bbb" stroke-linecap="round" stroke-linejoin="round" stroke-width="2"/>
        <line id="Linha_21-2" data-name="Linha 21-2" x2="2.46" transform="translate(15.845 10.752)" fill="none" stroke="#bbb" stroke-linecap="round" stroke-linejoin="round" stroke-width="2"/>
        <line id="Linha_18-2" data-name="Linha 18-2" x2="10.383" transform="translate(17.158)" fill="none" stroke="#bbb" stroke-linecap="round" stroke-linejoin="round" stroke-width="2"/>
        <line id="Linha_21-3" data-name="Linha 21-3" x2="4.417" transform="translate(22.477 10.752)" fill="none" stroke="#bbb" stroke-linecap="round" stroke-linejoin="round" stroke-width="2"/>
      </g>
      <g id="Footer" transform="translate(3100 -123.929)">
        <path id="Linha_17" data-name="Linha 17" d="M0,0H.048" transform="translate(34.952 2.287)" fill="none" stroke="#bbb" stroke-linecap="round" stroke-width="4"/>
        <ellipse id="Elipse_40" data-name="Elipse 40" cx="3.001" cy="2.911" rx="3.001" ry="2.911" stroke-width="1" stroke="#bbb" stroke-linecap="round" stroke-linejoin="round" fill="#bbb"/>
        <path id="Linha_17-2" data-name="Linha 17" d="M0,0H16.161" transform="translate(11.956 2.287)" fill="none" stroke="#bbb" stroke-linecap="round" stroke-width="5"/>
      </g>
      <g id="Comments" transform="translate(3107 -102)">
        <rect id="Retângulo_55" data-name="Retângulo 55" width="21" height="10" rx="2" fill="#bbb"/>
        <ellipse id="Elipse_40-2" data-name="Elipse 40" cx="1.66" cy="1.61" rx="1.66" ry="1.61" transform="translate(1.283 1.372)" fill="#fff" stroke="#fff" stroke-linecap="round" stroke-linejoin="round" stroke-width="1"/>
        <path id="Linha_17-3" data-name="Linha 17" d="M0,0H8.938" transform="translate(6.896 2.637)" fill="#fff" stroke="#fff" stroke-linecap="round" stroke-width="2"/>
        <path id="Linha_17-4" data-name="Linha 17" d="M0,0H3.729" transform="translate(4.896 5.637)" fill="#fff" stroke="#fff" stroke-linecap="round" stroke-width="1"/>
        <path id="Linha_17-5" data-name="Linha 17" d="M0,0H7.417" transform="translate(10.896 5.637)" fill="#fff" stroke="#fff" stroke-linecap="round" stroke-width="1"/>
        <path id="Linha_17-6" data-name="Linha 17" d="M0,0H7.469" transform="translate(4.896 7.637)" fill="#fff" stroke="#fff" stroke-linecap="round" stroke-width="1"/>
        <path id="Linha_17-7" data-name="Linha 17" d="M2.508,0H0" transform="translate(14.604 7.637)" fill="#fff" stroke="#fff" stroke-linecap="round" stroke-width="1"/>
      </g>
    </g>
    <g id="Balance" transform="translate(95 -71.979)">
      <path id="Caminho_171" data-name="Caminho 171" d="M12.834,20.265c-1.107-.084-1.916-.8-1.82-1.6V-6.17a1,1,0,0,1,.239-.974,1.879,1.879,0,0,1,1.118-.565h.066a1.981,1.981,0,0,1,2.206.985.97.97,0,0,1,0,.561V18.671C14.721,19.468,13.925,20.169,12.834,20.265Z" transform="translate(3195.786 -46.282)" fill="#131313"/>
      <path id="Caminho_174" data-name="Caminho 174" d="M11.813,4.754a8.675,8.675,0,0,1-2.886-.812A17.023,17.023,0,0,1,6.506,2.226,7.952,7.952,0,0,0,1.038,0,1.069,1.069,0,0,0,0,1.068,1.051,1.051,0,0,0,1.038,2.135c1.907-.182,3.46,1.2,4.9,2.308a12.04,12.04,0,0,0,2.3,1.533,10.908,10.908,0,0,0,3.029.849,1.061,1.061,0,0,0,1.266-.757,1.134,1.134,0,0,0-.1-.805.991.991,0,0,0-.6-.49h0Z" transform="matrix(0.985, -0.174, 0.174, 0.985, 3192.336, -48.24)" fill="#131313" stroke="#131313" stroke-width="1"/>
      <path id="Caminho_175" data-name="Caminho 175" d="M2.61,7.9a5.608,5.608,0,0,1-5.75,5.494A5.627,5.627,0,0,1-8.39,7.9Z" transform="translate(3196.39 -41.517)" fill="#131313"/>
      <path id="Caminho_179" data-name="Caminho 179" d="M3.848,28.55H22.571c3,0,5.44,1.98,5.44,4.411V34.34H-1.54V32.961C-1.571,30.53.863,28.55,3.848,28.55Z" transform="translate(3194.839 -48.361)" fill="#131313"/>
      <path id="Caminho_178" data-name="Caminho 178" d="M26.972,2.76,23.61,9.734h6.7Z" transform="translate(3166.89 -46.391)" fill="none" stroke="#131313" stroke-linejoin="round" stroke-width="1.5"/>
      <path id="Caminho_174-2" data-name="Caminho 174" d="M11.813,4.754a8.675,8.675,0,0,1-2.886-.812A17.023,17.023,0,0,1,6.506,2.226,7.952,7.952,0,0,0,1.038,0,1.069,1.069,0,0,0,0,1.068,1.051,1.051,0,0,0,1.038,2.135c1.907-.182,3.46,1.2,4.9,2.308a12.04,12.04,0,0,0,2.3,1.533,10.908,10.908,0,0,0,3.029.849,1.061,1.061,0,0,0,1.266-.757,1.134,1.134,0,0,0-.1-.805.991.991,0,0,0-.6-.49h0Z" transform="matrix(0.985, -0.174, 0.174, 0.985, 3211.407, -43.795)" fill="#131313" stroke="#131313" stroke-width="1"/>
      <path id="Caminho_175-2" data-name="Caminho 175" d="M-8.39,7.9a5.608,5.608,0,0,0,5.75,5.494A5.627,5.627,0,0,0,2.61,7.9Z" transform="translate(3225.39 -34.24)" fill="#131313"/>
      <path id="Caminho_178-2" data-name="Caminho 178" d="M26.972,2.76,23.61,9.734h6.7Z" transform="translate(3195.89 -38.142)" fill="none" stroke="#131313" stroke-linejoin="round" stroke-width="1.5"/>
    </g>
  </g>
</svg>
