<svg xmlns="http://www.w3.org/2000/svg" width="455.462" height="455.462" viewBox="0 0 455.462 455.462">
  <path id="Linkedin" d="M414.262,0H41.2A41.2,41.2,0,0,0,0,41.2V414.26a41.2,41.2,0,0,0,41.2,41.2H414.26a41.2,41.2,0,0,0,41.2-41.2V41.2A41.2,41.2,0,0,0,414.262,0ZM140.939,393.276a11.99,11.99,0,0,1-11.99,11.99H77.911a11.99,11.99,0,0,1-11.99-11.99V179.327a11.99,11.99,0,0,1,11.99-11.99h51.038a11.99,11.99,0,0,1,11.99,11.99ZM103.43,147.169a48.486,48.486,0,1,1,48.486-48.486A48.487,48.487,0,0,1,103.43,147.169ZM407.662,394.242a11.025,11.025,0,0,1-11.024,11.024H341.871a11.025,11.025,0,0,1-11.024-11.024V293.887c0-14.971,4.391-65.6-39.123-65.6-33.753,0-40.6,34.656-41.974,50.208V394.242a11.024,11.024,0,0,1-11.024,11.024h-52.97a11.025,11.025,0,0,1-11.024-11.024V178.361a11.025,11.025,0,0,1,11.024-11.024h52.97a11.025,11.025,0,0,1,11.024,11.024v18.666c12.516-18.782,31.116-33.28,70.718-33.28,87.7,0,87.195,81.931,87.195,126.947V394.242Z" fill="#0077b7"/>
</svg>
