<svg xmlns="http://www.w3.org/2000/svg" width="176" height="176" viewBox="0 0 176 176">
  <g id="Logo" transform="translate(-72 -196)">
    <g id="Retângulo_39" data-name="Retângulo 39" transform="translate(72 196)" fill="none" stroke="#08f" stroke-width="3">
      <rect width="176" height="176" stroke="none"/>
      <rect x="1.5" y="1.5" width="173" height="173" fill="none"/>
    </g>
    <g id="Agrupar_72" data-name="Agrupar 72" transform="translate(21.031 184.691)">
      <path id="Caminho_120" data-name="Caminho 120" d="M204.187,124a43.827,43.827,0,0,1-2.416,14.42,43.235,43.235,0,0,1-4.173,8.781,44.222,44.222,0,0,1-4.173,5.678,44.892,44.892,0,0,1-4.173,4.212,41.528,41.528,0,0,1-4.173,3.248,42.027,42.027,0,0,1-4.173,2.562,39.995,39.995,0,0,1-4.173,1.954h0a37.859,37.859,0,0,1-4.16,1.466h0a39.808,39.808,0,0,1-4.16,1.017h0a40.947,40.947,0,0,1-4.16.594h0c-1.32.132-2.747.2-4.16.2s-2.8-.066-4.173-.2-2.8-.33-4.173-.594a40.056,40.056,0,0,1-4.173-1.017,38.073,38.073,0,0,1-4.173-1.466,40,40,0,0,1-4.173-1.954,42.033,42.033,0,0,1-4.173-2.562,41.531,41.531,0,0,1-4.173-3.248,44.89,44.89,0,0,1-4.173-4.212,44.224,44.224,0,0,1-4.173-5.678,43.234,43.234,0,0,1-4.173-8.781A44.137,44.137,0,0,1,130.886,90.9a41.529,41.529,0,0,1,4.173-3.248,42.036,42.036,0,0,1,4.173-2.562,40,40,0,0,1,4.173-1.954,38.074,38.074,0,0,1,4.173-1.466,40.052,40.052,0,0,1,4.173-1.017,41.212,41.212,0,0,1,4.173-.594c1.413-.132,2.76-.2,4.173-.2a28.977,28.977,0,0,1,4.16.2h0c1.413.132,2.786.33,4.16.594h0a39.817,39.817,0,0,1,4.16,1.017h0a37.859,37.859,0,0,1,4.186,1.466h0a40,40,0,0,1,4.173,1.954,42.034,42.034,0,0,1,4.173,2.562,41.532,41.532,0,0,1,4.173,3.248A44.166,44.166,0,0,1,204.226,124Z" transform="translate(-21.364 -36.962)" fill="none" stroke="#08f" stroke-miterlimit="10" stroke-width="1"/>
      <path id="Caminho_121" data-name="Caminho 121" d="M202.142,123.956a43.827,43.827,0,0,1-2.417,14.42,43.233,43.233,0,0,1-4.173,8.781,44.222,44.222,0,0,1-4.173,5.678,44.89,44.89,0,0,1-4.173,4.212,41.525,41.525,0,0,1-4.173,3.248,42.035,42.035,0,0,1-4.173,2.562,39.992,39.992,0,0,1-4.173,1.954h0a37.863,37.863,0,0,1-4.16,1.466h0a39.809,39.809,0,0,1-4.16,1.017h0a40.946,40.946,0,0,1-4.16.594h0a6.5,6.5,0,0,1-1-.119h0c-1.043-.119-2.073-.277-3.1-.475h0a39.813,39.813,0,0,1-4.16-1.017h0a36.969,36.969,0,0,1-4.16-1.466,39.991,39.991,0,0,1-4.173-1.954,42.027,42.027,0,0,1-4.173-2.562,41.531,41.531,0,0,1-4.173-3.248,44.893,44.893,0,0,1-4.173-4.212,44.227,44.227,0,0,1-4.173-5.678,43.235,43.235,0,0,1-4.173-8.781,44.137,44.137,0,0,1,12.518-47.525,41.529,41.529,0,0,1,4.173-3.248,42.039,42.039,0,0,1,4.173-2.562,40,40,0,0,1,4.014-1.954,36.972,36.972,0,0,1,4.16-1.466h0a39.807,39.807,0,0,1,4.16-1.017h0c1.03-.2,2.06-.357,3.1-.475h0c.343,0,.66-.092,1-.119h0c1.413.132,2.786.33,4.16.594h0a39.811,39.811,0,0,1,4.16,1.017h0a37.858,37.858,0,0,1,4.344,1.466h0a40,40,0,0,1,4.173,1.954,42.035,42.035,0,0,1,4.173,2.562,41.53,41.53,0,0,1,4.173,3.248,44.166,44.166,0,0,1,14.948,33.1Z" transform="translate(-19.32 -36.914)" fill="none" stroke="#08f" stroke-miterlimit="10" stroke-width="1"/>
      <path id="Caminho_122" data-name="Caminho 122" d="M200.129,123.812a43.827,43.827,0,0,1-2.417,14.42,43.232,43.232,0,0,1-4.173,8.781,44.22,44.22,0,0,1-4.173,5.678,44.894,44.894,0,0,1-4.173,4.212,41.533,41.533,0,0,1-4.173,3.248,42.035,42.035,0,0,1-4.173,2.562,40,40,0,0,1-4.173,1.954h0a37.864,37.864,0,0,1-4.16,1.466h0a39.81,39.81,0,0,1-4.16,1.017h0l-.489-.106h0c-1.228-.251-2.456-.555-3.645-.911h0a36.966,36.966,0,0,1-4.16-1.466,39.987,39.987,0,0,1-4.173-1.954,42.021,42.021,0,0,1-4.173-2.562,41.527,41.527,0,0,1-4.173-3.248,44.9,44.9,0,0,1-4.173-4.212,44.227,44.227,0,0,1-4.173-5.678,43.233,43.233,0,0,1-4.173-8.781,44.137,44.137,0,0,1,12.518-47.525,41.525,41.525,0,0,1,4.067-3.248,42.028,42.028,0,0,1,4.173-2.562,40,40,0,0,1,4.173-1.954,36.977,36.977,0,0,1,4.16-1.466h0c1.188-.357,2.417-.66,3.645-.911h0l.489-.106h0a39.815,39.815,0,0,1,4.16,1.017h0a37.856,37.856,0,0,1,4.292,1.466h0a40,40,0,0,1,4.173,1.954,42.031,42.031,0,0,1,4.173,2.562,41.529,41.529,0,0,1,4.173,3.248,44.166,44.166,0,0,1,14.948,33.1Z" transform="translate(-17.307 -36.77)" fill="none" stroke="#08f" stroke-miterlimit="10" stroke-width="1"/>
      <path id="Caminho_123" data-name="Caminho 123" d="M170.683,164.4h0a37.858,37.858,0,0,1-4.16,1.466h0l-.33-.092c-1.32-.4-2.641-.858-3.829-1.321a39.99,39.99,0,0,1-4.173-1.954,42.039,42.039,0,0,1-4.173-2.562,41.527,41.527,0,0,1-4.173-3.248,44.892,44.892,0,0,1-4.173-4.212,44.226,44.226,0,0,1-4.173-5.678,43.231,43.231,0,0,1-4.173-8.781,44.137,44.137,0,0,1,12.518-47.525,41.524,41.524,0,0,1,4.173-3.248,42.036,42.036,0,0,1,4.173-2.562,40,40,0,0,1,4.173-1.954,29.792,29.792,0,0,1,3.829-1.32l.33-.092h0a37.861,37.861,0,0,1,4.16,1.36h0a40,40,0,0,1,4.173,1.954,42.033,42.033,0,0,1,4.173,2.562,41.53,41.53,0,0,1,4.173,3.248,44.137,44.137,0,0,1,12.518,47.525,43.236,43.236,0,0,1-4.173,8.781,44.223,44.223,0,0,1-4.173,5.678,44.9,44.9,0,0,1-4.173,4.212,41.54,41.54,0,0,1-4.173,3.248,42.036,42.036,0,0,1-4.173,2.562A40.009,40.009,0,0,1,170.683,164.4Z" transform="translate(-15.288 -36.498)" fill="none" stroke="#08f" stroke-miterlimit="10" stroke-width="1"/>
      <path id="Caminho_124" data-name="Caminho 124" d="M172.826,162.111a39.983,39.983,0,0,1-4.173,1.954h0l-.251-.106a39.09,39.09,0,0,1-3.962-1.849,42.024,42.024,0,0,1-4.173-2.562A43.074,43.074,0,0,1,156.1,156.3a44.894,44.894,0,0,1-4.173-4.212,44.224,44.224,0,0,1-4.173-5.678,43.232,43.232,0,0,1-4.173-8.781A44.137,44.137,0,0,1,156.1,90.1a43.079,43.079,0,0,1,4.173-3.248,42.029,42.029,0,0,1,4.173-2.562,39.086,39.086,0,0,1,3.962-1.849l.251-.106h0a40,40,0,0,1,4.173,1.954A42.032,42.032,0,0,1,177,86.856a41.534,41.534,0,0,1,4.173,3.248,44.137,44.137,0,0,1,12.518,47.525,43.232,43.232,0,0,1-4.173,8.781,44.221,44.221,0,0,1-4.173,5.678,44.891,44.891,0,0,1-4.173,4.212A41.53,41.53,0,0,1,177,159.549a42.027,42.027,0,0,1-4.173,2.562Z" transform="translate(-13.285 -36.168)" fill="none" stroke="#08f" stroke-miterlimit="10" stroke-width="1"/>
      <path id="Caminho_125" data-name="Caminho 125" d="M174.967,159.075a42.019,42.019,0,0,1-4.173,2.562l-.225-.119a41.758,41.758,0,0,1-3.961-2.443,43.069,43.069,0,0,1-4.173-3.248,44.894,44.894,0,0,1-4.173-4.212,44.223,44.223,0,0,1-4.173-5.678,43.229,43.229,0,0,1-4.173-8.781A44.137,44.137,0,0,1,162.436,89.63a43.075,43.075,0,0,1,4.212-3.248,41.761,41.761,0,0,1,3.961-2.443l.224-.119a42.036,42.036,0,0,1,4.173,2.562,41.533,41.533,0,0,1,4.173,3.248A44.137,44.137,0,0,1,191.7,137.155a43.233,43.233,0,0,1-4.173,8.781,44.224,44.224,0,0,1-4.173,5.678,44.89,44.89,0,0,1-4.173,4.212,41.528,41.528,0,0,1-4.212,3.248Z" transform="translate(-11.253 -35.693)" fill="none" stroke="#08f" stroke-miterlimit="10" stroke-width="1"/>
      <path id="Caminho_126" data-name="Caminho 126" d="M177.1,155.2a41.533,41.533,0,0,1-4.173,3.248.673.673,0,0,1-.172-.119,41.755,41.755,0,0,1-3.961-3.13,44.9,44.9,0,0,1-4.173-4.212,44.224,44.224,0,0,1-4.173-5.678,43.232,43.232,0,0,1-4.173-8.781A44.137,44.137,0,0,1,168.8,89.008a41.761,41.761,0,0,1,3.961-3.13.674.674,0,0,1,.172-.119,41.527,41.527,0,0,1,4.173,3.248,44.137,44.137,0,0,1,12.518,47.525,43.234,43.234,0,0,1-4.173,8.781,44.226,44.226,0,0,1-4.173,5.678A44.894,44.894,0,0,1,177.1,155.2Z" transform="translate(-9.214 -35.071)" fill="none" stroke="#08f" stroke-miterlimit="10" stroke-width="1"/>
      <path id="Caminho_127" data-name="Caminho 127" d="M179.246,150.2a44.89,44.89,0,0,1-4.173,4.212l-.158-.145a44.89,44.89,0,0,1-3.962-4.067,44.226,44.226,0,0,1-4.173-5.678,43.234,43.234,0,0,1-4.173-8.781,44.117,44.117,0,0,1,12.36-47.379l.158-.145a44.137,44.137,0,0,1,12.518,47.525,43.232,43.232,0,0,1-4.173,8.781,44.217,44.217,0,0,1-4.226,5.678Z" transform="translate(-7.186 -34.283)" fill="none" stroke="#08f" stroke-miterlimit="10" stroke-width="1"/>
      <path id="Caminho_128" data-name="Caminho 128" d="M181.408,143.5a44.227,44.227,0,0,1-4.173,5.678l-.132-.158a42.57,42.57,0,0,1-4.041-5.52,43.234,43.234,0,0,1-4.173-8.781A44.091,44.091,0,0,1,177.1,91.569l.132-.158a45.165,45.165,0,0,1,4.173,5.678,44.2,44.2,0,0,1,4.173,37.634,43.236,43.236,0,0,1-4.173,8.781Z" transform="translate(-5.175 -33.261)" fill="none" stroke="#08f" stroke-miterlimit="10" stroke-width="1"/>
      <path id="Caminho_129" data-name="Caminho 129" d="M183.552,133.344a43.233,43.233,0,0,1-4.173,8.781l-.119-.185a43.06,43.06,0,0,1-4.054-8.6,44.21,44.21,0,0,1,4.054-37.449l.119-.185a44.2,44.2,0,0,1,4.173,37.634Z" transform="translate(-3.147 -31.883)" fill="none" stroke="#08f" stroke-miterlimit="10" stroke-width="1"/>
      <path id="Caminho_130" data-name="Caminho 130" d="M181.526,102.37a44.237,44.237,0,0,1,0,28.84,2.045,2.045,0,0,1-.106-.3,44.276,44.276,0,0,1,0-28.232A2.044,2.044,0,0,1,181.526,102.37Z" transform="translate(-1.121 -29.748)" fill="none" stroke="#08f" stroke-miterlimit="10" stroke-width="1"/>
      <path id="Caminho_131" data-name="Caminho 131" d="M120.743,116.783a43.814,43.814,0,0,1-2.311,14.142,2.04,2.04,0,0,1-.106.3,44.237,44.237,0,0,1,0-28.84,2.05,2.05,0,0,1,.106.3A43.814,43.814,0,0,1,120.743,116.783Z" transform="translate(-21.376 -29.742)" fill="none" stroke="#08f" stroke-miterlimit="10" stroke-width="1"/>
      <path id="Caminho_132" data-name="Caminho 132" d="M129.089,118.924a43.827,43.827,0,0,1-2.417,14.42,43.061,43.061,0,0,1-4.054,8.6l-.119.185a43.232,43.232,0,0,1-4.173-8.781A44.171,44.171,0,0,1,122.5,95.71l.119.185A44.2,44.2,0,0,1,129.089,118.924Z" transform="translate(-21.377 -31.883)" fill="none" stroke="#08f" stroke-miterlimit="10" stroke-width="1"/>
      <path id="Caminho_133" data-name="Caminho 133" d="M137.435,120.3a43.827,43.827,0,0,1-2.417,14.42,43.233,43.233,0,0,1-4.173,8.781,42.573,42.573,0,0,1-4.041,5.52l-.132.158A44.223,44.223,0,0,1,122.5,143.5a43.232,43.232,0,0,1-4.173-8.781A44.171,44.171,0,0,1,122.5,97.088a45.161,45.161,0,0,1,4.173-5.678l.132.158a44.078,44.078,0,0,1,10.63,28.734Z" transform="translate(-21.377 -33.261)" fill="none" stroke="#08f" stroke-miterlimit="10" stroke-width="1"/>
      <path id="Caminho_134" data-name="Caminho 134" d="M145.768,121.325a43.827,43.827,0,0,1-2.416,14.42,43.236,43.236,0,0,1-4.173,8.781,44.226,44.226,0,0,1-4.173,5.678,44.9,44.9,0,0,1-3.962,4.067l-.158.145a44.891,44.891,0,0,1-4.173-4.212,44.224,44.224,0,0,1-4.173-5.678,43.236,43.236,0,0,1-4.173-8.781A44.137,44.137,0,0,1,130.886,88.22l.159.145a44.137,44.137,0,0,1,14.79,32.96Z" transform="translate(-21.364 -34.283)" fill="none" stroke="#08f" stroke-miterlimit="10" stroke-width="1"/>
      <path id="Caminho_135" data-name="Caminho 135" d="M154.123,122.113a43.816,43.816,0,0,1-2.44,14.412,43.234,43.234,0,0,1-4.175,8.789,44.226,44.226,0,0,1-4.173,5.678,44.891,44.891,0,0,1-4.173,4.212,41.752,41.752,0,0,1-3.961,3.13.5.5,0,0,1-.172.119,41.526,41.526,0,0,1-4.173-3.248,44.893,44.893,0,0,1-4.173-4.212,44.223,44.223,0,0,1-4.173-5.678,43.232,43.232,0,0,1-4.173-8.781,44.137,44.137,0,0,1,12.518-47.525,41.528,41.528,0,0,1,4.173-3.248.5.5,0,0,1,.172.119,41.753,41.753,0,0,1,3.962,3.13,44.166,44.166,0,0,1,14.948,33.1Z" transform="translate(-21.374 -35.071)" fill="none" stroke="#08f" stroke-miterlimit="10" stroke-width="1"/>
      <path id="Caminho_136" data-name="Caminho 136" d="M162.472,122.735a43.828,43.828,0,0,1-2.417,14.42,43.233,43.233,0,0,1-4.173,8.781,44.219,44.219,0,0,1-4.173,5.678,44.89,44.89,0,0,1-4.173,4.212,46.216,46.216,0,0,1-8.121,5.691l-.224.119a42.02,42.02,0,0,1-4.173-2.562,41.529,41.529,0,0,1-4.173-3.248,44.9,44.9,0,0,1-4.173-4.212,44.223,44.223,0,0,1-4.173-5.678,43.233,43.233,0,0,1-4.173-8.781A44.137,44.137,0,0,1,130.846,89.63a41.529,41.529,0,0,1,4.173-3.248,42.039,42.039,0,0,1,4.173-2.562l.224.119a46.218,46.218,0,0,1,8.121,5.691,44.166,44.166,0,0,1,14.948,33.1Z" transform="translate(-21.377 -35.693)" fill="none" stroke="#08f" stroke-miterlimit="10" stroke-width="1"/>
      <path id="Caminho_137" data-name="Caminho 137" d="M170.817,123.209a43.827,43.827,0,0,1-2.417,14.42,43.232,43.232,0,0,1-4.173,8.781,44.22,44.22,0,0,1-4.173,5.678,44.892,44.892,0,0,1-4.173,4.212,41.526,41.526,0,0,1-4.173,3.248,42.389,42.389,0,0,1-8.081,4.41l-.264.106a40,40,0,0,1-4.173-1.954,42.04,42.04,0,0,1-4.173-2.562,41.535,41.535,0,0,1-4.173-3.248,44.892,44.892,0,0,1-4.173-4.212,44.223,44.223,0,0,1-4.173-5.678,43.234,43.234,0,0,1-4.173-8.781A44.137,44.137,0,0,1,130.846,90.1a41.527,41.527,0,0,1,4.173-3.248,42.035,42.035,0,0,1,4.173-2.562,40,40,0,0,1,4.173-1.954l.264.106a42.387,42.387,0,0,1,8.055,4.41,41.531,41.531,0,0,1,4.173,3.248,44.166,44.166,0,0,1,14.948,33.1Z" transform="translate(-21.377 -36.168)" fill="none" stroke="#08f" stroke-miterlimit="10" stroke-width="1"/>
      <path id="Caminho_138" data-name="Caminho 138" d="M179.156,123.578a43.827,43.827,0,0,1-2.39,14.42,43.231,43.231,0,0,1-4.173,8.781,44.223,44.223,0,0,1-4.173,5.678,44.892,44.892,0,0,1-4.173,4.212,41.538,41.538,0,0,1-4.173,3.248,42.034,42.034,0,0,1-4.173,2.562,40,40,0,0,1-4.173,1.954,29.8,29.8,0,0,1-3.829,1.32l-.343.092a38.07,38.07,0,0,1-4.173-1.466,39.987,39.987,0,0,1-4.173-1.954,42.027,42.027,0,0,1-4.173-2.562,41.528,41.528,0,0,1-4.173-3.248,44.9,44.9,0,0,1-4.173-4.212,44.218,44.218,0,0,1-4.173-5.678,43.232,43.232,0,0,1-4.173-8.781A44.137,44.137,0,0,1,130.866,90.42a41.525,41.525,0,0,1,4.173-3.248,42.033,42.033,0,0,1,4.173-2.562,40,40,0,0,1,4.173-1.954,38.07,38.07,0,0,1,4.173-1.466l.343.092c1.32.4,2.641.858,3.829,1.32a40,40,0,0,1,4.173,1.954,42.036,42.036,0,0,1,4.173,2.562,41.529,41.529,0,0,1,4.173,3.248,44.166,44.166,0,0,1,14.948,33.1Z" transform="translate(-21.371 -36.536)" fill="none" stroke="#08f" stroke-miterlimit="10" stroke-width="1"/>
      <path id="Caminho_139" data-name="Caminho 139" d="M187.5,123.812a43.828,43.828,0,0,1-2.417,14.42,43.234,43.234,0,0,1-4.173,8.781,44.224,44.224,0,0,1-4.173,5.678,44.892,44.892,0,0,1-4.173,4.212,41.527,41.527,0,0,1-4.173,3.248,42.033,42.033,0,0,1-4.173,2.562,39.99,39.99,0,0,1-4.173,1.954,38.068,38.068,0,0,1-4.173,1.466h0c-1.188.357-2.4.66-3.631.911h0l-.5.106a40.045,40.045,0,0,1-4.173-1.017,38.067,38.067,0,0,1-4.173-1.466,40,40,0,0,1-4.173-1.954,42.035,42.035,0,0,1-4.173-2.562,41.532,41.532,0,0,1-4.173-3.248,44.892,44.892,0,0,1-4.173-4.212,44.221,44.221,0,0,1-4.173-5.678,43.234,43.234,0,0,1-4.173-8.781,44.137,44.137,0,0,1,12.518-47.525,41.528,41.528,0,0,1,4.173-3.248,42.035,42.035,0,0,1,4.173-2.562,40,40,0,0,1,4.173-1.954,38.075,38.075,0,0,1,4.173-1.466,40.051,40.051,0,0,1,4.173-1.017l.5.106h0c1.228.251,2.443.555,3.631.911h0a38.066,38.066,0,0,1,4.173,1.466,39.994,39.994,0,0,1,4.173,1.954,42.032,42.032,0,0,1,4.173,2.562,41.526,41.526,0,0,1,4.173,3.248,44.166,44.166,0,0,1,14.948,33.1Z" transform="translate(-21.368 -36.77)" fill="none" stroke="#08f" stroke-miterlimit="10" stroke-width="1"/>
      <path id="Caminho_140" data-name="Caminho 140" d="M195.847,123.956a43.828,43.828,0,0,1-2.417,14.42,43.231,43.231,0,0,1-4.173,8.781,44.228,44.228,0,0,1-4.173,5.678,44.894,44.894,0,0,1-4.173,4.212,41.526,41.526,0,0,1-4.173,3.248,42.022,42.022,0,0,1-4.173,2.562,39.989,39.989,0,0,1-4.173,1.954,38.065,38.065,0,0,1-4.173,1.466h0a39.815,39.815,0,0,1-4.16,1.017h0c-1.03.2-2.047.357-3.09.475h-.066c-.343,0-.66.092-1,.119-1.413-.132-2.8-.33-4.173-.594a40.043,40.043,0,0,1-4.173-1.017,38.066,38.066,0,0,1-4.173-1.466,39.994,39.994,0,0,1-4.173-1.954,42.04,42.04,0,0,1-4.173-2.562,41.532,41.532,0,0,1-4.173-3.248,44.9,44.9,0,0,1-4.173-4.212,44.225,44.225,0,0,1-4.173-5.678,43.233,43.233,0,0,1-4.173-8.781,44.137,44.137,0,0,1,12.518-47.525,41.53,41.53,0,0,1,4.173-3.248,42.037,42.037,0,0,1,4.173-2.562,40,40,0,0,1,4.173-1.954,38.071,38.071,0,0,1,4.173-1.466,40.043,40.043,0,0,1,4.173-1.017,41.2,41.2,0,0,1,4.173-.594,2.907,2.907,0,0,1,1,.119h.053c1.043.119,2.06.277,3.09.475h0a39.815,39.815,0,0,1,4.16,1.017h0a38.073,38.073,0,0,1,4.173,1.466,40,40,0,0,1,4.173,1.954,42.03,42.03,0,0,1,4.212,2.562,41.532,41.532,0,0,1,4.173,3.248,44.166,44.166,0,0,1,14.948,33.1Z" transform="translate(-21.371 -36.914)" fill="none" stroke="#08f" stroke-miterlimit="10" stroke-width="1"/>
      <path id="Caminho_141" data-name="Caminho 141" d="M204.187,124a43.827,43.827,0,0,1-2.416,14.42,43.235,43.235,0,0,1-4.173,8.781,44.222,44.222,0,0,1-4.173,5.678,44.892,44.892,0,0,1-4.173,4.212,41.528,41.528,0,0,1-4.173,3.248,42.027,42.027,0,0,1-4.173,2.562,39.995,39.995,0,0,1-4.173,1.954h0a37.859,37.859,0,0,1-4.16,1.466h0a39.808,39.808,0,0,1-4.16,1.017h0a40.947,40.947,0,0,1-4.16.594h0c-1.32.132-2.747.2-4.16.2s-2.8-.066-4.173-.2-2.8-.33-4.173-.594a40.056,40.056,0,0,1-4.173-1.017,38.073,38.073,0,0,1-4.173-1.466,40,40,0,0,1-4.173-1.954,42.033,42.033,0,0,1-4.173-2.562,41.531,41.531,0,0,1-4.173-3.248,44.89,44.89,0,0,1-4.173-4.212,44.224,44.224,0,0,1-4.173-5.678,43.234,43.234,0,0,1-4.173-8.781A44.137,44.137,0,0,1,130.886,90.9a41.529,41.529,0,0,1,4.173-3.248,42.036,42.036,0,0,1,4.173-2.562,40,40,0,0,1,4.173-1.954,38.074,38.074,0,0,1,4.173-1.466,40.052,40.052,0,0,1,4.173-1.017,41.212,41.212,0,0,1,4.173-.594c1.413-.132,2.76-.2,4.173-.2a28.977,28.977,0,0,1,4.16.2h0c1.413.132,2.786.33,4.16.594h0a39.817,39.817,0,0,1,4.16,1.017h0a37.859,37.859,0,0,1,4.186,1.466h0a40,40,0,0,1,4.173,1.954,42.034,42.034,0,0,1,4.173,2.562,41.532,41.532,0,0,1,4.173,3.248A44.166,44.166,0,0,1,204.226,124Z" transform="translate(-21.364 -36.962)" fill="none" stroke="#08f" stroke-miterlimit="10" stroke-width="1"/>
      <path id="Caminho_142" data-name="Caminho 142" d="M160.064,79.853A44.368,44.368,0,0,1,189,90.615a41.9,41.9,0,0,1,4.212,4.173,39.815,39.815,0,0,1,3.262,4.173,47.647,47.647,0,0,1,2.562,4.173,39.99,39.99,0,0,1,1.954,4.173h0a40.748,40.748,0,0,1,1.453,4.16h0a41.572,41.572,0,0,1,1.03,4.16h0c.264,1.32.449,2.747.594,4.16h0c.119,1.32.185,2.747.185,4.16a31.224,31.224,0,0,1-.185,4.173c-.185,1.373-.33,2.8-.594,4.173a42.72,42.72,0,0,1-1.03,4.173,40.926,40.926,0,0,1-1.453,4.173,40,40,0,0,1-1.954,4.173,47.652,47.652,0,0,1-2.562,4.173,39.816,39.816,0,0,1-3.262,4.173A41.9,41.9,0,0,1,189,157.327a43.775,43.775,0,0,1-14.525,8.346,44.223,44.223,0,0,1-37.634-4.173,47.166,47.166,0,0,1-5.678-4.173,44.9,44.9,0,0,1-4.212-4.173,41.406,41.406,0,0,1-3.235-4.173,39.678,39.678,0,0,1-2.562-4.173,37.555,37.555,0,0,1-1.967-4.173,38.009,38.009,0,0,1-1.453-4.173,40.085,40.085,0,0,1-1.03-4.173c-.251-1.32-.449-2.76-.581-4.173a43.919,43.919,0,0,1,0-8.332h0c.132-1.413.33-2.786.581-4.16h0a39.854,39.854,0,0,1,1.03-4.16h0a37.793,37.793,0,0,1,1.453-4.16h0a37.561,37.561,0,0,1,1.968-4.173,39.683,39.683,0,0,1,2.562-4.173,41.412,41.412,0,0,1,3.235-4.173,44.9,44.9,0,0,1,4.212-4.173,47.167,47.167,0,0,1,5.678-4.173,44.236,44.236,0,0,1,23.228-6.6Z" transform="translate(-21.373 -36.969)" fill="none" stroke="#08f" stroke-miterlimit="10" stroke-width="1"/>
      <path id="Caminho_143" data-name="Caminho 143" d="M160.016,79.853a44.368,44.368,0,0,1,28.932,10.762,41.9,41.9,0,0,1,4.212,4.173,39.813,39.813,0,0,1,3.262,4.173,47.651,47.651,0,0,1,2.562,4.173,40,40,0,0,1,1.954,4.173h0a40.755,40.755,0,0,1,1.453,4.16h0a41.576,41.576,0,0,1,1.03,4.16h0c.264,1.32.449,2.747.594,4.16h0a8.707,8.707,0,0,1-.132,1h0c-.106,1.043-.264,2.073-.462,3.1h0a41.588,41.588,0,0,1-1.03,4.16h0a44.188,44.188,0,0,1-3.407,8.332,47.655,47.655,0,0,1-2.562,4.173,39.81,39.81,0,0,1-3.262,4.173,41.9,41.9,0,0,1-4.212,4.173,43.775,43.775,0,0,1-14.525,8.346,44.223,44.223,0,0,1-37.634-4.173,47.169,47.169,0,0,1-5.678-4.173,44.893,44.893,0,0,1-4.212-4.173,41.405,41.405,0,0,1-3.235-4.173,39.674,39.674,0,0,1-2.562-4.173,37.561,37.561,0,0,1-1.967-4.173,36.856,36.856,0,0,1-1.453-4.16h0a39.851,39.851,0,0,1-1.03-4.16h0c-.185-1.03-.343-2.06-.475-3.1h0c0-.343-.092-.66-.106-1h0c.132-1.413.33-2.786.581-4.16h0a39.85,39.85,0,0,1,1.03-4.16h0a37.788,37.788,0,0,1,1.453-4.16h0a37.559,37.559,0,0,1,1.968-4.173,39.675,39.675,0,0,1,2.562-4.173,41.414,41.414,0,0,1,3.235-4.173,44.894,44.894,0,0,1,4.212-4.173,47.167,47.167,0,0,1,5.678-4.173,44.236,44.236,0,0,1,23.228-6.6Z" transform="translate(-21.325 -36.969)" fill="none" stroke="#08f" stroke-miterlimit="10" stroke-width="1"/>
      <path id="Caminho_144" data-name="Caminho 144" d="M159.875,79.853a44.368,44.368,0,0,1,28.932,10.762,41.9,41.9,0,0,1,4.212,4.173,39.809,39.809,0,0,1,3.262,4.173,47.651,47.651,0,0,1,2.562,4.173,39.99,39.99,0,0,1,1.954,4.173h0a40.752,40.752,0,0,1,1.453,4.16h0a41.585,41.585,0,0,1,1.03,4.16h0a.75.75,0,0,1-.119.489h0c-.251,1.228-.541,2.456-.911,3.645h0a44.187,44.187,0,0,1-3.407,8.332,47.658,47.658,0,0,1-2.562,4.173,39.816,39.816,0,0,1-3.262,4.173,41.9,41.9,0,0,1-4.212,4.173,43.774,43.774,0,0,1-14.525,8.346,44.224,44.224,0,0,1-37.634-4.173,47.169,47.169,0,0,1-5.678-4.173,44.9,44.9,0,0,1-4.212-4.173,41.411,41.411,0,0,1-3.235-4.173,39.69,39.69,0,0,1-2.562-4.173,37.561,37.561,0,0,1-1.967-4.173,36.858,36.858,0,0,1-1.453-4.16h0c-.37-1.188-.66-2.417-.911-3.645h0l-.119-.489h0a39.852,39.852,0,0,1,1.03-4.16h0a37.788,37.788,0,0,1,1.453-4.16h0a37.557,37.557,0,0,1,1.968-4.173,39.676,39.676,0,0,1,2.562-4.173,41.414,41.414,0,0,1,3.235-4.173,44.9,44.9,0,0,1,4.212-4.173,47.168,47.168,0,0,1,5.678-4.173,44.237,44.237,0,0,1,23.228-6.6Z" transform="translate(-21.184 -36.969)" fill="none" stroke="#08f" stroke-miterlimit="10" stroke-width="1"/>
      <path id="Caminho_145" data-name="Caminho 145" d="M200.478,107.3h0a40.757,40.757,0,0,1,1.453,4.16h0a1.32,1.32,0,0,1-.092.33c-.4,1.321-.845,2.641-1.32,3.829a40.005,40.005,0,0,1-1.954,4.173A47.66,47.66,0,0,1,196,123.968a39.805,39.805,0,0,1-3.262,4.173,41.9,41.9,0,0,1-4.212,4.173A43.774,43.774,0,0,1,174,140.659a44.224,44.224,0,0,1-37.634-4.173,47.172,47.172,0,0,1-5.678-4.173,44.9,44.9,0,0,1-4.212-4.173,41.414,41.414,0,0,1-3.235-4.173,39.679,39.679,0,0,1-2.562-4.173,37.555,37.555,0,0,1-1.968-4.173,31.959,31.959,0,0,1-1.32-3.829,2.4,2.4,0,0,1-.092-.33h0a37.79,37.79,0,0,1,1.453-4.16h0a37.557,37.557,0,0,1,1.968-4.173,39.679,39.679,0,0,1,2.562-4.173,41.411,41.411,0,0,1,3.235-4.173,44.9,44.9,0,0,1,4.2-4.173,47.167,47.167,0,0,1,5.678-4.173,44.292,44.292,0,0,1,52.16,4.173,41.9,41.9,0,0,1,4.212,4.173,39.809,39.809,0,0,1,3.262,4.173,47.652,47.652,0,0,1,2.562,4.173,40,40,0,0,1,1.888,4.173Z" transform="translate(-20.931 -36.966)" fill="none" stroke="#08f" stroke-miterlimit="10" stroke-width="1"/>
      <path id="Caminho_146" data-name="Caminho 146" d="M198.191,103.131a40,40,0,0,1,1.954,4.173h0a2.146,2.146,0,0,1-.119.251,39.01,39.01,0,0,1-1.835,3.961,47.658,47.658,0,0,1-2.562,4.173,41.24,41.24,0,0,1-3.262,4.173,41.909,41.909,0,0,1-4.212,4.173,43.775,43.775,0,0,1-14.525,8.346A44.224,44.224,0,0,1,136,128.207a47.172,47.172,0,0,1-5.678-4.173,44.9,44.9,0,0,1-4.212-4.173,42.941,42.941,0,0,1-3.235-4.173,39.683,39.683,0,0,1-2.562-4.173,36.377,36.377,0,0,1-1.849-3.961l-.119-.251h0a37.556,37.556,0,0,1,1.968-4.173,39.689,39.689,0,0,1,2.562-4.173,41.412,41.412,0,0,1,3.235-4.173,44.9,44.9,0,0,1,4.278-4.173,47.167,47.167,0,0,1,5.678-4.173,44.292,44.292,0,0,1,52.16,4.173,41.9,41.9,0,0,1,4.212,4.173,39.813,39.813,0,0,1,3.262,4.173A47.658,47.658,0,0,1,198.191,103.131Z" transform="translate(-20.598 -36.966)" fill="none" stroke="#08f" stroke-miterlimit="10" stroke-width="1"/>
      <path id="Caminho_147" data-name="Caminho 147" d="M195.151,98.958a47.642,47.642,0,0,1,2.562,4.173l-.132.225a44.369,44.369,0,0,1-9.9,12.294,43.775,43.775,0,0,1-14.525,8.346,44.224,44.224,0,0,1-37.634-4.173,47.167,47.167,0,0,1-5.678-4.173,44.9,44.9,0,0,1-4.212-4.173,42.938,42.938,0,0,1-3.235-4.173,39.338,39.338,0,0,1-2.456-3.961c0-.079-.079-.145-.106-.224a39.681,39.681,0,0,1,2.562-4.173,41.408,41.408,0,0,1,3.235-4.173,44.9,44.9,0,0,1,4.278-4.16,47.166,47.166,0,0,1,5.678-4.173,44.292,44.292,0,0,1,52.16,4.173,41.9,41.9,0,0,1,4.212,4.173,39.812,39.812,0,0,1,3.2,4.173Z" transform="translate(-20.12 -36.966)" fill="none" stroke="#08f" stroke-miterlimit="10" stroke-width="1"/>
      <path id="Caminho_148" data-name="Caminho 148" d="M191.268,94.785a39.817,39.817,0,0,1,3.262,4.173.5.5,0,0,1-.132.172,37.939,37.939,0,0,1-3.13,3.961,41.9,41.9,0,0,1-4.212,4.173,43.775,43.775,0,0,1-14.525,8.346,44.224,44.224,0,0,1-37.634-4.173,47.169,47.169,0,0,1-5.678-4.173,44.9,44.9,0,0,1-4.212-4.173,43.972,43.972,0,0,1-3.13-3.961.608.608,0,0,1-.106-.172,41.413,41.413,0,0,1,3.235-4.173,44.9,44.9,0,0,1,4.278-4.173,47.164,47.164,0,0,1,5.678-4.173,44.292,44.292,0,0,1,52.16,4.173A41.9,41.9,0,0,1,191.268,94.785Z" transform="translate(-19.498 -36.966)" fill="none" stroke="#08f" stroke-miterlimit="10" stroke-width="1"/>
      <path id="Caminho_149" data-name="Caminho 149" d="M186.27,90.612a41.9,41.9,0,0,1,4.212,4.173l-.132.158a45.021,45.021,0,0,1-4.08,3.962,43.775,43.775,0,0,1-14.525,8.346,44.224,44.224,0,0,1-37.634-4.173,47.17,47.17,0,0,1-5.678-4.173,48.6,48.6,0,0,1-4.067-3.962.793.793,0,0,0-.145-.158,44.9,44.9,0,0,1,4.278-4.173,47.166,47.166,0,0,1,5.678-4.173,44.292,44.292,0,0,1,52.16,4.173Z" transform="translate(-18.713 -36.966)" fill="none" stroke="#08f" stroke-miterlimit="10" stroke-width="1"/>
      <path id="Caminho_150" data-name="Caminho 150" d="M179.567,86.439a43.192,43.192,0,0,1,5.665,4.173l-.145.132a43.484,43.484,0,0,1-5.52,4.041,43.01,43.01,0,0,1-8.795,4.173,44.09,44.09,0,0,1-43.154-8.213.831.831,0,0,0-.158-.132,47.166,47.166,0,0,1,5.678-4.173,44.2,44.2,0,0,1,37.634-4.173,43.01,43.01,0,0,1,8.794,4.173Z" transform="translate(-17.675 -36.966)" fill="none" stroke="#08f" stroke-miterlimit="10" stroke-width="1"/>
      <path id="Caminho_151" data-name="Caminho 151" d="M169.394,82.267a43.008,43.008,0,0,1,8.795,4.173l-.2.119a42.375,42.375,0,0,1-8.6,4.054,44.263,44.263,0,0,1-37.449-4.054.739.739,0,0,0-.185-.119,44.2,44.2,0,0,1,37.634-4.173Z" transform="translate(-16.297 -36.966)" fill="none" stroke="#08f" stroke-miterlimit="10" stroke-width="1"/>
      <path id="Caminho_152" data-name="Caminho 152" d="M138.43,82.266a44.2,44.2,0,0,1,28.826,0l-.29.106a44.316,44.316,0,0,1-28.245,0Z" transform="translate(-14.159 -36.965)" fill="none" stroke="#08f" stroke-miterlimit="10" stroke-width="1"/>
      <path id="Caminho_153" data-name="Caminho 153" d="M152.863,143.05a43.881,43.881,0,0,1,14.063,2.311l.291.106a44.2,44.2,0,0,1-28.826,0l.291-.106a43.893,43.893,0,0,1,14.182-2.311Z" transform="translate(-14.172 -16.71)" fill="none" stroke="#08f" stroke-miterlimit="10" stroke-width="1"/>
      <path id="Caminho_154" data-name="Caminho 154" d="M154.988,136.73a43.7,43.7,0,0,1,14.407,2.417,42.374,42.374,0,0,1,8.6,4.054l.2.119a43.007,43.007,0,0,1-8.795,4.173,44.223,44.223,0,0,1-37.634-4.173.739.739,0,0,0,.185-.119,44.316,44.316,0,0,1,23.043-6.47Z" transform="translate(-16.297 -18.736)" fill="none" stroke="#08f" stroke-miterlimit="10" stroke-width="1"/>
      <path id="Caminho_155" data-name="Caminho 155" d="M156.382,130.413a43.7,43.7,0,0,1,14.407,2.417A43.01,43.01,0,0,1,179.583,137a43.485,43.485,0,0,1,5.52,4.041l.145.132a43.775,43.775,0,0,1-14.525,8.346,44.223,44.223,0,0,1-37.634-4.173,47.173,47.173,0,0,1-5.678-4.173.831.831,0,0,0,.158-.132A44.1,44.1,0,0,1,156.316,130.4Z" transform="translate(-17.691 -20.765)" fill="none" stroke="#08f" stroke-miterlimit="10" stroke-width="1"/>
      <path id="Caminho_156" data-name="Caminho 156" d="M157.388,124.093a44.368,44.368,0,0,1,28.932,10.762,45.027,45.027,0,0,1,4.08,3.962l.132.158a41.9,41.9,0,0,1-4.212,4.173,43.775,43.775,0,0,1-14.525,8.346,44.224,44.224,0,0,1-37.634-4.173,47.17,47.17,0,0,1-5.678-4.173,44.891,44.891,0,0,1-4.212-4.173.792.792,0,0,0,.145-.158,48.6,48.6,0,0,1,4.067-3.961,47.165,47.165,0,0,1,5.678-4.173,44.237,44.237,0,0,1,23.228-6.6Z" transform="translate(-18.697 -22.79)" fill="none" stroke="#08f" stroke-miterlimit="10" stroke-width="1"/>
      <path id="Caminho_157" data-name="Caminho 157" d="M158.173,117.773a44.368,44.368,0,0,1,28.932,10.762,41.9,41.9,0,0,1,4.212,4.173,37.938,37.938,0,0,1,3.13,3.961.409.409,0,0,1,.132.172,39.813,39.813,0,0,1-3.262,4.173,41.9,41.9,0,0,1-4.212,4.173,43.775,43.775,0,0,1-14.525,8.346,44.224,44.224,0,0,1-37.634-4.173,47.169,47.169,0,0,1-5.678-4.173,44.9,44.9,0,0,1-4.212-4.173,41.414,41.414,0,0,1-3.235-4.173.463.463,0,0,1,.106-.172,43.982,43.982,0,0,1,3.13-3.961,44.9,44.9,0,0,1,4.212-4.173,47.169,47.169,0,0,1,5.678-4.173,44.237,44.237,0,0,1,23.228-6.6Z" transform="translate(-19.482 -24.816)" fill="none" stroke="#08f" stroke-miterlimit="10" stroke-width="1"/>
      <path id="Caminho_158" data-name="Caminho 158" d="M158.8,111.453a44.368,44.368,0,0,1,28.932,10.762,41.9,41.9,0,0,1,4.212,4.173,39.808,39.808,0,0,1,3.262,4.173,41.648,41.648,0,0,1,2.43,3.962c0,.079.079.158.132.225a47.652,47.652,0,0,1-2.562,4.173,39.81,39.81,0,0,1-3.262,4.173,41.9,41.9,0,0,1-4.212,4.173,43.775,43.775,0,0,1-14.525,8.346,44.224,44.224,0,0,1-37.634-4.173,47.169,47.169,0,0,1-5.678-4.173,44.9,44.9,0,0,1-4.212-4.173,41.408,41.408,0,0,1-3.235-4.173,39.686,39.686,0,0,1-2.562-4.173c0-.066.079-.145.106-.225a39.338,39.338,0,0,1,2.456-3.962,41.412,41.412,0,0,1,3.235-4.173,44.9,44.9,0,0,1,4.212-4.173,47.169,47.169,0,0,1,5.678-4.173,44.237,44.237,0,0,1,23.228-6.6Z" transform="translate(-20.104 -26.841)" fill="none" stroke="#08f" stroke-miterlimit="10" stroke-width="1"/>
      <path id="Caminho_159" data-name="Caminho 159" d="M159.273,105.13A44.825,44.825,0,0,1,188.2,115.945a41.9,41.9,0,0,1,4.212,4.173,39.814,39.814,0,0,1,3.262,4.173,47.649,47.649,0,0,1,2.562,4.173,42.139,42.139,0,0,1,1.836,3.961,1.6,1.6,0,0,1,.119.264,40,40,0,0,1-1.954,4.173,47.66,47.66,0,0,1-2.562,4.173,39.814,39.814,0,0,1-3.262,4.173,41.9,41.9,0,0,1-4.212,4.173,43.775,43.775,0,0,1-14.525,8.346,44.223,44.223,0,0,1-37.634-4.173,47.175,47.175,0,0,1-5.678-4.173,44.9,44.9,0,0,1-4.212-4.173,41.412,41.412,0,0,1-3.235-4.173,39.677,39.677,0,0,1-2.562-4.173,37.561,37.561,0,0,1-1.967-4.173l.119-.264a39.085,39.085,0,0,1,1.849-3.961,39.674,39.674,0,0,1,2.562-4.173,41.407,41.407,0,0,1,3.235-4.173,44.894,44.894,0,0,1,4.212-4.173,47.167,47.167,0,0,1,5.678-4.173,44.237,44.237,0,0,1,23.228-6.6Z" transform="translate(-20.582 -28.863)" fill="none" stroke="#08f" stroke-miterlimit="10" stroke-width="1"/>
      <path id="Caminho_160" data-name="Caminho 160" d="M159.635,98.813a44.368,44.368,0,0,1,28.932,10.762,41.9,41.9,0,0,1,4.212,4.173,39.814,39.814,0,0,1,3.262,4.173,47.656,47.656,0,0,1,2.562,4.173,39.993,39.993,0,0,1,1.954,4.173,31.956,31.956,0,0,1,1.32,3.829,1.017,1.017,0,0,1,.092.343,40.935,40.935,0,0,1-1.453,4.173,39.987,39.987,0,0,1-1.954,4.173A47.655,47.655,0,0,1,196,142.957a39.808,39.808,0,0,1-3.262,4.173,41.9,41.9,0,0,1-4.212,4.173A43.775,43.775,0,0,1,174,159.648a44.223,44.223,0,0,1-37.634-4.173,47.164,47.164,0,0,1-5.678-4.173,44.9,44.9,0,0,1-4.212-4.173,41.4,41.4,0,0,1-3.235-4.173,39.681,39.681,0,0,1-2.562-4.173,37.557,37.557,0,0,1-1.968-4.173,38.007,38.007,0,0,1-1.453-4.173,1.466,1.466,0,0,1,.092-.343c.383-1.32.858-2.641,1.32-3.829a37.557,37.557,0,0,1,1.968-4.173,39.681,39.681,0,0,1,2.562-4.173,41.407,41.407,0,0,1,3.235-4.173,44.9,44.9,0,0,1,4.212-4.173,47.168,47.168,0,0,1,5.678-4.173,44.237,44.237,0,0,1,23.228-6.6Z" transform="translate(-20.944 -30.892)" fill="none" stroke="#08f" stroke-miterlimit="10" stroke-width="1"/>
      <path id="Caminho_161" data-name="Caminho 161" d="M159.875,92.493a44.368,44.368,0,0,1,28.932,10.762,41.9,41.9,0,0,1,4.212,4.173,39.808,39.808,0,0,1,3.262,4.173,47.663,47.663,0,0,1,2.562,4.173,40.005,40.005,0,0,1,1.954,4.173,40.934,40.934,0,0,1,1.453,4.173h0a37.418,37.418,0,0,1,.911,3.631h0a2.139,2.139,0,0,0,.119.5c-.277,1.413-.621,2.813-1.03,4.173A40.934,40.934,0,0,1,200.8,136.6a39.992,39.992,0,0,1-1.954,4.173,47.65,47.65,0,0,1-2.562,4.173,39.812,39.812,0,0,1-3.262,4.173,41.9,41.9,0,0,1-4.212,4.173,43.775,43.775,0,0,1-14.525,8.346,44.224,44.224,0,0,1-37.634-4.173,47.163,47.163,0,0,1-5.678-4.173,44.891,44.891,0,0,1-4.212-4.173,41.409,41.409,0,0,1-3.235-4.173,39.672,39.672,0,0,1-2.562-4.173,37.555,37.555,0,0,1-1.967-4.173,38.006,38.006,0,0,1-1.453-4.173,40.1,40.1,0,0,1-1.03-4.173,2.5,2.5,0,0,1,.119-.5h0a37.429,37.429,0,0,1,.911-3.631h0a38,38,0,0,1,1.453-4.173,37.553,37.553,0,0,1,1.968-4.173,39.684,39.684,0,0,1,2.562-4.173,41.413,41.413,0,0,1,3.235-4.173,44.9,44.9,0,0,1,4.212-4.173,47.168,47.168,0,0,1,5.678-4.173,44.237,44.237,0,0,1,23.228-6.6Z" transform="translate(-21.184 -32.918)" fill="none" stroke="#08f" stroke-miterlimit="10" stroke-width="1"/>
      <path id="Caminho_162" data-name="Caminho 162" d="M160.016,86.173a44.368,44.368,0,0,1,28.932,10.762,41.9,41.9,0,0,1,4.212,4.173,39.818,39.818,0,0,1,3.262,4.173,47.652,47.652,0,0,1,2.562,4.173,40,40,0,0,1,1.954,4.173,40.941,40.941,0,0,1,1.453,4.173h0a41.581,41.581,0,0,1,1.03,4.16h0c.2,1.03.357,2.047.462,3.09h0a8.7,8.7,0,0,1,.132,1c-.145,1.413-.33,2.8-.594,4.173a42.734,42.734,0,0,1-1.03,4.173,40.931,40.931,0,0,1-1.453,4.173,40,40,0,0,1-1.954,4.173,47.65,47.65,0,0,1-2.562,4.173,39.808,39.808,0,0,1-3.262,4.173,41.9,41.9,0,0,1-4.212,4.173,43.775,43.775,0,0,1-14.525,8.346,44.224,44.224,0,0,1-37.634-4.173,47.168,47.168,0,0,1-5.678-4.173,44.9,44.9,0,0,1-4.212-4.173,41.407,41.407,0,0,1-3.235-4.173,39.69,39.69,0,0,1-2.562-4.173,37.555,37.555,0,0,1-1.968-4.173,38,38,0,0,1-1.453-4.173,40.09,40.09,0,0,1-1.03-4.173c-.251-1.32-.449-2.76-.581-4.173a8.623,8.623,0,0,1,.106-1h0c.132-1.043.291-2.06.475-3.09h0a39.859,39.859,0,0,1,1.03-4.16h0a38.006,38.006,0,0,1,1.453-4.173,37.554,37.554,0,0,1,1.968-4.173,39.678,39.678,0,0,1,2.562-4.173,41.413,41.413,0,0,1,3.235-4.173,44.9,44.9,0,0,1,4.212-4.173,47.168,47.168,0,0,1,5.678-4.173,44.237,44.237,0,0,1,23.228-6.6Z" transform="translate(-21.325 -34.943)" fill="none" stroke="#08f" stroke-miterlimit="10" stroke-width="1"/>
      <path id="Caminho_163" data-name="Caminho 163" d="M160.064,79.853A44.368,44.368,0,0,1,189,90.615a41.9,41.9,0,0,1,4.212,4.173,39.815,39.815,0,0,1,3.262,4.173,47.647,47.647,0,0,1,2.562,4.173,39.99,39.99,0,0,1,1.954,4.173h0a40.748,40.748,0,0,1,1.453,4.16h0a41.572,41.572,0,0,1,1.03,4.16h0c.264,1.32.449,2.747.594,4.16h0c.119,1.32.185,2.747.185,4.16a31.224,31.224,0,0,1-.185,4.173c-.185,1.373-.33,2.8-.594,4.173a42.72,42.72,0,0,1-1.03,4.173,40.926,40.926,0,0,1-1.453,4.173,40,40,0,0,1-1.954,4.173,47.652,47.652,0,0,1-2.562,4.173,39.816,39.816,0,0,1-3.262,4.173A41.9,41.9,0,0,1,189,157.327a43.775,43.775,0,0,1-14.525,8.346,44.223,44.223,0,0,1-37.634-4.173,47.166,47.166,0,0,1-5.678-4.173,44.9,44.9,0,0,1-4.212-4.173,41.406,41.406,0,0,1-3.235-4.173,39.678,39.678,0,0,1-2.562-4.173,37.555,37.555,0,0,1-1.967-4.173,38.009,38.009,0,0,1-1.453-4.173,40.085,40.085,0,0,1-1.03-4.173c-.251-1.32-.449-2.76-.581-4.173a43.919,43.919,0,0,1,0-8.332h0c.132-1.413.33-2.786.581-4.16h0a39.854,39.854,0,0,1,1.03-4.16h0a37.793,37.793,0,0,1,1.453-4.16h0a37.561,37.561,0,0,1,1.968-4.173,39.683,39.683,0,0,1,2.562-4.173,41.412,41.412,0,0,1,3.235-4.173,44.9,44.9,0,0,1,4.212-4.173,47.167,47.167,0,0,1,5.678-4.173,44.236,44.236,0,0,1,23.228-6.6Z" transform="translate(-21.373 -36.969)" fill="none" stroke="#08f" stroke-miterlimit="10" stroke-width="1"/>
    </g>
    <text id="D_i_a_D" data-name="D i a D" transform="translate(159.545 333)" fill="#08f" font-size="16" font-family="SegoeUIHistoric, Segoe UI Historic"><tspan x="-23.801" y="0">D i a D</tspan></text>
  </g>
</svg>
