<svg xmlns="http://www.w3.org/2000/svg" width="39.04" height="37.437" viewBox="0 0 39.04 37.437">
  <g id="NewPostDiaD" transform="translate(-3602.238 -702.238)">
    <path id="Caminho_182" data-name="Caminho 182" d="M363.06,113.761a7.091,7.091,0,0,0,5.565-3.118c.6-.927,1.065-2.944,2.579-2.735s1.663,2.148,1.975,3.249a3.339,3.339,0,0,0,2.471,2.477.138.138,0,0,0,.168-.1.132.132,0,0,0-.09-.156,2.992,2.992,0,0,1-1.729-1.1,4.824,4.824,0,0,1-.724-1.909c-.233-.993-.556-2.172-1.628-2.621a2.017,2.017,0,0,0-2.453,1.2c-.305.551-.527,1.137-.886,1.657a6.292,6.292,0,0,1-1.239,1.346,6.846,6.846,0,0,1-4.009,1.532C362.88,113.5,362.88,113.773,363.06,113.761Z" transform="translate(3249.171 620.884)"/>
    <path id="Caminho_183" data-name="Caminho 183" d="M380.391,112.244a8.837,8.837,0,0,0,2.92-1.993,7.959,7.959,0,0,1,2.088-1.143c.6-.233,1.747-.682,2.328-.251a4.23,4.23,0,0,1,.6.724c.209.257.437.515.67.754a11.542,11.542,0,0,0,1.436,1.263,12.357,12.357,0,0,0,3.423,1.8c.167.06.239-.2.072-.257a11.871,11.871,0,0,1-3.77-2.088,11.225,11.225,0,0,1-1.448-1.424c-.365-.425-.694-1.077-1.316-1.2a4.189,4.189,0,0,0-1.879.347,8.642,8.642,0,0,0-1.837.88c-1.143.736-2.017,1.969-3.387,2.346a.132.132,0,0,0-.1.162.15.15,0,0,0,.174.1Z" transform="translate(3242.24 620.564)"/>
    <path id="Caminho_184" data-name="Caminho 184" d="M362.906,118.475a11.368,11.368,0,0,0,4.045-.383l-.156-.2-.395.509a.138.138,0,0,0,.054.185.12.12,0,0,0,.066,0l3.865-.365-.126-.2-.419.6c-.1.12.072.233.186.18l1.873-.82a2.393,2.393,0,0,1,1.023-.293c.383,0,.909.479.5.826-.1.084,0,.215.1.227a12.865,12.865,0,0,0,5.248-.539l-.173-.09a1.352,1.352,0,0,0,1.634.7,15.209,15.209,0,0,0,1.544-.6,2.74,2.74,0,0,1,1.705.2,4.429,4.429,0,0,0,1.352.353,4.142,4.142,0,0,0,1.3-.4c.6-.168,1.2.305,1.759.467a4.854,4.854,0,0,0,1.759.18c.18,0,.18-.281,0-.269a4.726,4.726,0,0,1-1.687-.162,7.967,7.967,0,0,0-1.424-.527,1.969,1.969,0,0,0-1.005.293,2.064,2.064,0,0,1-1.58-.048,3.554,3.554,0,0,0-2.465-.275c-.67.239-2.256,1.119-2.621,0a.15.15,0,0,0-.174-.09,12.463,12.463,0,0,1-5.164.533l.1.233c.521-.431.06-1.2-.527-1.269a2.393,2.393,0,0,0-1.328.317l-1.879.82.191.18.425-.6a.138.138,0,0,0-.054-.186.125.125,0,0,0-.072,0l-3.86.365.12.2.395-.509c.078-.1-.048-.227-.156-.2a11,11,0,0,1-3.973.371.135.135,0,1,0,0,.269Z" transform="translate(3249.236 616.949)"/>
    <path id="Caminho_185" data-name="Caminho 185" d="M388.549,109.274a.293.293,0,0,0,.132.353c.09.066.2.078.3.15s.156.2.263.275c.221.168.533.1.562-.18l-.239.09.347.425a.149.149,0,0,0,.2,0h0a1.2,1.2,0,0,1,.389-.479l-.221-.03.114.2a.167.167,0,0,0,.161.06l.353-.114-.162-.06a1.687,1.687,0,0,0,.461.6.144.144,0,0,0,.168,0,1.7,1.7,0,0,0,.323-.3h-.174l.245.132a.144.144,0,0,0,.191-.054.132.132,0,0,0-.048-.174l-.245-.138a.144.144,0,0,0-.168,0,.98.98,0,0,1-.269.251h.168a1.5,1.5,0,0,1-.407-.539.156.156,0,0,0-.162-.06l-.353.114.162.06-.114-.191a.144.144,0,0,0-.2-.048h0a1.346,1.346,0,0,0-.437.533h.221l-.347-.425c-.084-.1-.227,0-.239.1,0-.114-.712-.5-.706-.521a.138.138,0,0,0-.114-.156.144.144,0,0,0-.156.084Z" transform="translate(3238.886 620.273)"/>
    <path id="Caminho_186" data-name="Caminho 186" d="M374.329,108.985a.311.311,0,0,0,.215.323c.293.132.527-.12.82,0,.413.126.826.251,1.017-.251h-.269a.67.67,0,0,0,.8.5.55.55,0,0,0,.215-.078.132.132,0,0,0,.036-.185.138.138,0,0,0-.18-.042.407.407,0,0,1-.544-.132.388.388,0,0,1-.054-.138c-.03-.144-.221-.114-.269,0-.144.371-.539,0-.8,0-.09,0-.718.239-.706.054s-.269-.174-.281,0Z" transform="translate(3244.592 620.377)"/>
    <path id="Caminho_187" data-name="Caminho 187" d="M367.451,114.876a8.275,8.275,0,0,1,.281-2.567,3.986,3.986,0,0,0-.443-2.2l-.048.18c.509-.305.939,1.8.987,2.028a9.761,9.761,0,0,1,.168,2.208c0,.168.269.168.281,0,0-.6-.257-5.254-1.574-4.464a.138.138,0,0,0-.054.18,3.931,3.931,0,0,1,.305,2.645,4.967,4.967,0,0,0-.174,2.052c.036.168.305.1.269-.072Z" transform="translate(3247.52 619.943)"/>
    <path id="Caminho_188" data-name="Caminho 188" d="M365.541,109.432c-.79.55-.527,1.753-1.34,2.232l.2.078a2.393,2.393,0,0,1,.694-2.178c.114-.114-.03-.269-.174-.209l-.718.293c-.192.078-.826.449-.874.054,0-.209.347-.4.509-.449a1.484,1.484,0,0,1,.724,0,.144.144,0,0,0,.174-.1.119.119,0,0,0,0-.066,3.119,3.119,0,0,0-.5-.945l-.12.2a1.286,1.286,0,0,1,1.155.724.15.15,0,0,0,.2.048h0a3.96,3.96,0,0,0,.79-.993l-.263-.066a4.081,4.081,0,0,1-.03.856.132.132,0,0,0,.108.162.138.138,0,0,0,.126,0,1.011,1.011,0,0,1,1.376.042.994.994,0,0,1,.2.317l.132-.168-1.233-.042a.138.138,0,0,0-.072.251.6.6,0,0,1,.377.736l.132-.1c-.443,0-.491-.748-1.011-.772a.138.138,0,1,0,0,.269c.449,0,.485.754,1.011.778a.15.15,0,0,0,.138-.1.868.868,0,0,0-.5-1.035l-.072.245,1.239.042a.138.138,0,0,0,.138-.138,1.287,1.287,0,0,0-2.047-.479l.233.132a4.8,4.8,0,0,0,.042-.927.15.15,0,0,0-.15-.132.185.185,0,0,0-.114.066,3.728,3.728,0,0,1-.742.939h.221a1.579,1.579,0,0,0-1.4-.856.174.174,0,0,0-.138.2,2.909,2.909,0,0,1,.473.88l.168-.162c-.6-.114-1.58.048-1.6.79,0,.963,1.693-.042,2.028-.18l-.167-.209a2.692,2.692,0,0,0-.76,2.447.144.144,0,0,0,.173.09h.03c.862-.5.568-1.693,1.346-2.232.144-.1,0-.329-.144-.227Z" transform="translate(3249.137 620.738)"/>
    <path id="Caminho_189" data-name="Caminho 189" d="M399.322,107.764a.736.736,0,0,0-.431.981,1.194,1.194,0,0,0,.084.15,1.5,1.5,0,0,0,.73.509,1.646,1.646,0,0,0,1.023.156c.6-.18.6-1.035.383-1.466a1.2,1.2,0,0,0-1.514-.6h-.042c-.168.078,0,.305.138.233,1.275-.6,1.675,1.616.682,1.526a2.3,2.3,0,0,1-.9-.341c-.3-.2-.6-.814-.078-.975.168-.054.1-.311-.072-.257Z" transform="translate(3234.75 620.969)"/>
    <path id="Caminho_190" data-name="Caminho 190" d="M401.02,106.763l-.084-.76c0-.174-.305-.174-.287,0l.09.76C400.763,106.93,401.044,106.936,401.02,106.763Z" transform="translate(3234.02 621.588)"/>
    <path id="Caminho_191" data-name="Caminho 191" d="M402.676,108.547h.73a.138.138,0,1,0,0-.269h-.718a.138.138,0,1,0,0,.269Z" transform="translate(3233.268 620.623)"/>
    <path id="Caminho_192" data-name="Caminho 192" d="M399,110.082v.539c0,.168.275.168.281,0v-.539a.132.132,0,0,0-.138-.132.138.138,0,0,0-.144.132Z" transform="translate(3234.683 619.951)"/>
    <path id="Caminho_193" data-name="Caminho 193" d="M401.823,111.3l.383.473a.144.144,0,0,0,.2,0,.132.132,0,0,0,0-.191l-.383-.467a.144.144,0,0,0-.2,0,.126.126,0,0,0,0,.185Z" transform="translate(3233.565 619.499)"/>
    <path id="Caminho_194" data-name="Caminho 194" d="M398.2,107.768a1.742,1.742,0,0,1-.736-.6c-.1-.144-.347,0-.245.132a2.064,2.064,0,0,0,.838.676c.168.072.305-.162.144-.233Z" transform="translate(3235.41 621.091)"/>
    <path id="Caminho_195" data-name="Caminho 195" d="M400.14,110.718v1.071a.138.138,0,0,0,.144.132.132.132,0,0,0,.138-.132h0v-1.071a.138.138,0,0,0-.138-.138.144.144,0,0,0-.144.138Z" transform="translate(3234.224 619.697)"/>
    <path id="Caminho_196" data-name="Caminho 196" d="M402.651,109.886a1.957,1.957,0,0,1,.778.353c.138.108.335-.078.192-.185a2.148,2.148,0,0,0-.9-.425C402.55,109.6,402.472,109.85,402.651,109.886Z" transform="translate(3233.257 620.081)"/>
    <path id="Caminho_180" data-name="Caminho 180" d="M353.328,78.066a6.582,6.582,0,0,1-5.5-7.683,6.857,6.857,0,0,1,8.018-5.26,6.726,6.726,0,0,1,5.5,5.29" transform="translate(3255.277 638.006)" fill="none" stroke="#000" stroke-linecap="round" stroke-linejoin="round" stroke-width="1.5"/>
    <path id="Caminho_181" data-name="Caminho 181" d="M365.763,74.8H387.3a2.016,2.016,0,0,1,2.058,1.969h0v26.119a2.017,2.017,0,0,1-2.058,1.969H360.018a2.017,2.017,0,0,1-2.058-1.969h0V82.046" transform="translate(3251.165 634.068)" fill="none" stroke="#000" stroke-linecap="round" stroke-linejoin="round" stroke-width="1.5"/>
    <line id="Linha_35" data-name="Linha 35" y1="6.157" transform="translate(3609.843 706.498)" fill="none" stroke="#000" stroke-linecap="round" stroke-linejoin="round" stroke-width="1.5"/>
    <line id="Linha_36" data-name="Linha 36" x1="6.432" transform="translate(3606.624 709.58)" fill="none" stroke="#000" stroke-linecap="round" stroke-linejoin="round" stroke-width="1.5"/>
    <line id="Linha_18" data-name="Linha 18" x2="5.457" transform="translate(3617.448 712.655)" fill="none" stroke="#000" stroke-linecap="round" stroke-linejoin="round" stroke-width="1"/>
    <line id="Linha_19" data-name="Linha 19" x2="2.848" transform="translate(3618.885 714.606)" fill="none" stroke="#000" stroke-linecap="round" stroke-linejoin="round" stroke-width="1"/>
    <line id="Linha_19-2" data-name="Linha 19-2" x2="3.626" transform="translate(3622.786 714.606)" fill="none" stroke="#000" stroke-linecap="round" stroke-linejoin="round" stroke-width="1"/>
    <line id="Linha_19-3" data-name="Linha 19-3" x2="6.193" transform="translate(3627.693 714.606)" fill="none" stroke="#000" stroke-linecap="round" stroke-linejoin="round" stroke-width="1"/>
    <line id="Linha_20" data-name="Linha 20" x2="9.981" transform="translate(3622.445 716.557)" fill="none" stroke="#000" stroke-linecap="round" stroke-linejoin="round" stroke-width="1"/>
    <line id="Linha_20-2" data-name="Linha 20-2" x2="4.201" transform="translate(3617.149 716.587)" fill="none" stroke="#000" stroke-linecap="round" stroke-linejoin="round" stroke-width="1"/>
    <line id="Linha_21" data-name="Linha 21" x2="5.78" transform="translate(3619.441 718.478)" fill="none" stroke="#000" stroke-linecap="round" stroke-linejoin="round" stroke-width="1"/>
    <line id="Linha_21-2" data-name="Linha 21-2" x2="1.957" transform="translate(3626.412 718.478)" fill="none" stroke="#000" stroke-linecap="round" stroke-linejoin="round" stroke-width="1"/>
    <line id="Linha_22" data-name="Linha 22" x2="5.475" transform="translate(3617.933 720.428)" fill="none" stroke="#000" stroke-linecap="round" stroke-linejoin="round" stroke-width="1"/>
    <line id="Linha_22-2" data-name="Linha 22-2" x2="8.216" transform="translate(3624.3 720.428)" fill="none" stroke="#000" stroke-linecap="round" stroke-linejoin="round" stroke-width="1"/>
    <line id="Linha_23" data-name="Linha 23" x2="6.923" transform="translate(3622.265 722.385)" fill="none" stroke="#000" stroke-linecap="round" stroke-linejoin="round" stroke-width="1"/>
    <line id="Linha_24" data-name="Linha 24" x2="3.04" transform="translate(3619.286 724.318)" fill="none" stroke="#000" stroke-linecap="round" stroke-linejoin="round" stroke-width="1"/>
    <line id="Linha_24-2" data-name="Linha 24-2" x2="5.14" transform="translate(3624.007 724.324)" fill="none" stroke="#000" stroke-linecap="round" stroke-linejoin="round" stroke-width="1"/>
    <line id="Linha_24-3" data-name="Linha 24-3" x2="1.759" transform="translate(3630.648 724.312)" fill="none" stroke="#000" stroke-linecap="round" stroke-linejoin="round" stroke-width="1"/>
    <line id="Linha_25" data-name="Linha 25" x2="8.724" transform="translate(3618.885 726.262)" fill="none" stroke="#000" stroke-linecap="round" stroke-linejoin="round" stroke-width="1"/>
    <line id="Linha_25-2" data-name="Linha 25-2" x2="2.866" transform="translate(3628.698 726.268)" fill="none" stroke="#000" stroke-linecap="round" stroke-linejoin="round" stroke-width="1"/>
    <line id="Linha_18-2" data-name="Linha 18-2" x2="8.263" transform="translate(3625.114 712.655)" fill="none" stroke="#000" stroke-linecap="round" stroke-linejoin="round" stroke-width="1"/>
    <line id="Linha_21-3" data-name="Linha 21-3" x2="3.512" transform="translate(3629.35 718.478)" fill="none" stroke="#000" stroke-linecap="round" stroke-linejoin="round" stroke-width="1"/>
  </g>
</svg>
