<svg xmlns="http://www.w3.org/2000/svg" width="17.425" height="25.215" viewBox="0 0 17.425 25.215">
  <g id="PassWordWhiteDiaD" transform="translate(0.25 0.25)">
    <circle id="Elipse_32" data-name="Elipse 32" cx="7.962" cy="7.962" r="7.962" transform="translate(0.5 8.29)" fill="none" stroke="#fff" stroke-miterlimit="10" stroke-width="1.5"/>
    <path id="Caminho_164" data-name="Caminho 164" d="M60.44,27.894a9.883,9.883,0,0,0,.292-2.406c0-4.3-2.684-7.788-5.988-7.788s-6,3.487-6,7.788a9.882,9.882,0,0,0,.292,2.406" transform="translate(-46.273 -17.2)" fill="none" stroke="#fff" stroke-miterlimit="10" stroke-width="1.5"/>
    <circle id="Elipse_33" data-name="Elipse 33" cx="1.777" cy="1.777" r="1.777" transform="translate(6.685 11.596)" fill="none" stroke="#fff" stroke-miterlimit="10" stroke-width="1.5"/>
    <path id="Caminho_165" data-name="Caminho 165" d="M75.255,97.83a6.251,6.251,0,0,0-.065.909c0,1.627,0,2.945,1.337,2.945s1.339-1.317,1.339-2.945a6.012,6.012,0,0,0-.067-.909" transform="translate(-68.064 -83.217)" fill="none" stroke="#fff" stroke-miterlimit="10" stroke-width="1.5"/>
  </g>
</svg>
