<svg id="Tumblr" xmlns="http://www.w3.org/2000/svg" width="455.731" height="455.731" viewBox="0 0 455.731 455.731">
  <rect id="Retângulo_55" data-name="Retângulo 55" width="455.731" height="455.731" rx="80" fill="#2f4f6e"/>
  <path id="Caminho_290" data-name="Caminho 290" d="M336.473,330.067v55.8c-.1.043-.214.086-.317.129q-9.947,4.658-20.228,8.544a161.867,161.867,0,0,1-50.586,10.337c-1.536.06-3.071.163-4.615.24-3.371,0-10.56-.086-10.791-.094a154.825,154.825,0,0,1-16.067-1.27,116.406,116.406,0,0,1-25.6-6.271,88.317,88.317,0,0,1-34.4-22.527,54.971,54.971,0,0,1-14.437-28.085,139.736,139.736,0,0,1-2.093-25.006c-.034-41.613-.017-84.179-.017-125.792H119.259V145.325c4.212-1.664,8.445-3.122,12.554-5.027,21.729-10.1,37.624-26.1,47.712-47.815,4.933-10.637,7.7-21.926,9.608-33.455.463-2.8.832-5.61,1.244-8.415h50.269l.017,89.806h84.1v55.656H240.621s.051,99.011.129,102.313a174.457,174.457,0,0,0,1.69,22.484,26.244,26.244,0,0,0,12,18.666,48.429,48.429,0,0,0,21.772,7.678,75.949,75.949,0,0,0,23.264-1.3C312.908,343.209,325.09,337.565,336.473,330.067Z" fill="#fff"/>
</svg>
