<svg xmlns="http://www.w3.org/2000/svg" width="455.731" height="455.731" viewBox="0 0 455.731 455.731">
  <g id="WhatsApp" transform="translate(-6358 1504)">
    <rect id="Retângulo_56" data-name="Retângulo 56" width="455.731" height="455.731" rx="80" transform="translate(6358 -1504)" fill="#1bd741"/>
    <g id="Agrupar_117" data-name="Agrupar 117" transform="translate(6358 -1504)">
      <path id="Caminho_296" data-name="Caminho 296" d="M68.494,387.41l22.323-79.284A158.674,158.674,0,0,1,68.9,227.488c0-87.765,71.4-159.167,159.167-159.167s159.166,71.4,159.166,159.167-71.4,159.167-159.166,159.167a158.958,158.958,0,0,1-77.814-20.292Zm85.943-50,4.872,2.975a131.9,131.9,0,0,0,68.762,19.274c72.877,0,132.166-59.29,132.166-132.167S300.948,95.321,228.071,95.321,95.9,154.611,95.9,227.488A131.692,131.692,0,0,0,116.773,298.8l3.281,5.109L107.2,349.566Z" fill="#fff"/>
      <path id="Caminho_297" data-name="Caminho 297" d="M183.359,153.407l-10.328-.563a12.489,12.489,0,0,0-8.878,3.037c-5.007,4.348-13.013,12.754-15.472,23.708-3.667,16.333,2,36.333,16.667,56.333s42,52,90.333,65.667c15.575,4.4,27.827,1.435,37.28-4.612a33.341,33.341,0,0,0,14.508-21.166l1.649-7.7a5.351,5.351,0,0,0-2.993-5.98l-34.9-16.089a5.352,5.352,0,0,0-6.477,1.591l-13.7,17.764a3.921,3.921,0,0,1-4.407,1.312c-9.384-3.3-40.818-16.463-58.066-49.687a3.961,3.961,0,0,1,.5-4.419l13.1-15.15a5.349,5.349,0,0,0,.872-5.6l-15.046-35.2A5.352,5.352,0,0,0,183.359,153.407Z" fill="#fff"/>
    </g>
  </g>
</svg>
