<svg xmlns="http://www.w3.org/2000/svg" width="455.731" height="455.731" viewBox="0 0 455.731 455.731">
  <g id="YouTube" transform="translate(-6986 1504)">
    <rect id="Retângulo_61" data-name="Retângulo 61" width="455.731" height="455.731" rx="80" transform="translate(6986 -1504)" fill="red"/>
    <path id="Subtração_1" data-name="Subtração 1" d="M179.715,374.736h0a7.92,7.92,0,0,1-5.448-2.217,7.724,7.724,0,0,1-2.367-5.607V175.443a7.72,7.72,0,0,1,2.372-5.611,7.926,7.926,0,0,1,5.445-2.212,7.74,7.74,0,0,1,3.529.854l194.643,98.635a7.772,7.772,0,0,1,3.239,3.036,7.933,7.933,0,0,1-.1,8.031,7.77,7.77,0,0,1-3.31,2.956L183.077,373.965A7.758,7.758,0,0,1,179.715,374.736Z" transform="translate(6937.101 -1547.62)" fill="#fff"/>
  </g>
</svg>
